<svg version="1.1" id="Layer_1" xmlns="http://www.w3.org/2000/svg" xmlns:xlink="http://www.w3.org/1999/xlink" x="0px" y="0px"
	 width="100%" viewBox="0 0 322 345" enable-background="new 0 0 322 345" xml:space="preserve">
<path fill="#FEFEFE" opacity="1.000000" stroke="none" 
	d="
M1.000000,127.000000 
	C1.000000,84.666672 1.000000,42.833347 1.000000,1.000017 
	C108.333305,1.000011 215.666611,1.000011 322.999939,1.000006 
	C322.999939,115.999947 322.999939,230.999893 322.999969,345.999878 
	C215.666733,345.999939 108.333466,345.999939 1.000100,345.999969 
	C1.000000,273.166656 1.000000,200.333328 1.000000,127.000000 
M314.017578,171.500000 
	C314.027679,156.005173 313.890228,140.508499 314.085907,125.016014 
	C314.320190,106.463989 306.500397,92.543251 291.073181,82.389503 
	C261.054535,62.632107 231.180359,42.655033 201.274628,22.726507 
	C193.664810,17.655487 186.087219,12.529359 178.629822,7.238281 
	C171.345535,2.070029 163.088974,3.472654 155.015625,3.173512 
	C149.477600,2.968310 144.669006,4.235398 139.994827,7.382688 
	C117.352203,22.628696 94.558510,37.650284 71.824692,52.760925 
	C56.023838,63.263390 40.039547,73.504486 24.499161,84.379585 
	C11.988244,93.134674 4.651686,104.982903 4.750802,120.953133 
	C4.956572,154.108215 5.070920,187.268188 4.719294,220.420822 
	C4.497478,241.334427 21.930201,264.383453 48.319149,264.816010 
	C65.219307,265.093018 82.212158,264.372803 99.045799,262.822327 
	C118.329155,261.046234 136.952454,255.956985 154.389847,247.220154 
	C157.676224,245.573532 160.448608,245.692413 163.809662,247.262619 
	C187.581894,258.368469 212.736130,263.895111 238.874725,264.941132 
	C248.023788,265.307251 257.200073,265.012878 266.363831,264.988800 
	C293.998596,264.916168 313.753540,245.212387 313.924683,217.485779 
	C314.017242,202.490906 313.988922,187.495285 314.017578,171.500000 
M290.154327,314.306885 
	C294.621582,314.137268 299.107758,313.637451 303.550629,313.892456 
	C307.854584,314.139496 308.891418,312.486298 308.979065,308.424713 
	C309.073425,304.053772 307.403778,302.863220 303.412170,303.170593 
	C300.100128,303.425659 296.752045,303.179718 293.421417,303.238831 
	C290.910828,303.283417 288.801666,303.282684 288.904236,299.691803 
	C288.994659,296.526337 289.616211,294.600037 293.353271,294.757507 
	C298.342590,294.967804 303.353149,294.683716 308.341370,294.906769 
	C311.967163,295.068939 314.039795,294.216400 313.976440,290.037537 
	C313.914734,285.965942 314.083221,282.130219 308.421783,282.137817 
	C298.593414,282.150970 288.764984,282.154816 278.936707,282.125061 
	C276.245605,282.116913 275.053925,283.260529 275.062775,286.048920 
	C275.110382,301.041077 274.973480,316.034698 275.186737,331.023773 
	C275.204590,332.280060 277.312408,334.551697 278.495972,334.582977 
	C289.149933,334.864319 299.814911,334.818726 310.475372,334.724060 
	C316.147186,334.673676 314.522949,330.244873 314.836365,327.011047 
	C315.153320,323.741180 314.093201,322.005615 310.418549,322.157990 
	C305.429596,322.364929 300.425659,322.216766 295.428131,322.208038 
	C288.757233,322.196350 288.486328,321.858368 290.154327,314.306885 
M88.529327,283.812500 
	C72.134529,291.707153 66.963142,309.653809 76.687988,324.307983 
	C85.198395,337.132141 103.116959,337.383606 113.915497,332.136688 
	C115.325653,331.451477 116.555107,329.096283 116.719231,327.403198 
	C117.114586,323.324554 116.986351,319.170166 116.733498,315.067017 
	C116.642815,313.595490 115.740303,311.047424 114.947906,310.941650 
	C111.602135,310.495056 108.038368,310.298401 104.821121,311.091949 
	C103.820351,311.338776 103.374962,314.971527 103.191101,317.098816 
	C102.978104,319.563141 103.009949,321.760651 99.778419,322.170013 
	C95.695930,322.687164 90.281487,319.981903 88.024124,316.092499 
	C84.741562,310.436676 84.993660,303.751831 89.207306,299.416046 
	C92.545242,295.981354 96.856697,293.151398 101.660095,295.778168 
	C107.057892,298.729950 110.099785,297.281128 112.360870,292.158997 
	C112.622200,291.566956 113.140312,291.086609 113.547958,290.561157 
	C115.304527,288.296936 114.667259,286.521881 112.315201,285.294098 
	C104.893883,281.420258 97.201111,280.624481 88.529327,283.812500 
M19.986025,291.508423 
	C15.508092,303.116669 11.204393,314.796204 6.492568,326.308716 
	C3.207780,334.334534 2.957843,334.231842 11.690656,334.183899 
	C12.689410,334.178406 13.806251,334.465881 14.660177,334.113312 
	C16.048681,333.540039 18.188604,332.738922 18.400059,331.704559 
	C19.528772,326.183167 23.223890,325.668396 27.756357,326.110077 
	C29.570240,326.286804 31.445446,326.349243 33.240658,326.095367 
	C36.983292,325.566162 39.158936,327.042969 40.321129,330.599335 
	C40.738407,331.876221 41.794197,333.826172 42.701164,333.909058 
	C46.682655,334.273041 50.716347,334.065979 55.282070,334.065979 
	C54.531250,331.566986 54.200981,330.126953 53.673080,328.763458 
	C48.397850,315.138306 42.912518,301.590820 37.886650,287.874786 
	C36.098270,282.994110 33.053020,282.102600 28.376431,281.970673 
	C23.612774,281.836304 22.407129,284.447998 21.463238,288.050079 
	C21.214319,289.000031 20.642962,289.865479 19.986025,291.508423 
M154.171021,291.750092 
	C148.857803,305.628937 143.544586,319.507751 137.933487,334.164703 
	C142.384888,334.164703 146.015656,334.364014 149.601639,334.050659 
	C150.770523,333.948517 152.652115,332.628296 152.790710,331.661957 
	C153.572098,326.212952 157.137466,325.750946 161.493790,326.108398 
	C163.641861,326.284698 165.825287,326.264099 167.976761,326.109833 
	C171.188904,325.879547 173.338913,326.681976 174.252182,330.235596 
	C174.633179,331.718048 176.299637,333.764160 177.604340,333.944763 
	C181.267105,334.451752 185.045746,334.121552 189.268906,334.121552 
	C188.746170,332.193207 188.544937,331.076752 188.146088,330.036011 
	C182.629395,315.640930 176.898911,301.323730 171.657333,286.829620 
	C169.995438,282.234131 167.013123,282.161163 163.138092,282.028290 
	C159.023270,281.887207 156.969025,283.644745 155.968567,287.354675 
	C155.625854,288.625580 154.966507,289.811096 154.171021,291.750092 
M249.862808,308.100464 
	C255.401169,293.784851 247.529449,282.151428 232.290436,282.135315 
	C226.966324,282.129700 221.633896,282.315613 216.321045,282.071106 
	C212.771271,281.907745 211.810669,283.192352 211.849655,286.664764 
	C212.012161,301.137451 211.876282,315.613373 211.888641,330.088074 
	C211.889709,331.347656 212.174042,332.606934 212.315659,333.774445 
	C213.213989,333.955444 213.696655,334.136871 214.179703,334.137817 
	C228.177475,334.165802 225.930054,335.531219 226.006714,322.780121 
	C226.046783,316.110840 225.920227,315.889709 232.815460,316.158691 
	C239.699005,316.427216 245.775406,315.410583 249.862808,308.100464 
z"/>
<path fill="#AEABA9" opacity="1.000000" stroke="none" 
	d="
M314.016357,172.000000 
	C313.988922,187.495285 314.017242,202.490906 313.924683,217.485779 
	C313.753540,245.212387 293.998596,264.916168 266.363831,264.988800 
	C257.200073,265.012878 248.023788,265.307251 238.874725,264.941132 
	C212.736130,263.895111 187.581894,258.368469 163.809662,247.262619 
	C160.448608,245.692413 157.676224,245.573532 154.389847,247.220154 
	C136.952454,255.956985 118.329155,261.046234 99.045799,262.822327 
	C82.212158,264.372803 65.219307,265.093018 48.319149,264.816010 
	C21.930201,264.383453 4.497478,241.334427 4.719294,220.420822 
	C5.070920,187.268188 4.956572,154.108215 4.750802,120.953133 
	C4.651686,104.982903 11.988244,93.134674 24.499161,84.379585 
	C40.039547,73.504486 56.023838,63.263390 71.824692,52.760925 
	C94.558510,37.650284 117.352203,22.628696 139.994827,7.382688 
	C144.669006,4.235398 149.477600,2.968310 155.015625,3.173512 
	C163.088974,3.472654 171.345535,2.070029 178.629822,7.238281 
	C186.087219,12.529359 193.664810,17.655487 201.274628,22.726507 
	C231.180359,42.655033 261.054535,62.632107 291.073181,82.389503 
	C306.500397,92.543251 314.320190,106.463989 314.085907,125.016014 
	C313.890228,140.508499 314.027679,156.005173 314.016357,172.000000 
M271.910034,250.961395 
	C272.866425,250.676910 273.814789,250.361435 274.780365,250.112564 
	C290.721497,246.003601 299.907013,234.335785 299.921417,217.949356 
	C299.950012,185.454987 300.066895,152.959198 299.792603,120.466988 
	C299.718384,111.675056 296.225433,103.715569 288.913300,98.464447 
	C277.980072,90.612869 266.638794,83.328217 255.449081,75.835274 
	C226.976959,56.769535 198.526382,37.671196 169.986511,18.707310 
	C163.795532,14.593592 157.009323,13.272779 150.287766,17.497620 
	C142.121216,22.630737 134.128067,28.042608 126.112480,33.412395 
	C112.718536,42.385254 99.397926,51.467758 85.988884,60.417873 
	C67.303490,72.889786 48.423504,85.076790 29.925959,97.819977 
	C23.429892,102.295197 19.097769,109.182762 19.030230,117.211166 
	C18.731653,152.702621 18.805948,188.198364 18.951344,223.691711 
	C18.996405,234.692123 31.373936,248.774780 42.290665,249.780106 
	C53.182281,250.783112 64.183556,251.114746 75.122826,250.927460 
	C85.057564,250.757370 95.159645,250.429443 104.856087,248.501724 
	C121.132576,245.265839 137.227478,240.957947 152.026215,232.975266 
	C156.713547,230.446869 161.259995,230.191071 166.246689,232.809753 
	C171.660233,235.652603 177.427429,237.866013 183.150970,240.066299 
	C199.689133,246.424011 216.919907,249.956573 234.533463,250.977493 
	C246.656418,251.680145 258.854401,251.088181 271.910034,250.961395 
z"/>
<path fill="#AFABAA" opacity="1.000000" stroke="none" 
	d="
M289.835754,314.628510 
	C288.486328,321.858368 288.757233,322.196350 295.428131,322.208038 
	C300.425659,322.216766 305.429596,322.364929 310.418549,322.157990 
	C314.093201,322.005615 315.153320,323.741180 314.836365,327.011047 
	C314.522949,330.244873 316.147186,334.673676 310.475372,334.724060 
	C299.814911,334.818726 289.149933,334.864319 278.495972,334.582977 
	C277.312408,334.551697 275.204590,332.280060 275.186737,331.023773 
	C274.973480,316.034698 275.110382,301.041077 275.062775,286.048920 
	C275.053925,283.260529 276.245605,282.116913 278.936707,282.125061 
	C288.764984,282.154816 298.593414,282.150970 308.421783,282.137817 
	C314.083221,282.130219 313.914734,285.965942 313.976440,290.037537 
	C314.039795,294.216400 311.967163,295.068939 308.341370,294.906769 
	C303.353149,294.683716 298.342590,294.967804 293.353271,294.757507 
	C289.616211,294.600037 288.994659,296.526337 288.904236,299.691803 
	C288.801666,303.282684 290.910828,303.283417 293.421417,303.238831 
	C296.752045,303.179718 300.100128,303.425659 303.412170,303.170593 
	C307.403778,302.863220 309.073425,304.053772 308.979065,308.424713 
	C308.891418,312.486298 307.854584,314.139496 303.550629,313.892456 
	C299.107758,313.637451 294.621582,314.137268 289.835754,314.628510 
z"/>
<path fill="#AFABAA" opacity="1.000000" stroke="none" 
	d="
M88.881165,283.634888 
	C97.201111,280.624481 104.893883,281.420258 112.315201,285.294098 
	C114.667259,286.521881 115.304527,288.296936 113.547958,290.561157 
	C113.140312,291.086609 112.622200,291.566956 112.360870,292.158997 
	C110.099785,297.281128 107.057892,298.729950 101.660095,295.778168 
	C96.856697,293.151398 92.545242,295.981354 89.207306,299.416046 
	C84.993660,303.751831 84.741562,310.436676 88.024124,316.092499 
	C90.281487,319.981903 95.695930,322.687164 99.778419,322.170013 
	C103.009949,321.760651 102.978104,319.563141 103.191101,317.098816 
	C103.374962,314.971527 103.820351,311.338776 104.821121,311.091949 
	C108.038368,310.298401 111.602135,310.495056 114.947906,310.941650 
	C115.740303,311.047424 116.642815,313.595490 116.733498,315.067017 
	C116.986351,319.170166 117.114586,323.324554 116.719231,327.403198 
	C116.555107,329.096283 115.325653,331.451477 113.915497,332.136688 
	C103.116959,337.383606 85.198395,337.132141 76.687988,324.307983 
	C66.963142,309.653809 72.134529,291.707153 88.881165,283.634888 
z"/>
<path fill="#AEABA9" opacity="1.000000" stroke="none" 
	d="
M20.102844,291.139099 
	C20.642962,289.865479 21.214319,289.000031 21.463238,288.050079 
	C22.407129,284.447998 23.612774,281.836304 28.376431,281.970673 
	C33.053020,282.102600 36.098270,282.994110 37.886650,287.874786 
	C42.912518,301.590820 48.397850,315.138306 53.673080,328.763458 
	C54.200981,330.126953 54.531250,331.566986 55.282070,334.065979 
	C50.716347,334.065979 46.682655,334.273041 42.701164,333.909058 
	C41.794197,333.826172 40.738407,331.876221 40.321129,330.599335 
	C39.158936,327.042969 36.983292,325.566162 33.240658,326.095367 
	C31.445446,326.349243 29.570240,326.286804 27.756357,326.110077 
	C23.223890,325.668396 19.528772,326.183167 18.400059,331.704559 
	C18.188604,332.738922 16.048681,333.540039 14.660177,334.113312 
	C13.806251,334.465881 12.689410,334.178406 11.690656,334.183899 
	C2.957843,334.231842 3.207780,334.334534 6.492568,326.308716 
	C11.204393,314.796204 15.508092,303.116669 20.102844,291.139099 
M27.553305,306.885925 
	C26.684872,309.314880 25.816441,311.743805 24.820765,314.528656 
	C28.213253,314.528656 30.880947,314.528656 34.184921,314.528656 
	C32.545765,309.964386 31.133738,306.032532 29.721708,302.100708 
	C29.317667,302.200043 28.913628,302.299377 28.509586,302.398712 
	C28.284746,303.647675 28.059906,304.896606 27.553305,306.885925 
z"/>
<path fill="#AEABA9" opacity="1.000000" stroke="none" 
	d="
M154.311417,291.392883 
	C154.966507,289.811096 155.625854,288.625580 155.968567,287.354675 
	C156.969025,283.644745 159.023270,281.887207 163.138092,282.028290 
	C167.013123,282.161163 169.995438,282.234131 171.657333,286.829620 
	C176.898911,301.323730 182.629395,315.640930 188.146088,330.036011 
	C188.544937,331.076752 188.746170,332.193207 189.268906,334.121552 
	C185.045746,334.121552 181.267105,334.451752 177.604340,333.944763 
	C176.299637,333.764160 174.633179,331.718048 174.252182,330.235596 
	C173.338913,326.681976 171.188904,325.879547 167.976761,326.109833 
	C165.825287,326.264099 163.641861,326.284698 161.493790,326.108398 
	C157.137466,325.750946 153.572098,326.212952 152.790710,331.661957 
	C152.652115,332.628296 150.770523,333.948517 149.601639,334.050659 
	C146.015656,334.364014 142.384888,334.164703 137.933487,334.164703 
	C143.544586,319.507751 148.857803,305.628937 154.311417,291.392883 
M161.081100,314.948425 
	C163.280685,314.948425 165.480255,314.948425 168.713257,314.948425 
	C166.959503,310.181061 165.595886,306.474213 164.232269,302.767365 
	C163.557663,302.863037 162.883057,302.958679 162.208466,303.054321 
	C161.570099,306.969757 160.931732,310.885162 161.081100,314.948425 
z"/>
<path fill="#AEABA9" opacity="1.000000" stroke="none" 
	d="
M249.670074,308.430817 
	C245.775406,315.410583 239.699005,316.427216 232.815460,316.158691 
	C225.920227,315.889709 226.046783,316.110840 226.006714,322.780121 
	C225.930054,335.531219 228.177475,334.165802 214.179703,334.137817 
	C213.696655,334.136871 213.213989,333.955444 212.315659,333.774445 
	C212.174042,332.606934 211.889709,331.347656 211.888641,330.088074 
	C211.876282,315.613373 212.012161,301.137451 211.849655,286.664764 
	C211.810669,283.192352 212.771271,281.907745 216.321045,282.071106 
	C221.633896,282.315613 226.966324,282.129700 232.290436,282.135315 
	C247.529449,282.151428 255.401169,293.784851 249.670074,308.430817 
M226.922470,304.590363 
	C228.234497,304.690308 229.545654,304.803925 230.858719,304.887665 
	C234.800842,305.139069 237.335541,303.846375 237.154053,299.342224 
	C236.957458,294.462982 233.570999,294.172394 229.870865,293.886230 
	C225.088669,293.516357 226.066269,296.825195 226.042114,299.501770 
	C226.028763,300.981537 226.221283,302.463165 226.922470,304.590363 
z"/>
<path fill="#FEFEFE" opacity="1.000000" stroke="none" 
	d="
M271.464447,251.018127 
	C258.854401,251.088181 246.656418,251.680145 234.533463,250.977493 
	C216.919907,249.956573 199.689133,246.424011 183.150970,240.066299 
	C177.427429,237.866013 171.660233,235.652603 166.246689,232.809753 
	C161.259995,230.191071 156.713547,230.446869 152.026215,232.975266 
	C137.227478,240.957947 121.132576,245.265839 104.856087,248.501724 
	C95.159645,250.429443 85.057564,250.757370 75.122826,250.927460 
	C64.183556,251.114746 53.182281,250.783112 42.290665,249.780106 
	C31.373936,248.774780 18.996405,234.692123 18.951344,223.691711 
	C18.805948,188.198364 18.731653,152.702621 19.030230,117.211166 
	C19.097769,109.182762 23.429892,102.295197 29.925959,97.819977 
	C48.423504,85.076790 67.303490,72.889786 85.988884,60.417873 
	C99.397926,51.467758 112.718536,42.385254 126.112480,33.412395 
	C134.128067,28.042608 142.121216,22.630737 150.287766,17.497620 
	C157.009323,13.272779 163.795532,14.593592 169.986511,18.707310 
	C198.526382,37.671196 226.976959,56.769535 255.449081,75.835274 
	C266.638794,83.328217 277.980072,90.612869 288.913300,98.464447 
	C296.225433,103.715569 299.718384,111.675056 299.792603,120.466988 
	C300.066895,152.959198 299.950012,185.454987 299.921417,217.949356 
	C299.907013,234.335785 290.721497,246.003601 274.780365,250.112564 
	C273.814789,250.361435 272.866425,250.676910 271.464447,251.018127 
M230.203690,125.410278 
	C235.095383,138.276260 235.300110,150.986465 228.194260,163.116104 
	C216.969040,182.277435 202.351349,198.501114 184.791885,212.086578 
	C180.935303,215.070358 181.023224,217.369156 185.529572,218.598572 
	C198.937698,222.256561 212.296005,226.607544 225.977829,228.602020 
	C238.557663,230.435837 251.530426,229.687119 264.332947,229.846848 
	C275.883484,229.990967 279.122772,226.499741 279.160675,214.989517 
	C279.261017,184.503204 279.534821,154.017136 279.510010,123.531143 
	C279.506805,119.590866 278.077515,115.927139 274.257202,113.360596 
	C237.657883,88.772789 201.127625,64.081894 164.644226,39.322323 
	C160.589539,36.570599 157.070572,36.801792 153.181473,39.441444 
	C129.219559,55.705154 105.230034,71.928360 81.213943,88.112000 
	C69.067680,96.296959 56.679466,104.137871 44.784725,112.669807 
	C42.047264,114.633354 39.287449,118.775490 39.247692,121.949013 
	C38.842682,154.275101 38.957001,186.608337 39.036644,218.939301 
	C39.050770,224.672729 43.737156,229.556808 49.397472,229.855820 
	C77.340271,231.331909 104.901031,229.827515 131.253311,219.081024 
	C137.344208,216.597153 137.809784,215.249588 132.673431,211.246429 
	C119.456047,200.945007 108.035934,188.924026 98.107246,175.502579 
	C88.757805,162.864166 81.253647,149.820908 85.744949,132.805527 
	C90.195389,115.944992 100.970421,105.721107 117.087448,101.263535 
	C130.993774,97.417389 143.792282,101.235130 154.692856,110.566582 
	C158.448242,113.781364 160.888855,113.247574 164.502487,110.240967 
	C177.142899,99.723907 191.348755,97.198074 206.940430,102.989105 
	C217.723526,106.994164 224.790634,114.784782 230.203690,125.410278 
M213.465225,140.062973 
	C210.913651,128.297684 203.118118,120.696869 192.965820,120.075584 
	C180.584961,119.317917 170.194443,128.817932 169.128448,141.870026 
	C168.551010,148.940353 165.094711,152.187515 158.319229,152.025238 
	C152.706161,151.890808 149.632248,148.276398 149.059189,141.788376 
	C148.816498,139.040878 148.147690,136.192917 147.017258,133.686127 
	C142.440643,123.537415 134.005554,119.020020 124.252411,120.605904 
	C112.097900,122.582237 105.234634,131.192871 104.960258,142.388489 
	C104.777412,149.849457 108.842659,155.122040 112.803772,160.734451 
	C124.236214,176.932831 138.212799,190.502701 154.310364,201.976746 
	C157.054047,203.932419 159.521729,204.988876 162.891785,202.723755 
	C178.203003,192.432556 191.637451,180.203354 202.423462,165.195099 
	C207.725311,157.817795 213.809570,150.739670 213.465225,140.062973 
z"/>
<path fill="#F5F4F4" opacity="1.000000" stroke="none" 
	d="
M27.694183,306.515747 
	C28.059906,304.896606 28.284746,303.647675 28.509586,302.398712 
	C28.913628,302.299377 29.317667,302.200043 29.721708,302.100708 
	C31.133738,306.032532 32.545765,309.964386 34.184921,314.528656 
	C30.880947,314.528656 28.213253,314.528656 24.820765,314.528656 
	C25.816441,311.743805 26.684872,309.314880 27.694183,306.515747 
z"/>
<path fill="#F5F4F4" opacity="1.000000" stroke="none" 
	d="
M160.687225,314.874512 
	C160.931732,310.885162 161.570099,306.969757 162.208466,303.054321 
	C162.883057,302.958679 163.557663,302.863037 164.232269,302.767365 
	C165.595886,306.474213 166.959503,310.181061 168.713257,314.948425 
	C165.480255,314.948425 163.280685,314.948425 160.687225,314.874512 
z"/>
<path fill="#F5F4F4" opacity="1.000000" stroke="none" 
	d="
M226.621735,304.267151 
	C226.221283,302.463165 226.028763,300.981537 226.042114,299.501770 
	C226.066269,296.825195 225.088669,293.516357 229.870865,293.886230 
	C233.570999,294.172394 236.957458,294.462982 237.154053,299.342224 
	C237.335541,303.846375 234.800842,305.139069 230.858719,304.887665 
	C229.545654,304.803925 228.234497,304.690308 226.621735,304.267151 
z"/>
<path fill="#ADAAA8" opacity="1.000000" stroke="none" 
	d="
M230.040314,125.070679 
	C224.790634,114.784782 217.723526,106.994164 206.940430,102.989105 
	C191.348755,97.198074 177.142899,99.723907 164.502487,110.240967 
	C160.888855,113.247574 158.448242,113.781364 154.692856,110.566582 
	C143.792282,101.235130 130.993774,97.417389 117.087448,101.263535 
	C100.970421,105.721107 90.195389,115.944992 85.744949,132.805527 
	C81.253647,149.820908 88.757805,162.864166 98.107246,175.502579 
	C108.035934,188.924026 119.456047,200.945007 132.673431,211.246429 
	C137.809784,215.249588 137.344208,216.597153 131.253311,219.081024 
	C104.901031,229.827515 77.340271,231.331909 49.397472,229.855820 
	C43.737156,229.556808 39.050770,224.672729 39.036644,218.939301 
	C38.957001,186.608337 38.842682,154.275101 39.247692,121.949013 
	C39.287449,118.775490 42.047264,114.633354 44.784725,112.669807 
	C56.679466,104.137871 69.067680,96.296959 81.213943,88.112000 
	C105.230034,71.928360 129.219559,55.705154 153.181473,39.441444 
	C157.070572,36.801792 160.589539,36.570599 164.644226,39.322323 
	C201.127625,64.081894 237.657883,88.772789 274.257202,113.360596 
	C278.077515,115.927139 279.506805,119.590866 279.510010,123.531143 
	C279.534821,154.017136 279.261017,184.503204 279.160675,214.989517 
	C279.122772,226.499741 275.883484,229.990967 264.332947,229.846848 
	C251.530426,229.687119 238.557663,230.435837 225.977829,228.602020 
	C212.296005,226.607544 198.937698,222.256561 185.529572,218.598572 
	C181.023224,217.369156 180.935303,215.070358 184.791885,212.086578 
	C202.351349,198.501114 216.969040,182.277435 228.194260,163.116104 
	C235.300110,150.986465 235.095383,138.276260 230.040314,125.070679 
z"/>
<path fill="#AEAAA8" opacity="1.000000" stroke="none" 
	d="
M213.591064,140.448547 
	C213.809570,150.739670 207.725311,157.817795 202.423462,165.195099 
	C191.637451,180.203354 178.203003,192.432556 162.891785,202.723755 
	C159.521729,204.988876 157.054047,203.932419 154.310364,201.976746 
	C138.212799,190.502701 124.236214,176.932831 112.803772,160.734451 
	C108.842659,155.122040 104.777412,149.849457 104.960258,142.388489 
	C105.234634,131.192871 112.097900,122.582237 124.252411,120.605904 
	C134.005554,119.020020 142.440643,123.537415 147.017258,133.686127 
	C148.147690,136.192917 148.816498,139.040878 149.059189,141.788376 
	C149.632248,148.276398 152.706161,151.890808 158.319229,152.025238 
	C165.094711,152.187515 168.551010,148.940353 169.128448,141.870026 
	C170.194443,128.817932 180.584961,119.317917 192.965820,120.075584 
	C203.118118,120.696869 210.913651,128.297684 213.591064,140.448547 
z"/>
</svg>