<?xml version="1.0" standalone="no"?>
<!DOCTYPE svg PUBLIC "-//W3C//DTD SVG 20010904//EN"
 "http://www.w3.org/TR/2001/REC-SVG-20010904/DTD/svg10.dtd">
<svg version="1.0" xmlns="http://www.w3.org/2000/svg"
 width="348.000000pt" height="384.000000pt" viewBox="0 0 348.000000 384.000000"
 preserveAspectRatio="xMidYMid meet">

<g transform="translate(0.000000,384.000000) scale(0.100000,-0.100000)"
fill="#000000" stroke="none">
<path d="M1560 3782 c-49 -29 -372 -242 -540 -356 -58 -39 -256 -171 -440
-294 -363 -241 -440 -305 -485 -400 -55 -114 -55 -110 -55 -753 0 -387 4 -616
11 -655 16 -90 80 -204 151 -269 64 -60 91 -76 177 -108 50 -18 84 -21 305
-25 195 -3 273 0 365 13 266 37 451 89 638 177 l62 29 58 -29 c145 -73 385
-142 599 -172 183 -26 580 -29 665 -4 190 54 329 193 371 369 17 72 24 1198 7
1280 -19 98 -80 215 -142 271 -44 40 -1253 858 -1375 931 -33 19 -52 21 -182
22 -141 1 -146 0 -190 -27z m270 -117 c14 -7 135 -87 270 -177 135 -90 346
-231 470 -314 124 -83 306 -204 405 -269 251 -165 261 -174 303 -288 22 -57
22 -68 22 -655 0 -654 0 -651 -60 -733 -37 -52 -80 -89 -135 -116 -81 -40
-119 -44 -360 -39 -235 4 -351 14 -440 36 -201 49 -317 88 -445 147 -107 50
-118 50 -215 4 -96 -46 -183 -78 -295 -109 -236 -65 -283 -72 -590 -79 -307
-7 -374 9 -468 111 -93 103 -87 45 -90 770 l-2 638 23 52 c13 28 36 66 51 83
23 27 325 241 376 265 13 7 248 164 316 212 189 133 720 475 741 478 39 5 93
-2 123 -17z"/>
<path d="M1690 3419 c-19 -12 -37 -25 -40 -28 -3 -4 -160 -111 -350 -237 -718
-478 -828 -554 -854 -584 l-26 -32 0 -575 0 -575 38 -38 c36 -36 41 -38 122
-45 117 -10 456 11 560 34 105 23 217 55 292 84 79 30 77 48 -9 118 -177 143
-372 371 -453 529 -40 78 -58 208 -40 288 35 154 129 274 266 339 69 33 89 38
171 41 134 6 218 -21 320 -104 23 -19 50 -34 61 -34 11 0 39 16 63 36 88 73
178 104 307 104 67 0 97 -5 150 -27 90 -35 165 -94 214 -166 71 -105 80 -135
81 -271 0 -109 -3 -126 -26 -176 -37 -79 -112 -191 -203 -300 -97 -116 -131
-151 -212 -218 -112 -92 -128 -110 -117 -128 19 -30 186 -82 383 -119 118 -22
160 -25 372 -25 l238 0 30 25 c17 14 32 39 36 57 3 18 8 275 11 571 4 470 2
543 -11 577 -13 31 -34 51 -112 103 -53 35 -188 125 -299 201 -112 75 -292
196 -400 269 -109 73 -262 177 -341 230 -79 53 -153 97 -165 97 -12 0 -38 -10
-57 -21z"/>
<path d="M1320 2506 c-61 -16 -86 -35 -127 -97 -47 -68 -57 -161 -26 -230 30
-66 160 -231 273 -346 106 -108 275 -243 303 -243 32 0 196 122 298 223 164
161 288 339 304 435 9 54 -16 137 -56 185 -59 72 -166 103 -260 77 -80 -22
-169 -135 -169 -214 0 -44 -25 -103 -49 -116 -11 -5 -41 -10 -66 -10 -64 0
-105 39 -105 100 0 54 -42 143 -91 189 -26 26 -53 41 -89 49 -62 14 -82 14
-140 -2z"/>
<path d="M243 713 c-3 -10 -26 -70 -50 -133 -25 -63 -60 -158 -79 -210 -19
-52 -44 -114 -54 -138 -35 -75 -31 -82 50 -82 l71 0 19 45 19 45 99 0 98 0 15
-42 16 -43 68 -3 c37 -2 72 1 76 5 7 7 -158 450 -199 533 -16 34 -19 35 -80
38 -52 2 -63 0 -69 -15z m81 -215 c2 -7 11 -35 20 -63 9 -27 16 -53 16 -57 0
-5 -21 -8 -46 -8 -43 0 -46 1 -40 23 4 12 12 43 19 70 11 46 24 60 31 35z"/>
<path d="M970 712 c-85 -41 -152 -114 -171 -186 -55 -203 81 -386 287 -386 56
0 183 33 185 48 1 4 3 53 4 109 3 78 0 105 -10 110 -7 5 -41 6 -74 5 l-60 -4
-3 -56 c-3 -51 -6 -58 -29 -66 -21 -7 -37 -4 -75 15 -116 58 -117 207 -1 269
49 26 53 26 147 -14 11 -4 26 11 52 52 35 54 36 58 20 73 -51 48 -201 65 -272
31z"/>
<path d="M1733 718 c-5 -7 -25 -56 -45 -108 -20 -52 -66 -172 -102 -265 -36
-94 -66 -176 -66 -183 0 -9 19 -12 71 -10 75 3 79 5 99 61 10 27 10 27 108 27
l99 0 17 -45 18 -45 74 0 c41 0 74 3 74 7 0 13 -63 178 -71 188 -5 5 -9 18 -9
30 0 12 -4 25 -9 31 -5 5 -20 41 -34 79 -62 169 -87 229 -99 237 -21 12 -114
9 -125 -4z m83 -245 c3 -16 10 -37 14 -48 5 -11 11 -29 12 -40 3 -18 -2 -20
-42 -16 -25 1 -47 5 -49 6 -2 2 5 25 14 52 9 26 19 54 21 61 6 22 23 13 30
-15z"/>
<path d="M2337 723 c-4 -3 -7 -134 -7 -290 l0 -283 69 0 c89 0 94 6 90 112
l-4 83 85 5 c96 6 133 23 167 74 69 105 13 266 -102 295 -47 12 -287 15 -298
4z m260 -149 c20 -27 16 -72 -6 -84 -11 -5 -38 -10 -60 -10 l-41 0 0 61 0 62
47 -6 c29 -3 52 -12 60 -23z"/>
<path d="M3043 723 c-10 -3 -13 -71 -13 -289 l0 -284 213 2 212 3 3 63 3 62
-129 0 c-144 0 -156 5 -150 62 l3 33 105 5 105 5 3 52 3 52 -108 3 -108 3 0
45 0 45 133 3 c72 1 133 6 133 10 1 4 2 29 3 55 2 75 -5 77 -219 76 -99 0
-186 -3 -192 -6z"/>
</g>
</svg>
