<svg version="1.1" id="Layer_1" xmlns="http://www.w3.org/2000/svg" xmlns:xlink="http://www.w3.org/1999/xlink" x="0px" y="0px"
	 width="100%" viewBox="0 0 189 187" enable-background="new 0 0 189 187" xml:space="preserve">
<path fill="#FEFEFE" opacity="1.000000" stroke="none" 
	d="
M1.000000,63.000000 
	C1.000000,42.000004 1.000000,21.500010 1.000000,1.000011 
	C63.999981,1.000007 126.999962,1.000007 189.999954,1.000004 
	C189.999969,63.333298 189.999969,125.666595 189.999985,187.999908 
	C127.000053,187.999939 64.000099,187.999939 1.000075,187.999969 
	C1.000000,146.500000 1.000000,105.000000 1.000000,63.000000 
M27.309647,39.105164 
	C26.871479,40.068474 26.433311,41.031788 25.298077,42.068199 
	C24.382189,42.738777 23.222069,43.232033 22.587105,44.106575 
	C13.305466,56.890289 8.051037,71.066193 7.999874,87.897217 
	C8.000699,90.598099 8.001525,93.298973 8.000325,96.902412 
	C8.032572,107.816475 10.616714,118.257828 15.700150,127.743767 
	C18.871494,133.661636 23.837528,138.617767 28.213816,144.441895 
	C28.412449,144.714157 28.672508,144.900879 29.016706,145.767181 
	C30.339647,146.516342 31.662588,147.265488 32.998386,148.749222 
	C34.226616,150.623886 35.132702,152.860916 36.749622,154.298370 
	C40.198902,157.364838 43.817959,160.333679 47.719673,162.780960 
	C61.090111,171.167328 75.479118,175.354294 91.555817,175.340408 
	C100.422180,175.332764 108.823906,174.224976 117.177246,172.006638 
	C126.378059,169.563293 134.445435,164.901932 142.104919,159.114273 
	C153.945190,150.167511 163.344940,139.385590 170.059845,126.217926 
	C177.436050,111.753471 177.660400,96.136040 176.848495,80.497467 
	C176.569244,75.118729 175.464249,69.536736 173.496384,64.535553 
	C166.065460,45.650394 153.342590,30.898233 136.475357,19.747816 
	C121.216171,9.660429 104.029915,6.084689 86.212280,7.717766 
	C76.259888,8.629953 66.183929,11.565311 56.889484,15.364632 
	C47.011169,19.402624 37.733974,25.219830 31.276573,35.009438 
	C30.183468,36.338757 29.090361,37.668076 27.309647,39.105164 
z"/>
<path fill="#F3F3F3" opacity="1.000000" stroke="none" 
	d="
M31.994389,34.994347 
	C37.733974,25.219830 47.011169,19.402624 56.889484,15.364632 
	C66.183929,11.565311 76.259888,8.629953 86.212280,7.717766 
	C104.029915,6.084689 121.216171,9.660429 136.475357,19.747816 
	C153.342590,30.898233 166.065460,45.650394 173.496384,64.535553 
	C175.464249,69.536736 176.569244,75.118729 176.848495,80.497467 
	C177.660400,96.136040 177.436050,111.753471 170.059845,126.217926 
	C163.344940,139.385590 153.945190,150.167511 142.104919,159.114273 
	C134.445435,164.901932 126.378059,169.563293 117.177246,172.006638 
	C108.823906,174.224976 100.422180,175.332764 91.555817,175.340408 
	C75.479118,175.354294 61.090111,171.167328 47.719673,162.780960 
	C43.817959,160.333679 40.198902,157.364838 36.749622,154.298370 
	C35.132702,152.860916 34.226616,150.623886 32.999805,148.373993 
	C33.001225,147.998764 33.015125,147.984940 33.361031,148.022690 
	C34.528275,148.595901 35.425468,149.043793 36.159679,149.679840 
	C48.753471,160.589691 62.543304,169.156586 79.402779,171.624435 
	C91.648361,173.416901 103.595352,172.800705 115.573441,168.912155 
	C127.173492,165.146332 137.523743,159.544693 146.129181,151.116287 
	C152.502243,144.874344 159.223602,138.484344 163.721619,130.929016 
	C175.715027,110.783791 177.226120,88.681595 170.463547,66.652557 
	C164.851166,48.370243 152.671036,33.896091 136.659668,23.727272 
	C123.157082,15.151768 108.186226,10.417084 91.455490,10.729614 
	C73.023376,11.073929 57.098232,16.645535 42.713531,27.716825 
	C39.298702,30.345076 35.598396,32.602413 32.020775,35.021454 
	C32.012146,35.012547 31.994389,34.994347 31.994389,34.994347 
z"/>
<path fill="#F3F3F3" opacity="1.000000" stroke="none" 
	d="
M27.998173,144.005493 
	C23.837528,138.617767 18.871494,133.661636 15.700150,127.743767 
	C10.616714,118.257828 8.032572,107.816475 8.374519,96.451126 
	C9.495354,96.000099 10.241995,96.000351 10.992046,96.417282 
	C10.996238,98.223000 10.997019,99.612053 10.733179,101.222473 
	C10.976143,102.629211 11.483727,103.814583 11.993767,105.375168 
	C11.996284,106.500809 11.996348,107.251244 11.768907,108.172699 
	C12.023217,108.895897 12.505034,109.448067 12.991091,110.333511 
	C12.996847,111.111191 12.998365,111.555595 12.745204,112.199020 
	C12.990943,113.265381 13.491361,114.132721 14.000702,115.364594 
	C14.672170,117.486519 15.334714,119.243912 15.749193,121.203674 
	C16.999060,123.937370 18.496990,126.468689 20.145264,129.303864 
	C22.863707,133.405548 25.431807,137.203384 27.999851,141.376678 
	C27.999254,142.503265 27.998713,143.254379 27.998173,144.005493 
z"/>
<path fill="#F3F3F3" opacity="1.000000" stroke="none" 
	d="
M8.002351,87.000145 
	C8.051037,71.066193 13.305466,56.890289 22.587105,44.106575 
	C23.222069,43.232033 24.382189,42.738777 25.655773,42.040878 
	C26.013468,42.013554 26.031443,42.031654 26.001776,42.347046 
	C25.651579,43.440804 25.331049,44.219166 24.718910,45.138954 
	C23.955175,46.194530 23.483049,47.108685 22.875914,48.329201 
	C21.827219,50.423710 20.913532,52.211857 19.657051,54.051422 
	C18.212189,56.736519 17.110119,59.370186 15.969747,62.360619 
	C15.287030,64.478256 14.642616,66.239128 13.673859,68.044479 
	C13.232970,69.059303 13.116427,70.029648 12.999811,71.333313 
	C12.995439,72.111000 12.991139,72.555382 12.695179,73.031097 
	C12.271361,73.709396 12.139205,74.356377 12.007303,75.377945 
	C12.002551,76.501701 11.997544,77.250870 11.652029,78.056381 
	C11.206949,79.408127 11.102377,80.703514 10.998225,82.415634 
	C10.995309,84.221367 10.991972,85.610374 10.615292,86.999573 
	C9.495415,86.999886 8.748883,87.000015 8.002351,87.000145 
z"/>
<path fill="#F2F2F2" opacity="1.000000" stroke="none" 
	d="
M8.001112,87.448685 
	C8.748883,87.000015 9.495415,86.999886 10.619812,87.449615 
	C10.994662,90.599854 10.991649,93.300232 10.988636,96.000610 
	C10.241995,96.000351 9.495354,96.000099 8.375532,95.999847 
	C8.001525,93.298973 8.000699,90.598099 8.001112,87.448685 
z"/>
<path fill="#F3F3F3" opacity="1.000000" stroke="none" 
	d="
M32.993378,148.006699 
	C31.662588,147.265488 30.339647,146.516342 29.340828,145.383789 
	C30.112095,144.999619 30.559238,144.998825 31.293909,145.139801 
	C32.059330,146.182678 32.537228,147.083817 33.015125,147.984940 
	C33.015125,147.984940 33.001225,147.998764 32.993378,148.006699 
z"/>
<path fill="#F3F3F3" opacity="1.000000" stroke="none" 
	d="
M27.997253,38.997395 
	C29.090361,37.668076 30.183468,36.338757 31.635481,35.001892 
	C31.994389,34.994347 32.012146,35.012547 31.986622,35.349968 
	C31.312658,36.793991 30.664219,37.900589 29.680058,39.004646 
	C28.896891,39.002060 28.449444,39.002022 28.000996,39.000992 
	C27.999992,39.000000 27.997253,38.997395 27.997253,38.997395 
z"/>
<path fill="#F2F2F2" opacity="1.000000" stroke="none" 
	d="
M31.006382,144.998032 
	C30.559238,144.998825 30.112095,144.999619 29.329472,145.001221 
	C28.672508,144.900879 28.412449,144.714157 28.105991,144.223694 
	C27.998713,143.254379 27.999254,142.503265 28.296795,141.519318 
	C29.397989,142.523666 30.202185,143.760849 31.006382,144.998032 
z"/>
<path fill="#F3F3F3" opacity="1.000000" stroke="none" 
	d="
M26.004307,42.004326 
	C26.433311,41.031788 26.871479,40.068474 27.653450,39.051277 
	C27.997253,38.997395 27.999992,39.000000 28.000607,39.337532 
	C28.004448,40.124123 28.007673,40.573177 27.844370,41.265152 
	C27.129042,41.682594 26.580242,41.857124 26.031443,42.031654 
	C26.031443,42.031654 26.013468,42.013554 26.004307,42.004326 
z"/>
<path fill="#E3E3E3" opacity="1.000000" stroke="none" 
	d="
M26.001776,42.347046 
	C26.580242,41.857124 27.129042,41.682594 28.163765,41.217728 
	C29.105053,40.287323 29.560417,39.647255 30.015781,39.007191 
	C30.664219,37.900589 31.312658,36.793991 31.995253,35.358879 
	C35.598396,32.602413 39.298702,30.345076 42.713531,27.716825 
	C57.098232,16.645535 73.023376,11.073929 91.455490,10.729614 
	C108.186226,10.417084 123.157082,15.151768 136.659668,23.727272 
	C152.671036,33.896091 164.851166,48.370243 170.463547,66.652557 
	C177.226120,88.681595 175.715027,110.783791 163.721619,130.929016 
	C159.223602,138.484344 152.502243,144.874344 146.129181,151.116287 
	C137.523743,159.544693 127.173492,165.146332 115.573441,168.912155 
	C103.595352,172.800705 91.648361,173.416901 79.402779,171.624435 
	C62.543304,169.156586 48.753471,160.589691 36.159679,149.679840 
	C35.425468,149.043793 34.528275,148.595901 33.361031,148.022690 
	C32.537228,147.083817 32.059330,146.182678 31.293909,145.139801 
	C30.202185,143.760849 29.397989,142.523666 28.296848,141.143860 
	C25.431807,137.203384 22.863707,133.405548 20.112473,128.948471 
	C18.618643,125.859924 17.307951,123.430618 15.997259,121.001312 
	C15.334714,119.243912 14.672170,117.486519 14.002165,115.026443 
	C13.663096,113.549179 13.331489,112.774590 12.999882,112.000000 
	C12.998365,111.555595 12.996847,111.111191 12.974741,110.035576 
	C12.634906,108.936806 12.315660,108.469238 11.996412,108.001678 
	C11.996348,107.251244 11.996284,106.500809 11.997414,105.009186 
	C11.665004,103.179024 11.331401,102.090065 10.997799,101.001099 
	C10.997019,99.612053 10.996238,98.223000 10.992046,96.417282 
	C10.991649,93.300232 10.994662,90.599854 10.993156,87.449432 
	C10.991972,85.610374 10.995309,84.221367 11.271332,82.184807 
	C11.693524,80.358185 11.843032,79.179115 11.992538,78.000038 
	C11.997544,77.250870 12.002551,76.501701 12.250977,75.209381 
	C12.658543,74.110741 12.822691,73.555252 12.986839,72.999763 
	C12.991139,72.555382 12.995439,72.111000 13.262657,71.128090 
	C13.683118,69.726372 13.840661,68.863190 13.998203,68.000000 
	C14.642616,66.239128 15.287030,64.478256 16.243002,62.159813 
	C17.702990,59.068161 18.851419,56.534081 19.999847,54.000000 
	C20.913532,52.211857 21.827219,50.423710 23.219212,48.269157 
	C24.135183,46.934345 24.572851,45.965939 25.010517,44.997532 
	C25.331049,44.219166 25.651579,43.440804 26.001776,42.347046 
M155.580917,134.010452 
	C156.390121,133.292450 157.199341,132.574448 158.332733,131.264603 
	C164.394440,122.095917 167.888016,112.151451 169.314423,101.136040 
	C171.410202,84.951454 168.965347,69.692642 160.982605,55.714039 
	C150.788818,37.863613 135.878387,24.991449 116.115448,18.642796 
	C98.714233,13.052822 81.560631,13.514428 64.204765,20.514545 
	C49.476719,26.454786 37.909683,35.926311 28.714277,48.209068 
	C21.400400,57.978577 17.127790,69.270096 15.678778,81.783234 
	C13.771662,98.252373 16.103819,113.689941 24.446583,127.907425 
	C33.830917,143.899933 47.001160,155.494583 64.526573,162.609085 
	C79.475029,168.677460 94.412666,169.491989 109.755440,166.146851 
	C127.380249,162.304169 141.379959,152.254547 153.277039,139.078461 
	C154.335785,137.905899 154.388657,135.825119 155.580917,134.010452 
z"/>
<path fill="#F2F2F2" opacity="1.000000" stroke="none" 
	d="
M15.749194,121.203674 
	C17.307951,123.430618 18.618643,125.859924 19.962128,128.644623 
	C18.496990,126.468689 16.999060,123.937370 15.749194,121.203674 
z"/>
<path fill="#F2F2F2" opacity="1.000000" stroke="none" 
	d="
M10.733179,101.222473 
	C11.331401,102.090065 11.665004,103.179024 11.994959,104.633972 
	C11.483727,103.814583 10.976143,102.629211 10.733179,101.222473 
z"/>
<path fill="#F2F2F2" opacity="1.000000" stroke="none" 
	d="
M12.745203,112.199020 
	C13.331489,112.774590 13.663096,113.549179 13.993240,114.661911 
	C13.491361,114.132721 12.990943,113.265381 12.745203,112.199020 
z"/>
<path fill="#F2F2F2" opacity="1.000000" stroke="none" 
	d="
M11.768907,108.172699 
	C12.315660,108.469238 12.634906,108.936806 12.970502,109.702301 
	C12.505034,109.448067 12.023217,108.895897 11.768907,108.172699 
z"/>
<path fill="#F2F2F2" opacity="1.000000" stroke="none" 
	d="
M19.657053,54.051422 
	C18.851419,56.534081 17.702990,59.068161 16.281303,61.803047 
	C17.110119,59.370186 18.212189,56.736519 19.657053,54.051422 
z"/>
<path fill="#F2F2F2" opacity="1.000000" stroke="none" 
	d="
M11.652030,78.056381 
	C11.843032,79.179115 11.693524,80.358185 11.270912,81.768082 
	C11.102377,80.703514 11.206949,79.408127 11.652030,78.056381 
z"/>
<path fill="#F2F2F2" opacity="1.000000" stroke="none" 
	d="
M13.673859,68.044479 
	C13.840661,68.863190 13.683118,69.726372 13.262730,70.794785 
	C13.116427,70.029648 13.232970,69.059303 13.673859,68.044479 
z"/>
<path fill="#F2F2F2" opacity="1.000000" stroke="none" 
	d="
M24.718910,45.138954 
	C24.572851,45.965939 24.135183,46.934345 23.354221,47.962795 
	C23.483049,47.108685 23.955175,46.194530 24.718910,45.138954 
z"/>
<path fill="#F2F2F2" opacity="1.000000" stroke="none" 
	d="
M12.695179,73.031097 
	C12.822691,73.555252 12.658543,74.110741 12.250721,74.834793 
	C12.139205,74.356377 12.271361,73.709396 12.695179,73.031097 
z"/>
<path fill="#F2F2F2" opacity="1.000000" stroke="none" 
	d="
M29.680059,39.004646 
	C29.560417,39.647255 29.105053,40.287323 28.330294,40.974812 
	C28.007673,40.573177 28.004448,40.124123 28.001610,39.338524 
	C28.449444,39.002022 28.896891,39.002060 29.680059,39.004646 
z"/>
<path fill="#CFCFCF" opacity="1.000000" stroke="none" 
	d="
M154.908691,134.166153 
	C154.388657,135.825119 154.335785,137.905899 153.277039,139.078461 
	C141.379959,152.254547 127.380249,162.304169 109.755440,166.146851 
	C94.412666,169.491989 79.475029,168.677460 64.526573,162.609085 
	C47.001160,155.494583 33.830917,143.899933 24.446583,127.907425 
	C16.103819,113.689941 13.771662,98.252373 15.678778,81.783234 
	C17.127790,69.270096 21.400400,57.978577 28.714277,48.209068 
	C37.909683,35.926311 49.476719,26.454786 64.204765,20.514545 
	C81.560631,13.514428 98.714233,13.052822 116.115448,18.642796 
	C135.878387,24.991449 150.788818,37.863613 160.982605,55.714039 
	C168.965347,69.692642 171.410202,84.951454 169.314423,101.136040 
	C167.888016,112.151451 164.394440,122.095917 157.780624,131.569580 
	C152.340469,129.099503 154.700745,124.599960 154.180054,120.841629 
	C156.055771,120.102051 157.542847,119.515709 158.887360,118.985580 
	C156.521011,116.655357 154.530609,114.695343 153.459366,113.640457 
	C151.288483,115.130188 149.137909,116.605995 146.823853,117.736374 
	C144.339890,117.155495 141.610962,116.031303 139.784470,116.870728 
	C136.050568,118.586761 133.034714,118.597565 129.305862,116.791740 
	C125.439880,114.919510 119.683861,117.973267 118.241020,121.887695 
	C116.527573,126.536278 118.118073,132.262787 122.693062,133.038086 
	C129.823837,134.246552 137.256531,134.077515 144.526352,133.740036 
	C146.086655,133.667618 148.392654,130.513962 148.670395,128.542389 
	C148.862457,127.178886 146.301941,125.242340 144.706512,123.869804 
	C143.383499,122.731636 141.673492,122.043327 140.134933,121.155724 
	C140.292786,120.830017 140.450638,120.504318 140.608490,120.178619 
	C142.742371,120.064857 144.876266,119.951088 147.425262,119.875092 
	C148.590500,121.592232 149.328873,123.276978 150.093277,124.949829 
	C151.535690,128.106491 148.821228,133.437469 154.908691,134.166153 
M137.554947,106.436150 
	C140.858490,109.311966 144.588989,108.786095 147.492340,106.461411 
	C150.753220,103.850433 152.116226,99.917633 150.238495,95.730156 
	C148.631485,92.146446 145.848755,89.823944 141.685471,90.131996 
	C138.440781,90.372070 135.224930,91.002075 132.077393,91.447311 
	C132.077393,98.415421 132.207581,105.347466 132.025604,112.271309 
	C131.926056,116.058243 133.526352,116.508629 136.783829,115.274368 
	C136.596161,112.158798 136.410797,109.081772 136.569321,106.007332 
	C136.569321,106.007332 136.913010,106.018524 137.554947,106.436150 
M106.578781,105.464577 
	C107.650635,106.563187 108.722488,107.661797 109.794350,108.760406 
	C110.516548,107.470795 111.673698,106.242386 111.865654,104.878159 
	C112.209686,102.433105 111.601982,99.824753 112.125069,97.445824 
	C112.416168,96.121902 114.186745,95.123283 115.290558,93.978058 
	C116.526848,95.170319 118.638718,96.237999 118.829529,97.579018 
	C119.331947,101.110046 118.999428,104.759888 118.999428,108.874832 
	C121.678047,108.874832 124.651222,109.059425 127.575424,108.762161 
	C128.450790,108.673172 129.848328,107.265091 129.882950,106.415543 
	C130.097122,101.160049 129.990585,95.891487 129.990585,90.691978 
	C125.749283,90.256798 124.801277,92.075851 125.012863,95.371758 
	C125.242897,98.954826 125.065056,102.564072 125.065056,106.161903 
	C124.490967,106.150276 123.916878,106.138641 123.342789,106.127007 
	C123.238098,104.080940 123.052063,102.035248 123.042755,99.988747 
	C123.001976,91.024826 121.273582,89.434250 112.330238,90.489395 
	C112.067291,88.121147 111.804390,85.753319 111.541481,83.385498 
	C110.963097,83.160835 110.384705,82.936172 109.806320,82.711510 
	C108.889000,84.299484 107.437973,85.799828 107.160027,87.492767 
	C106.478851,91.641647 106.338913,95.879402 105.666702,99.448410 
	C103.197784,98.033676 100.728867,96.618942 97.229652,94.613823 
	C100.531166,94.105774 102.648682,93.779915 104.878937,93.436714 
	C103.204903,89.683731 92.999298,89.107216 84.677277,91.803413 
	C84.677277,97.108665 84.677277,102.344139 84.677277,107.744148 
	C87.504662,108.403893 89.249641,108.008156 88.985825,104.521538 
	C88.810440,102.203804 88.702454,99.818848 89.069664,97.545609 
	C89.288216,96.192627 90.485687,94.997772 91.060112,94.037628 
	C93.386909,96.465431 94.834808,98.358551 96.657356,99.766792 
	C98.368027,101.088585 100.474747,101.897804 102.407196,102.932564 
	C102.194061,103.471947 101.980934,104.011337 101.767807,104.550720 
	C98.958694,104.550720 96.149582,104.550720 93.340469,104.550720 
	C93.104050,104.948608 92.867630,105.346489 92.631203,105.744377 
	C93.773079,106.654861 94.944534,108.368446 96.051376,108.327675 
	C99.599831,108.196968 103.814133,109.395592 106.578781,105.464577 
M85.485710,132.983200 
	C85.671989,132.980072 85.858269,132.976959 86.671387,133.320740 
	C89.894173,133.695999 93.116951,134.071259 96.916603,134.513687 
	C96.916603,130.960526 96.687729,128.475876 96.988365,126.057045 
	C97.232857,124.090019 98.112000,122.201881 98.709709,120.278763 
	C100.064598,121.667740 101.699219,122.879128 102.716904,124.482178 
	C104.923561,127.958046 106.814728,131.634201 108.834908,135.228455 
	C109.465584,135.110016 110.096260,134.991562 110.726936,134.873123 
	C113.178192,129.214142 115.629448,123.555183 118.160896,117.711075 
	C113.613693,115.964798 113.992180,119.474182 113.076187,121.399673 
	C111.969437,123.726151 110.893829,126.067444 109.552216,128.943726 
	C107.477570,124.716644 106.593117,119.906822 103.752823,117.979836 
	C100.955055,116.081696 96.175400,117.104767 91.644730,116.805077 
	C91.644730,122.138084 91.644730,126.283905 91.644730,130.429718 
	C91.213486,130.442261 90.782249,130.454803 90.351006,130.467331 
	C90.100288,127.164047 90.459038,123.662750 89.464394,120.601143 
	C87.715141,115.216766 80.174942,115.164192 77.296532,120.833405 
	C79.992706,120.833405 82.428391,120.833405 84.864067,120.833405 
	C84.904137,121.291725 84.944214,121.750046 84.984291,122.208374 
	C82.719246,122.967377 80.443871,123.697113 78.191551,124.492180 
	C74.715210,125.719330 74.290977,128.438339 75.362144,131.365295 
	C76.646034,134.873489 81.012489,135.490982 85.485710,132.983200 
M68.026657,44.536198 
	C55.457638,59.759636 61.289028,79.572701 80.060112,84.370697 
	C89.901337,86.886169 97.951233,82.960091 104.200912,75.264389 
	C109.438583,68.814865 110.371841,61.503193 107.829201,53.737667 
	C103.055138,39.157154 83.256927,30.559345 68.026657,44.536198 
M52.882473,86.587784 
	C51.346218,85.537285 49.809963,84.486786 48.267700,83.432182 
	C46.528748,89.753075 45.156166,94.742249 43.783588,99.731430 
	C43.320805,99.739983 42.858021,99.748535 42.395241,99.757080 
	C41.104256,95.581696 39.722153,91.431618 38.552837,87.222435 
	C37.707630,84.179939 36.206448,83.091148 32.599518,84.999573 
	C36.871838,92.737404 36.079880,102.640030 44.174034,109.899399 
	C46.165665,103.760696 47.779518,98.786407 49.697914,92.873436 
	C51.418304,97.663628 52.554619,101.484673 54.204750,105.069176 
	C54.790020,106.340530 56.530289,107.282578 57.952950,107.835182 
	C58.348415,107.988808 59.890720,106.338982 60.230961,105.296028 
	C62.184525,99.307762 64.018456,93.275757 65.659393,87.195541 
	C65.893135,86.329475 64.856400,85.120522 64.407669,84.070267 
	C63.609501,84.844955 62.387493,85.482513 62.084946,86.417572 
	C60.603065,90.997437 59.366032,95.656532 57.652050,101.653641 
	C55.768036,95.881241 54.382217,91.635262 52.882473,86.587784 
M73.009743,117.604195 
	C73.002640,110.978592 73.002640,110.978592 69.529617,110.581635 
	C69.067566,113.272736 69.392998,117.627365 67.974838,118.298698 
	C65.262245,119.582794 61.507404,119.088364 58.303970,118.581207 
	C57.602226,118.470108 57.576447,115.145683 56.905605,113.431717 
	C56.413986,112.175652 55.376507,111.133224 54.582329,109.995590 
	C53.733429,111.081558 52.206284,112.134331 52.151230,113.259155 
	C51.891594,118.564255 51.943668,123.891533 52.084702,129.205582 
	C52.133888,131.058899 50.832798,134.007126 54.520290,133.985474 
	C58.209949,133.963806 56.677811,131.020432 56.927231,129.166306 
	C57.103119,127.858795 56.796631,126.469688 57.077148,125.199059 
	C57.251614,124.408829 57.977489,123.398727 58.698341,123.124397 
	C64.881523,120.771225 68.893494,123.480904 69.039635,129.982071 
	C69.043373,130.148163 68.970734,130.367004 69.050735,130.472534 
	C69.950363,131.659180 70.872978,132.828400 71.789406,134.002304 
	C72.511940,132.799927 73.849274,131.595016 73.844322,130.395645 
	C73.828003,126.446526 73.325546,122.499420 73.009743,117.604195 
M77.452255,90.785484 
	C71.953186,89.403061 66.923111,91.230255 65.082581,95.278816 
	C62.803177,100.292747 64.226486,105.154991 68.589584,107.259315 
	C73.239716,109.502075 80.266312,107.740669 82.410027,103.794853 
	C84.691917,99.594696 82.777374,93.847382 77.452255,90.785484 
z"/>
<path fill="#FCFCFC" opacity="1.000000" stroke="none" 
	d="
M146.987335,118.081802 
	C149.137909,116.605995 151.288483,115.130188 153.459366,113.640457 
	C154.530609,114.695343 156.521011,116.655357 158.887360,118.985580 
	C157.542847,119.515709 156.055771,120.102051 154.180054,120.841629 
	C154.700745,124.599960 152.340469,129.099503 157.618530,131.865509 
	C157.199341,132.574448 156.390121,133.292450 155.244812,134.088303 
	C148.821228,133.437469 151.535690,128.106491 150.093277,124.949829 
	C149.328873,123.276978 148.590500,121.592232 147.422974,119.584030 
	C146.999512,118.864067 146.993423,118.472931 146.987335,118.081802 
z"/>
<path fill="#F9F5CF" opacity="1.000000" stroke="none" 
	d="
M68.282364,44.280602 
	C83.256927,30.559345 103.055138,39.157154 107.829201,53.737667 
	C110.371841,61.503193 109.438583,68.814865 104.200912,75.264389 
	C97.951233,82.960091 89.901337,86.886169 80.060112,84.370697 
	C61.289028,79.572701 55.457638,59.759636 68.282364,44.280602 
M101.043770,74.473557 
	C107.956299,65.742592 107.623306,54.652313 100.211220,46.745678 
	C94.133583,40.262524 80.856407,38.719166 73.925346,43.690170 
	C64.610390,50.370926 61.879822,60.952915 66.909843,70.877884 
	C73.427223,83.737617 89.695168,85.728279 101.043770,74.473557 
z"/>
<path fill="#FAFAFA" opacity="1.000000" stroke="none" 
	d="
M84.926987,132.968536 
	C81.012489,135.490982 76.646034,134.873489 75.362144,131.365295 
	C74.290977,128.438339 74.715210,125.719330 78.191551,124.492180 
	C80.443871,123.697113 82.719246,122.967377 84.984291,122.208374 
	C84.944214,121.750046 84.904137,121.291725 84.864067,120.833405 
	C82.428391,120.833405 79.992706,120.833405 77.296532,120.833405 
	C80.174942,115.164192 87.715141,115.216766 89.464394,120.601143 
	C90.459038,123.662750 90.100288,127.164047 90.351006,130.467331 
	C90.782249,130.454803 91.213486,130.442261 91.644730,130.429718 
	C91.644730,126.283905 91.644730,122.138084 91.644730,116.805077 
	C96.175400,117.104767 100.955055,116.081696 103.752823,117.979836 
	C106.593117,119.906822 107.477570,124.716644 109.552216,128.943726 
	C110.893829,126.067444 111.969437,123.726151 113.076187,121.399673 
	C113.992180,119.474182 113.613693,115.964798 118.160896,117.711075 
	C115.629448,123.555183 113.178192,129.214142 110.726936,134.873123 
	C110.096260,134.991562 109.465584,135.110016 108.834908,135.228455 
	C106.814728,131.634201 104.923561,127.958046 102.716904,124.482178 
	C101.699219,122.879128 100.064598,121.667740 98.709702,120.278763 
	C98.112000,122.201881 97.232857,124.090019 96.988365,126.057045 
	C96.687729,128.475876 96.916603,130.960526 96.916603,134.513687 
	C93.116951,134.071259 89.894173,133.695999 86.334747,132.711548 
	C85.998116,130.188004 85.998116,128.273666 85.998116,126.359322 
	C85.492630,126.002678 84.987144,125.646042 84.481659,125.289398 
	C82.685165,126.455162 80.888680,127.620918 79.092186,128.786682 
	C80.658371,129.880905 82.227814,130.970505 83.788460,132.072601 
	C84.182411,132.350784 84.548241,132.668808 84.926987,132.968536 
z"/>
<path fill="#FAFAFA" opacity="1.000000" stroke="none" 
	d="
M52.939438,86.988533 
	C54.382217,91.635262 55.768036,95.881241 57.652050,101.653641 
	C59.366032,95.656532 60.603065,90.997437 62.084946,86.417572 
	C62.387493,85.482513 63.609501,84.844955 64.407669,84.070267 
	C64.856400,85.120522 65.893135,86.329475 65.659393,87.195541 
	C64.018456,93.275757 62.184525,99.307762 60.230961,105.296028 
	C59.890720,106.338982 58.348415,107.988808 57.952950,107.835182 
	C56.530289,107.282578 54.790020,106.340530 54.204750,105.069176 
	C52.554619,101.484673 51.418304,97.663628 49.697914,92.873436 
	C47.779518,98.786407 46.165665,103.760696 44.174034,109.899399 
	C36.079880,102.640030 36.871838,92.737404 32.599518,84.999573 
	C36.206448,83.091148 37.707630,84.179939 38.552837,87.222435 
	C39.722153,91.431618 41.104256,95.581696 42.395241,99.757080 
	C42.858021,99.748535 43.320805,99.739983 43.783588,99.731430 
	C45.156166,94.742249 46.528748,89.753075 48.267700,83.432182 
	C49.809963,84.486786 51.346218,85.537285 52.939438,86.988533 
z"/>
<path fill="#FAFAFA" opacity="1.000000" stroke="none" 
	d="
M146.823853,117.736374 
	C146.993423,118.472931 146.999512,118.864067 147.007874,119.546265 
	C144.876266,119.951088 142.742371,120.064857 140.608490,120.178619 
	C140.450638,120.504318 140.292786,120.830017 140.134933,121.155724 
	C141.673492,122.043327 143.383499,122.731636 144.706512,123.869804 
	C146.301941,125.242340 148.862457,127.178886 148.670395,128.542389 
	C148.392654,130.513962 146.086655,133.667618 144.526352,133.740036 
	C137.256531,134.077515 129.823837,134.246552 122.693062,133.038086 
	C118.118073,132.262787 116.527573,126.536278 118.241020,121.887695 
	C119.683861,117.973267 125.439880,114.919510 129.305862,116.791740 
	C133.034714,118.597565 136.050568,118.586761 139.784470,116.870728 
	C141.610962,116.031303 144.339890,117.155495 146.823853,117.736374 
M136.057785,124.319870 
	C132.929733,124.562439 129.783569,124.675766 126.682465,125.110527 
	C125.423828,125.286980 124.263298,126.163239 123.058121,126.721062 
	C123.739655,127.970139 124.163231,129.501831 125.156952,130.408890 
	C127.165962,132.242706 142.248505,131.906540 144.659042,130.169220 
	C144.835831,130.041809 144.749817,129.549744 144.834763,128.792343 
	C142.249832,127.434052 139.523163,126.001282 136.057785,124.319870 
z"/>
<path fill="#F7F7F7" opacity="1.000000" stroke="none" 
	d="
M105.981194,100.081390 
	C106.338913,95.879402 106.478851,91.641647 107.160027,87.492767 
	C107.437973,85.799828 108.889000,84.299484 109.806320,82.711510 
	C110.384705,82.936172 110.963097,83.160835 111.541481,83.385498 
	C111.804390,85.753319 112.067291,88.121147 112.330238,90.489395 
	C121.273582,89.434250 123.001976,91.024826 123.042755,99.988747 
	C123.052063,102.035248 123.238098,104.080940 123.342789,106.127007 
	C123.916878,106.138641 124.490967,106.150276 125.065056,106.161903 
	C125.065056,102.564072 125.242897,98.954826 125.012863,95.371758 
	C124.801277,92.075851 125.749283,90.256798 129.990585,90.691978 
	C129.990585,95.891487 130.097122,101.160049 129.882950,106.415543 
	C129.848328,107.265091 128.450790,108.673172 127.575424,108.762161 
	C124.651222,109.059425 121.678047,108.874832 118.999428,108.874832 
	C118.999428,104.759888 119.331947,101.110046 118.829529,97.579018 
	C118.638718,96.237999 116.526848,95.170319 115.290558,93.978058 
	C114.186745,95.123283 112.416168,96.121902 112.125069,97.445824 
	C111.601982,99.824753 112.209686,102.433105 111.865654,104.878159 
	C111.673698,106.242386 110.516548,107.470795 109.794342,108.760406 
	C108.722488,107.661797 107.650635,106.563187 106.289215,104.824097 
	C105.993492,102.816216 105.987343,101.448799 105.981194,100.081390 
z"/>
<path fill="#FAFAFA" opacity="1.000000" stroke="none" 
	d="
M73.009781,118.077866 
	C73.325546,122.499420 73.828003,126.446526 73.844322,130.395645 
	C73.849274,131.595016 72.511940,132.799927 71.789406,134.002304 
	C70.872978,132.828400 69.950363,131.659180 69.050735,130.472534 
	C68.970734,130.367004 69.043373,130.148163 69.039635,129.982071 
	C68.893494,123.480904 64.881523,120.771225 58.698341,123.124397 
	C57.977489,123.398727 57.251614,124.408829 57.077148,125.199059 
	C56.796631,126.469688 57.103119,127.858795 56.927231,129.166306 
	C56.677811,131.020432 58.209949,133.963806 54.520290,133.985474 
	C50.832798,134.007126 52.133888,131.058899 52.084702,129.205582 
	C51.943668,123.891533 51.891594,118.564255 52.151230,113.259155 
	C52.206284,112.134331 53.733429,111.081558 54.582325,109.995590 
	C55.376507,111.133224 56.413986,112.175652 56.905605,113.431717 
	C57.576447,115.145683 57.602226,118.470108 58.303970,118.581207 
	C61.507404,119.088364 65.262245,119.582794 67.974838,118.298698 
	C69.392998,117.627365 69.067566,113.272736 69.524246,110.580688 
	C73.002640,110.978592 73.002640,110.978592 73.009781,118.077866 
z"/>
<path fill="#FAFAFA" opacity="1.000000" stroke="none" 
	d="
M105.823944,99.764900 
	C105.987343,101.448799 105.993492,102.816216 106.001312,104.596001 
	C103.814133,109.395592 99.599831,108.196968 96.051376,108.327675 
	C94.944534,108.368446 93.773079,106.654861 92.631203,105.744377 
	C92.867630,105.346489 93.104050,104.948608 93.340469,104.550720 
	C96.149582,104.550720 98.958694,104.550720 101.767807,104.550720 
	C101.980934,104.011337 102.194061,103.471947 102.407196,102.932564 
	C100.474747,101.897804 98.368027,101.088585 96.657356,99.766792 
	C94.834808,98.358551 93.386909,96.465431 91.060112,94.037628 
	C90.485687,94.997772 89.288216,96.192627 89.069664,97.545609 
	C88.702454,99.818848 88.810440,102.203804 88.985825,104.521538 
	C89.249641,108.008156 87.504662,108.403893 84.677277,107.744148 
	C84.677277,102.344139 84.677277,97.108665 84.677277,91.803413 
	C92.999298,89.107216 103.204903,89.683731 104.878937,93.436714 
	C102.648682,93.779915 100.531166,94.105774 97.229652,94.613823 
	C100.728867,96.618942 103.197784,98.033676 105.823944,99.764900 
z"/>
<path fill="#FAFAFA" opacity="1.000000" stroke="none" 
	d="
M136.225449,106.004745 
	C136.410797,109.081772 136.596161,112.158798 136.783829,115.274368 
	C133.526352,116.508629 131.926056,116.058243 132.025604,112.271309 
	C132.207581,105.347466 132.077393,98.415421 132.077393,91.447311 
	C135.224930,91.002075 138.440781,90.372070 141.685471,90.131996 
	C145.848755,89.823944 148.631485,92.146446 150.238495,95.730156 
	C152.116226,99.917633 150.753220,103.850433 147.492340,106.461411 
	C144.588989,108.786095 140.858490,109.311966 137.513596,105.943024 
	C138.927979,105.310066 140.386063,105.190941 141.838989,105.026321 
	C145.515808,104.609779 146.153046,102.101387 146.059311,98.992950 
	C145.964615,95.852982 144.586014,94.125099 141.313080,93.932968 
	C137.906860,93.733009 136.466003,95.719788 136.166702,98.619194 
	C135.915466,101.053093 136.185959,103.540840 136.225449,106.004745 
z"/>
<path fill="#FAFAFA" opacity="1.000000" stroke="none" 
	d="
M77.815208,90.938309 
	C82.777374,93.847382 84.691917,99.594696 82.410027,103.794853 
	C80.266312,107.740669 73.239716,109.502075 68.589584,107.259315 
	C64.226486,105.154991 62.803177,100.292747 65.082581,95.278816 
	C66.923111,91.230255 71.953186,89.403061 77.815208,90.938309 
M75.200249,93.984413 
	C73.231255,94.836426 70.163795,95.226845 69.563995,96.654213 
	C68.767052,98.550728 69.317711,101.588326 70.413025,103.487663 
	C71.060753,104.610847 74.004410,105.127609 75.692749,104.792908 
	C80.031143,103.932831 80.125710,98.287178 75.200249,93.984413 
z"/>
<path fill="#D0CFCE" opacity="1.000000" stroke="none" 
	d="
M136.397385,106.006042 
	C136.185959,103.540840 135.915466,101.053093 136.166702,98.619194 
	C136.466003,95.719788 137.906860,93.733009 141.313080,93.932968 
	C144.586014,94.125099 145.964615,95.852982 146.059311,98.992950 
	C146.153046,102.101387 145.515808,104.609779 141.838989,105.026321 
	C140.386063,105.190941 138.927979,105.310066 137.192627,105.734207 
	C136.913010,106.018524 136.569321,106.007332 136.397385,106.006042 
z"/>
<path fill="#D9D9D9" opacity="1.000000" stroke="none" 
	d="
M85.206345,132.975861 
	C84.548241,132.668808 84.182411,132.350784 83.788460,132.072601 
	C82.227814,130.970505 80.658371,129.880905 79.092186,128.786682 
	C80.888680,127.620918 82.685165,126.455162 84.481659,125.289398 
	C84.987144,125.646042 85.492630,126.002678 85.998116,126.359322 
	C85.998116,128.273666 85.998116,130.188004 86.021332,132.538086 
	C85.858269,132.976959 85.671989,132.980072 85.206345,132.975861 
z"/>
<path fill="#D0CFCE" opacity="1.000000" stroke="none" 
	d="
M100.788139,74.732880 
	C89.695168,85.728279 73.427223,83.737617 66.909843,70.877884 
	C61.879822,60.952915 64.610390,50.370926 73.925346,43.690170 
	C80.856407,38.719166 94.133583,40.262524 100.211220,46.745678 
	C107.623306,54.652313 107.956299,65.742592 100.788139,74.732880 
M80.002441,60.518726 
	C79.993408,60.712959 79.984375,60.907188 79.363495,60.795326 
	C76.527855,58.847160 73.692207,56.898994 70.837723,54.937881 
	C66.469276,62.334431 70.507500,74.851273 77.757942,77.250458 
	C78.599548,77.528946 79.881393,76.476997 80.996674,76.001823 
	C80.996674,76.001823 81.030594,75.958656 81.770599,75.961166 
	C82.509819,75.972794 83.249046,75.984421 84.502975,75.790627 
	C84.990860,75.533752 85.478752,75.276878 86.371315,75.524536 
	C87.579010,75.347351 88.786697,75.170174 90.000038,75.000000 
	C90.000038,75.000000 90.007347,75.005905 90.030045,75.745255 
	C90.383026,79.090225 92.073242,77.765770 93.713531,76.828011 
	C99.843452,73.323471 102.747337,63.610718 99.816925,54.738991 
	C96.744804,56.898247 93.849716,58.933067 90.525665,60.752262 
	C90.263390,60.548168 90.080238,60.288284 90.017151,59.141083 
	C90.302055,56.178402 90.182678,53.146149 86.610489,52.502300 
	C84.946823,52.202446 82.315514,52.761116 81.405525,53.929588 
	C80.263367,55.396175 80.437218,57.887653 80.002441,60.518726 
z"/>
<path fill="#D2D2D2" opacity="1.000000" stroke="none" 
	d="
M136.427155,124.444199 
	C139.523163,126.001282 142.249832,127.434052 144.834763,128.792343 
	C144.749817,129.549744 144.835831,130.041809 144.659042,130.169220 
	C142.248505,131.906540 127.165962,132.242706 125.156952,130.408890 
	C124.163231,129.501831 123.739655,127.970139 123.058121,126.721062 
	C124.263298,126.163239 125.423828,125.286980 126.682465,125.110527 
	C129.783569,124.675766 132.929733,124.562439 136.427155,124.444199 
z"/>
<path fill="#CFCFCF" opacity="1.000000" stroke="none" 
	d="
M75.603043,94.063004 
	C80.125710,98.287178 80.031143,103.932831 75.692749,104.792908 
	C74.004410,105.127609 71.060753,104.610847 70.413025,103.487663 
	C69.317711,101.588326 68.767052,98.550728 69.563995,96.654213 
	C70.163795,95.226845 73.231255,94.836426 75.603043,94.063004 
z"/>
<path fill="#FCFCFC" opacity="1.000000" stroke="none" 
	d="
M80.959129,76.041862 
	C79.881393,76.476997 78.599548,77.528946 77.757942,77.250458 
	C70.507500,74.851273 66.469276,62.334431 70.837723,54.937881 
	C73.692207,56.898994 76.527855,58.847160 79.718124,61.293686 
	C83.938087,65.820969 84.556816,70.744865 83.988266,75.996048 
	C83.249046,75.984421 82.509819,75.972794 81.278748,75.742188 
	C80.399971,75.550323 80.013054,75.577446 79.626129,75.604568 
	C80.070465,75.750336 80.514793,75.896103 80.959129,76.041862 
z"/>
<path fill="#FCFCFC" opacity="1.000000" stroke="none" 
	d="
M89.994392,74.992981 
	C88.786697,75.170174 87.579010,75.347351 86.173615,74.840652 
	C85.165070,68.827904 87.801971,64.800545 90.954636,60.967892 
	C93.849716,58.933067 96.744804,56.898247 99.816925,54.738991 
	C102.747337,63.610718 99.843452,73.323471 93.713531,76.828011 
	C92.073242,77.765770 90.383026,79.090225 90.173309,75.326485 
	C90.209183,74.936134 90.101784,74.964554 89.994392,74.992981 
z"/>
<path fill="#FCFCFC" opacity="1.000000" stroke="none" 
	d="
M80.043129,59.936825 
	C80.437218,57.887653 80.263367,55.396175 81.405525,53.929588 
	C82.315514,52.761116 84.946823,52.202446 86.610489,52.502300 
	C90.182678,53.146149 90.302055,56.178402 89.698898,59.716354 
	C86.127327,63.879150 83.055389,62.693172 80.043129,59.936825 
z"/>
<path fill="#D9D9D9" opacity="1.000000" stroke="none" 
	d="
M80.022781,60.227776 
	C83.055389,62.693172 86.127327,63.879150 89.678421,60.132114 
	C90.080238,60.288284 90.263390,60.548168 90.740150,60.860077 
	C87.801971,64.800545 85.165070,68.827904 85.971275,74.588379 
	C85.478752,75.276878 84.990860,75.533752 84.245621,75.893341 
	C84.556816,70.744865 83.938087,65.820969 80.024048,61.446732 
	C79.984375,60.907188 79.993408,60.712959 80.022781,60.227776 
z"/>
<path fill="#D0CFCE" opacity="1.000000" stroke="none" 
	d="
M80.977905,76.021843 
	C80.514793,75.896103 80.070465,75.750336 79.626129,75.604568 
	C80.013054,75.577446 80.399971,75.550323 80.908745,75.740929 
	C81.030594,75.958656 80.996674,76.001823 80.977905,76.021843 
z"/>
<path fill="#D0CFCE" opacity="1.000000" stroke="none" 
	d="
M89.997215,74.996490 
	C90.101784,74.964554 90.209183,74.936134 90.161957,74.956810 
	C90.007347,75.005905 90.000038,75.000000 89.997215,74.996490 
z"/>
</svg>