<?xml version="1.0" encoding="UTF-8"?>
<svg version="1.1" xmlns="http://www.w3.org/2000/svg" width="200" height="157">
<path d="M0 0 C0.75603516 -0.020625 1.51207031 -0.04125 2.29101562 -0.0625 C7.19457117 -0.09652294 10.61357957 0.44652918 14.8125 3.25 C16.31640625 5.2578125 16.31640625 5.2578125 17.375 7.375 C19.1269104 10.58728781 19.1269104 10.58728781 22.3125 12.25 C23.1375 12.25 23.9625 12.25 24.8125 12.25 C26.47916667 12.25 28.14583333 12.25 29.8125 12.25 C30.8125 13.25 30.8125 13.25 30.875 16.8125 C30.854375 17.946875 30.83375 19.08125 30.8125 20.25 C31.86050781 20.28738281 32.90851563 20.32476563 33.98828125 20.36328125 C35.36722305 20.42894515 36.74612771 20.49539235 38.125 20.5625 C38.81529297 20.58505859 39.50558594 20.60761719 40.21679688 20.63085938 C43.00451679 20.77899908 45.28308136 20.94144312 47.72265625 22.36328125 C49.36537897 25.20713457 49.56574315 27.87381737 49.9375 31.125 C50.01532715 31.7962793 50.0931543 32.46755859 50.17333984 33.15917969 C50.40192162 35.1881425 50.60963661 37.21832313 50.8125 39.25 C50.9259375 40.30960938 51.039375 41.36921875 51.15625 42.4609375 C53.83211521 71.3751477 53.83211521 71.3751477 47.8125 82.25 C45.12561782 84.93688218 43.50232598 84.60623179 39.75 84.8125 C35.98439322 85.03189921 32.28453515 85.32161231 28.55078125 85.83984375 C23.29051516 86.44459354 18.29967719 85.85973943 13.0625 85.25 C5.87643148 84.50217179 -0.84062895 84.16081522 -8.046875 84.953125 C-18.21201109 85.91400851 -31.43393134 86.95142747 -41 83.125 C-47.30200382 77.72328244 -47.30200382 77.72328244 -49.1875 74.25 C-49.04755615 73.55076416 -48.9076123 72.85152832 -48.76342773 72.13110352 C-48.03622802 68.49325534 -48.0327794 64.93163729 -48.01171875 61.23828125 C-47.98850872 59.65949205 -47.96439091 58.08071598 -47.93945312 56.50195312 C-47.90449589 54.03807913 -47.87506674 51.57468644 -47.86157227 49.1105957 C-47.72224365 27.78474365 -47.72224365 27.78474365 -41.1875 21.25 C-40.094375 21.270625 -39.00125 21.29125 -37.875 21.3125 C-33.80132927 21.24345473 -32.34970145 20.72848222 -29.1875 18.25 C-28.630625 17.425 -28.07375 16.6 -27.5 15.75 C-24.89525203 12.93405625 -23.9305487 12.80040539 -20.3125 12 C-15.85345303 10.8802984 -14.13359584 9.47596794 -11.625 5.625 C-10.79699887 4.17541162 -9.98053177 2.71901088 -9.1875 1.25 C-7.10837421 -0.82912579 -2.85404059 0.01897949 0 0 Z " fill="#CBCBCB" transform="translate(100.1875,3.75)"/>
<path d="M0 0 C1.32 0.66 2.64 1.32 4 2 C4 2.66 4 3.32 4 4 C4.78375 4.103125 5.5675 4.20625 6.375 4.3125 C9 5 9 5 11 8 C13.49992204 8.40360001 15.76167939 8.60492077 18.27734375 8.68359375 C19.02531723 8.71682236 19.77329071 8.75005096 20.54393005 8.7842865 C30.21200958 9.16582438 39.88907409 9.10685011 49.5625 9.0625 C55.976875 9.041875 62.39125 9.02125 69 9 C68.67 22.53 68.34 36.06 68 50 C67.67 50 67.34 50 67 50 C66.95101562 49.21753906 66.90203125 48.43507812 66.8515625 47.62890625 C66.73941406 46.11103516 66.73941406 46.11103516 66.625 44.5625 C66.52058594 43.04849609 66.52058594 43.04849609 66.4140625 41.50390625 C66.27742188 40.67761719 66.14078125 39.85132813 66 39 C63.60709722 37.80354861 62.19975194 37.91343121 59.53515625 37.97265625 C58.65279297 37.98490234 57.77042969 37.99714844 56.86132812 38.00976562 C54.99926975 38.04484977 53.1372817 38.08389608 51.27539062 38.12695312 C50.39173828 38.13791016 49.50808594 38.14886719 48.59765625 38.16015625 C47.78820557 38.17699463 46.97875488 38.19383301 46.14477539 38.21118164 C44 38 44 38 41 36 C39.8125 33.875 39.8125 33.875 39 32 C39.04640625 33.12019531 39.0928125 34.24039063 39.140625 35.39453125 C39.17814423 36.86716085 39.21454423 38.33981927 39.25 39.8125 C39.28351563 40.55048828 39.31703125 41.28847656 39.3515625 42.04882812 C39.44954832 47.46254495 39.44954832 47.46254495 37.421875 49.88671875 C31.2162478 52.73930545 25.93009517 53.27299522 19.25 52.8125 C18.49589844 52.78091797 17.74179688 52.74933594 16.96484375 52.71679688 C11.56723922 52.38603781 11.56723922 52.38603781 9.03125 50.66015625 C6.81564893 47.09337423 6.83549982 43.10450119 7.4375 39.0625 C7.7159375 38.0415625 7.7159375 38.0415625 8 37 C8.66 37 9.32 37 10 37 C9.40984815 31.49191603 8.43336231 26.35121931 7 21 C7.56606279 25.69023454 8.18537505 30.34500026 9 35 C3.40294709 36.98605103 -2.23903311 38.14434001 -8.05078125 39.31640625 C-10.87283154 39.69643868 -10.87283154 39.69643868 -12 41 C-14.10131921 41.12602054 -16.20743788 41.1757922 -18.3125 41.1875 C-19.46363281 41.20167969 -20.61476563 41.21585938 -21.80078125 41.23046875 C-24.82412237 41.01267006 -26.46565871 40.5831811 -29 39 C-28.62746094 38.18015625 -28.25492188 37.3603125 -27.87109375 36.515625 C-27.39800781 35.43796875 -26.92492187 34.3603125 -26.4375 33.25 C-25.96183594 32.18265625 -25.48617188 31.1153125 -24.99609375 30.015625 C-23.94293057 26.8272251 -24.20698163 26.06544917 -25 23 C-23.6953125 21.484375 -23.6953125 21.484375 -22 20 C-18.90663401 15.09328154 -17.7877715 10.7394781 -17 5 C-15.4530279 2.67954185 -14.46104026 2.14489837 -11.8125 1.3125 C-9.40777678 1.04530853 -7.16280463 0.97841856 -4.75 1 C-3.5125 1 -2.275 1 -1 1 C-0.67 0.67 -0.34 0.34 0 0 Z M4 5 C5 9 5 9 5 9 Z M3 11 C3.66 13.64 4.32 16.28 5 19 C5.66 18.67 6.32 18.34 7 18 C6.34 15.69 5.68 13.38 5 11 C4.34 11 3.68 11 3 11 Z M37 14 C36.32162685 18.80022743 36.46594571 23.39783714 38 28 C38.66 28 39.32 28 40 28 C40 23.71 40 19.42 40 15 C41.32 14.34 42.64 13.68 44 13 C44 12.34 44 11.68 44 11 C40.6796254 11 39.45694253 11.73702662 37 14 Z M-11 33 C-11 33.66 -11 34.32 -11 35 C-9.68 35 -8.36 35 -7 35 C-7 34.34 -7 33.68 -7 33 C-8.32 33 -9.64 33 -11 33 Z " fill="#DEDEDE" transform="translate(48,96)"/>
<path d="M0 0 C0.75603516 -0.020625 1.51207031 -0.04125 2.29101562 -0.0625 C7.19457117 -0.09652294 10.61357957 0.44652918 14.8125 3.25 C16.31640625 5.2578125 16.31640625 5.2578125 17.375 7.375 C19.1269104 10.58728781 19.1269104 10.58728781 22.3125 12.25 C23.1375 12.25 23.9625 12.25 24.8125 12.25 C26.47916667 12.25 28.14583333 12.25 29.8125 12.25 C30.8125 13.25 30.8125 13.25 30.875 16.8125 C30.854375 17.946875 30.83375 19.08125 30.8125 20.25 C31.86050781 20.28738281 32.90851563 20.32476563 33.98828125 20.36328125 C35.36722305 20.42894515 36.74612771 20.49539235 38.125 20.5625 C38.81529297 20.58505859 39.50558594 20.60761719 40.21679688 20.63085938 C43.00451679 20.77899908 45.28308136 20.94144312 47.72265625 22.36328125 C49.36537897 25.20713457 49.56574315 27.87381737 49.9375 31.125 C50.01532715 31.7962793 50.0931543 32.46755859 50.17333984 33.15917969 C50.40192162 35.1881425 50.60963661 37.21832313 50.8125 39.25 C50.9259375 40.30960938 51.039375 41.36921875 51.15625 42.4609375 C53.83211521 71.3751477 53.83211521 71.3751477 47.8125 82.25 C45.12561782 84.93688218 43.50232598 84.60623179 39.75 84.8125 C35.98439322 85.03189921 32.28453515 85.32161231 28.55078125 85.83984375 C23.29051516 86.44459354 18.29967719 85.85973943 13.0625 85.25 C5.87643148 84.50217179 -0.84062895 84.16081522 -8.046875 84.953125 C-18.21201109 85.91400851 -31.43393134 86.95142747 -41 83.125 C-47.30200382 77.72328244 -47.30200382 77.72328244 -49.1875 74.25 C-49.04755615 73.55076416 -48.9076123 72.85152832 -48.76342773 72.13110352 C-48.03622802 68.49325534 -48.0327794 64.93163729 -48.01171875 61.23828125 C-47.98850872 59.65949205 -47.96439091 58.08071598 -47.93945312 56.50195312 C-47.90449589 54.03807913 -47.87506674 51.57468644 -47.86157227 49.1105957 C-47.72224365 27.78474365 -47.72224365 27.78474365 -41.1875 21.25 C-40.094375 21.270625 -39.00125 21.29125 -37.875 21.3125 C-33.80132927 21.24345473 -32.34970145 20.72848222 -29.1875 18.25 C-28.630625 17.425 -28.07375 16.6 -27.5 15.75 C-24.89525203 12.93405625 -23.9305487 12.80040539 -20.3125 12 C-15.85345303 10.8802984 -14.13359584 9.47596794 -11.625 5.625 C-10.79699887 4.17541162 -9.98053177 2.71901088 -9.1875 1.25 C-7.10837421 -0.82912579 -2.85404059 0.01897949 0 0 Z M-11.25 11.125 C-11.97807861 11.6195166 -12.70615723 12.1140332 -13.45629883 12.62353516 C-14.96363428 13.64822947 -16.46616259 14.68002986 -17.96386719 15.71875 C-20.09549822 17.18664524 -22.24728744 18.61588121 -24.4140625 20.03125 C-25.73441849 20.89576691 -27.05473291 21.76034732 -28.375 22.625 C-28.9738501 23.01671387 -29.5727002 23.40842773 -30.18969727 23.81201172 C-37.12114887 28.12827988 -37.12114887 28.12827988 -42.1875 34.25 C-42.32298522 36.96288133 -42.40018346 39.64885113 -42.42578125 42.36328125 C-42.433853 43.16984665 -42.44192474 43.97641205 -42.45024109 44.80741882 C-42.46408143 46.51636607 -42.47480382 48.22534096 -42.48266602 49.93432617 C-42.49986506 52.5420403 -42.54374794 55.14848187 -42.58789062 57.75585938 C-42.59801897 59.41665735 -42.60653463 61.0774661 -42.61328125 62.73828125 C-42.63078934 63.51553055 -42.64829742 64.29277985 -42.66633606 65.09358215 C-42.65155052 68.80281942 -42.34984057 70.99339716 -40.34838867 74.15698242 C-35.32068143 79.02677501 -31.39827875 78.63267763 -24.75 78.625 C-23.75460205 78.62773926 -22.7592041 78.63047852 -21.73364258 78.63330078 C-15.10426634 78.54565213 -9.82485318 77.53472418 -3.66015625 75.015625 C1.35983887 73.46125052 5.74080941 75.40390414 10.4140625 77.3125 C15.0776064 78.59899487 19.49646778 78.61828308 24.3125 78.625 C25.23675781 78.64949219 26.16101563 78.67398438 27.11328125 78.69921875 C32.82890818 78.72374934 36.38605706 78.24220329 40.8125 74.25 C43.37421118 70.54538853 43.152467 66.53686524 43.18359375 62.1953125 C43.19262222 61.41614471 43.2016507 60.63697693 43.21095276 59.834198 C43.22543498 58.18849518 43.23433696 56.54273504 43.23803711 54.89697266 C43.24992906 52.38995509 43.29912479 49.88540434 43.34960938 47.37890625 C43.35907516 45.77605362 43.36630945 44.17318594 43.37109375 42.5703125 C43.39062607 41.82637238 43.41015839 41.08243225 43.43028259 40.31594849 C43.39699258 36.4413443 42.90426197 33.8777798 40.50488281 30.88793945 C38.41740404 28.84267212 36.66654296 27.19429714 34.17578125 25.72265625 C33.52085693 25.32651123 32.86593262 24.93036621 32.19116211 24.5222168 C31.50932861 24.12301025 30.82749512 23.72380371 30.125 23.3125 C28.69406923 22.44736554 27.26437897 21.58017595 25.8359375 20.7109375 C24.80098145 20.08396973 24.80098145 20.08396973 23.74511719 19.44433594 C21.18393672 17.86155488 18.71085724 16.17145787 16.25 14.4375 C15.47785156 13.89351562 14.70570312 13.34953125 13.91015625 12.7890625 C12.55867128 11.79747017 11.23032802 10.77312732 9.93359375 9.7109375 C6.29439628 6.79632297 3.65200473 5.74313934 -1.02441406 5.87768555 C-5.02967717 6.56707903 -7.98617604 8.81141299 -11.25 11.125 Z " fill="#F5F5F5" transform="translate(100.1875,3.75)"/>
<path d="M0 0 C2.15307617 1.19580078 2.15307617 1.19580078 4.29296875 2.6953125 C5.08396973 3.24348633 5.8749707 3.79166016 6.68994141 4.35644531 C7.92623291 5.23187988 7.92623291 5.23187988 9.1875 6.125 C10.03231934 6.7137793 10.87713867 7.30255859 11.74755859 7.90917969 C14.1699161 9.59928327 16.58505378 11.29933365 19 13 C20.143642 13.7955507 21.28803189 14.59002882 22.43359375 15.3828125 C28.7985782 19.7985782 28.7985782 19.7985782 30 21 C30.21789186 25.11577589 30.18579188 29.23464923 30.18530273 33.35571289 C30.18748734 35.42550264 30.20563491 37.49475793 30.22460938 39.56445312 C30.22654297 40.86189453 30.22847656 42.15933594 30.23046875 43.49609375 C30.23457764 44.69419678 30.23868652 45.8922998 30.24291992 47.12670898 C30 50 30 50 28 52 C19.26830441 52.91474906 11.26187567 51.83264309 3 49 C3 48.34 3 47.68 3 47 C4.609375 45.44921875 4.609375 45.44921875 6.75 43.6875 C13.43769458 37.99860175 13.43769458 37.99860175 16.23828125 29.9140625 C16.37250496 25.7743206 16.37506687 23.60010699 14.125 20 C11.15847256 17.20797418 9.5377392 16.84513743 5.5625 16.8125 C4.78003906 16.79832031 3.99757812 16.78414062 3.19140625 16.76953125 C0.70794013 16.85913936 0.70794013 16.85913936 -2 19 C-4.28397032 18.65394389 -5.93409037 18.03295481 -8 17 C-12.63213493 16.44487185 -15.98172127 16.3635758 -20 18.875 C-23.23174444 22.30872847 -23.46524343 24.90544864 -23.40625 29.4921875 C-22.16488219 37.15524651 -15.81430748 42.46484017 -10 47 C-11 49 -11 49 -12.79296875 49.8515625 C-20.10750116 52.2141684 -27.34108667 52.79265635 -35 52 C-38.61922908 48.38077092 -37.57211159 42.74945307 -37.64526367 37.84350586 C-37.68700046 35.83652144 -37.78749534 33.83103889 -37.88867188 31.82617188 C-38.03626733 22.39434601 -38.03626733 22.39434601 -35.36083984 18.79443359 C-33.01055775 16.93081806 -30.60797787 15.48039373 -28 14 C-26.08155749 12.67673544 -24.17034434 11.34294265 -22.265625 10 C-20.26322669 8.66245028 -18.25798109 7.32915393 -16.25 6 C-15.23550781 5.30777344 -14.22101563 4.61554687 -13.17578125 3.90234375 C-12.19480469 3.25394531 -11.21382812 2.60554688 -10.203125 1.9375 C-8.88296387 1.05384766 -8.88296387 1.05384766 -7.53613281 0.15234375 C-4.43365573 -1.25733009 -3.18581935 -1.1110732 0 0 Z " fill="#272727" transform="translate(104,21)"/>
<path d="M0 0 C2.6953125 1.43359375 2.6953125 1.43359375 5.125 3.4375 C9.3222997 6.73246759 13.55275481 9.72522289 18.0625 12.5625 C22.30609778 15.26197202 26.53224554 17.97771999 30.6875 20.8125 C31.45449219 21.33457031 32.22148437 21.85664063 33.01171875 22.39453125 C36.57335049 25.27042643 37.88722003 26.97741618 38.40405273 31.66357422 C38.43053088 33.12707226 38.43933845 34.59096122 38.43359375 36.0546875 C38.4388356 36.83385529 38.44407745 37.61302307 38.44947815 38.415802 C38.45589078 40.06153169 38.45457114 41.70730725 38.44604492 43.35302734 C38.4375512 45.85988898 38.46627678 48.36445807 38.49804688 50.87109375 C38.49965958 52.47395765 38.49908004 54.07682557 38.49609375 55.6796875 C38.50732773 56.42362762 38.51856171 57.16756775 38.53013611 57.93405151 C38.46171786 63.09322099 37.33934585 66.07978653 34 70 C29.75674318 72.92409323 24.97187764 72.38152763 20 72.375 C19.05825928 72.37701416 18.11651855 72.37902832 17.14624023 72.38110352 C10.73208301 72.2878408 5.38469683 71.42572392 -0.52734375 68.77734375 C-5.08136155 67.34566991 -8.86711064 68.94197494 -13.171875 70.53515625 C-18.53509236 72.37946465 -23.62048714 72.47945436 -29.25 72.4375 C-30.21679688 72.45748047 -31.18359375 72.47746094 -32.1796875 72.49804688 C-36.56330094 72.49502786 -39.23693287 72.46077515 -43.046875 70.16015625 C-47.04866411 65.73417749 -47.31954697 62.51973978 -47.3359375 56.7890625 C-47.3425943 55.98391205 -47.3492511 55.1787616 -47.35610962 54.34921265 C-47.36623125 52.64624311 -47.37092679 50.94323396 -47.37060547 49.24023438 C-47.37497268 46.64125774 -47.41127829 44.04398797 -47.44921875 41.4453125 C-47.45508833 39.78906829 -47.45905678 38.13281604 -47.4609375 36.4765625 C-47.47530853 35.70245026 -47.48967957 34.92833801 -47.50448608 34.13076782 C-47.47337345 30.436104 -47.16123588 28.25289473 -45.15673828 25.10888672 C-42.49947254 22.51057774 -39.62208852 20.4847771 -36.5 18.5 C-35.16517536 17.63831388 -33.830551 16.77631746 -32.49609375 15.9140625 C-31.7779248 15.45290039 -31.05975586 14.99173828 -30.31982422 14.51660156 C-27.8011675 12.87001184 -25.32441556 11.16984154 -22.84765625 9.4609375 C-21.0860883 8.26540278 -19.32437111 7.07008791 -17.5625 5.875 C-16.73492187 5.29427734 -15.90734375 4.71355469 -15.0546875 4.11523438 C-9.75347023 0.56828466 -6.39978577 -1.0005961 0 0 Z M-14.8203125 7.92578125 C-15.56078827 8.42917526 -16.30126404 8.93256927 -17.06417847 9.45121765 C-18.62606445 10.51604257 -20.18419194 11.58639861 -21.73876953 12.66186523 C-24.11624104 14.30644114 -26.50410667 15.93487121 -28.89453125 17.56054688 C-30.41209001 18.59803497 -31.9290382 19.63641684 -33.4453125 20.67578125 C-34.51412155 21.40720085 -34.51412155 21.40720085 -35.60452271 22.15339661 C-36.26886322 22.61364731 -36.93320374 23.07389801 -37.61767578 23.5480957 C-38.19993927 23.9500264 -38.78220276 24.35195709 -39.3821106 24.7660675 C-41.11099059 26.08465034 -42.59611853 27.33508674 -44 29 C-44.31050413 31.59922913 -44.44430659 33.95446239 -44.43359375 36.5546875 C-44.4388356 37.29324982 -44.44407745 38.03181213 -44.44947815 38.79275513 C-44.45589758 40.35449976 -44.45456231 41.91629274 -44.44604492 43.47802734 C-44.43755371 45.8599336 -44.46626173 48.23942565 -44.49804688 50.62109375 C-44.49965958 52.14062428 -44.49908003 53.66015904 -44.49609375 55.1796875 C-44.50732773 55.88817841 -44.51856171 56.59666931 -44.53013611 57.32662964 C-44.46259277 62.15530783 -43.42284461 64.61027841 -40 68 C-32.60574355 71.69712822 -19.94741514 68.92400586 -12.453125 66.8515625 C-9.99924934 66.06214523 -9.99924934 66.06214523 -7.8125 64.88671875 C-5.16626908 63.59211871 -3.8089376 64.17008662 -1 65 C0.95873033 65.73401695 2.90486415 66.48659719 4.83984375 67.28125 C10.12062268 69.03832653 15.53972064 69.23515015 21.0625 69.3125 C21.75666016 69.34150391 22.45082031 69.37050781 23.16601562 69.40039062 C26.84062224 69.44575614 28.8185967 69.11715127 31.93359375 67.10546875 C35.43402332 63.53886849 35.18771513 60.52489587 35.23828125 55.76171875 C35.25038887 54.68504692 35.25038887 54.68504692 35.26274109 53.58662415 C35.27657786 52.06599337 35.28730185 50.54533159 35.29516602 49.0246582 C35.31235842 46.70658958 35.35624181 44.38995531 35.40039062 42.07226562 C35.41051977 40.59376047 35.41903519 39.11524321 35.42578125 37.63671875 C35.45204338 36.60208748 35.45204338 36.60208748 35.47883606 35.54655457 C35.46396677 32.22333332 35.10383351 30.17323379 33.38549805 27.30639648 C30.6125399 24.62538783 27.65099455 22.51409783 24.40625 20.4609375 C23.77771118 20.0534024 23.14917236 19.64586731 22.50158691 19.22598267 C20.50609289 17.93431248 18.50342059 16.65433335 16.5 15.375 C14.49822674 14.08611445 12.4980014 12.79486627 10.49841309 11.50259399 C9.2579204 10.70205365 8.01588685 9.90389435 6.77209473 9.10848999 C4.37996329 7.57373005 2.07737258 6.06511892 -0.09960938 4.23291016 C-5.69668493 0.60171391 -10.13435002 4.6605411 -14.8203125 7.92578125 Z " fill="#0F0F0F" transform="translate(105,10)"/>
<path d="M0 0 C-0.00523682 0.62044189 -0.01047363 1.24088379 -0.01586914 1.88012695 C-0.03665466 4.69090767 -0.04966517 7.50167221 -0.0625 10.3125 C-0.07087891 11.28896484 -0.07925781 12.26542969 -0.08789062 13.27148438 C-0.09111328 14.20927734 -0.09433594 15.14707031 -0.09765625 16.11328125 C-0.10289307 16.97735596 -0.10812988 17.84143066 -0.11352539 18.73168945 C-0.09335523 21.16728714 -0.09335523 21.16728714 1 24 C-0.32 24.33 -1.64 24.66 -3 25 C-3.33 26.32 -3.66 27.64 -4 29 C-4.66 28.835 -5.32 28.67 -6 28.5 C-9.73099794 27.87816701 -13.21873378 27.93591074 -17 28 C-17.93786082 33.05009595 -17.93786082 33.05009595 -17 38 C-22.445 38.495 -22.445 38.495 -28 39 C-28.33 26.13 -28.66 13.26 -29 0 C-23.39 0 -17.78 0 -12 0 C-7.88561541 -0.37983083 -7.88561541 -0.37983083 -3.78515625 -0.87890625 C-2 -1 -2 -1 0 0 Z " fill="#333333" transform="translate(148,105)"/>
<path d="M0 0 C1.2209436 0.00398804 1.2209436 0.00398804 2.46655273 0.00805664 C17.43892121 0.12642121 17.43892121 0.12642121 19.4375 2.125 C19.57865161 4.79558851 19.47997107 7.44932238 19.4375 10.125 C19.1075 10.125 18.7775 10.125 18.4375 10.125 C18.1075 8.475 17.7775 6.825 17.4375 5.125 C16.7775 5.125 16.1175 5.125 15.4375 5.125 C15.32429144 10.20803686 15.32429144 10.20803686 16.4375 15.125 C16.55703769 17.10154185 16.61276196 19.08238456 16.625 21.0625 C16.63917969 22.10277344 16.65335938 23.14304687 16.66796875 24.21484375 C16.44142282 27.07546613 15.91483619 28.70170151 14.4375 31.125 C12.43795254 31.16754356 10.43708364 31.16580783 8.4375 31.125 C8.1075 30.795 7.7775 30.465 7.4375 30.125 C6.4475 30.455 5.4575 30.785 4.4375 31.125 C0.32621573 31.39024415 -2.55604301 31.475072 -6.4375 30.125 C-9.92547741 26.84219773 -10.42095407 22.32271009 -10.71923828 17.69140625 C-10.75814173 15.16612917 -10.73792282 12.65001944 -10.6875 10.125 C-10.67847656 9.25488281 -10.66945312 8.38476562 -10.66015625 7.48828125 C-10.63684619 5.3670658 -10.60098579 3.24599438 -10.5625 1.125 C-7.26756055 -0.52246973 -3.61847491 -0.02062737 0 0 Z " fill="#313131" transform="translate(161.5625,103.875)"/>
<path d="M0 0 C0.99 0.66 1.98 1.32 3 2 C3 1.34 3 0.68 3 0 C5.31 0 7.62 0 10 0 C10.11673963 4.35393904 10.18743418 8.70747211 10.25 13.0625 C10.30027344 14.90618164 10.30027344 14.90618164 10.3515625 16.78710938 C10.42645922 23.73378041 10.3497545 28.43487292 6 34 C2.05766024 36.51871707 -2.43578796 36.58950684 -7 36 C-11.0226217 34.43564712 -12.59149109 33.61276337 -15 30 C-15 29.01 -15 28.02 -15 27 C-11.625 26.875 -11.625 26.875 -8 27 C-7.34 27.66 -6.68 28.32 -6 29 C-2.40320934 28.67673447 -2.40320934 28.67673447 1 28 C1 26.02 1 24.04 1 22 C0.01 22.66 -0.98 23.32 -2 24 C-6.11136265 24.45681807 -8.26502493 24.45731782 -11.8125 22.25 C-15.06081671 18.90887424 -16.28825677 16.22528063 -16.3125 11.5625 C-16.18828142 6.5192258 -14.64353005 3.89638082 -11.375 0.125 C-7.63458354 -1.64677622 -3.95224778 -0.96804596 0 0 Z " fill="#2C2C2C" transform="translate(74,107)"/>
<path d="M0 0 C4.46853055 1.48951018 6.78059523 5.04432619 9 9 C11.73752025 14.90629368 11.22248552 21.00844594 11.125 27.375 C11.11597656 28.49261719 11.10695313 29.61023438 11.09765625 30.76171875 C11.07418346 33.50803462 11.04134728 36.25390472 11 39 C10.34 39 9.68 39 9 39 C8.9175 39.845625 8.835 40.69125 8.75 41.5625 C7.86154062 45.63460551 6.72706582 48.81000634 4 52 C-2.41180559 55.2059028 -9.99368596 54.17491491 -17 54 C-17 53.34 -17 52.68 -17 52 C-20.18734937 51.83036895 -23.37489941 51.66483749 -26.5625 51.5 C-27.45775391 51.45230469 -28.35300781 51.40460938 -29.27539062 51.35546875 C-39.10639876 50.56297732 -39.10639876 50.56297732 -48.625 52.5 C-57.82005798 55.43013987 -69.20743662 55.3008699 -78 51 C-81.16110756 47.9874251 -81.95953861 46.44270321 -82.36230469 42.03588867 C-82.32003247 40.49585385 -82.25535565 38.9563202 -82.171875 37.41796875 C-82.14401917 36.60378983 -82.11616333 35.7896109 -82.08746338 34.95075989 C-81.99442729 32.36183015 -81.87263884 29.77517959 -81.75 27.1875 C-81.6816907 25.42780722 -81.61526333 23.66804031 -81.55078125 21.90820312 C-81.38897648 17.60430503 -81.20138457 13.30222041 -81 9 C-80.67 9 -80.34 9 -80 9 C-79.99589111 10.00377686 -79.99178223 11.00755371 -79.98754883 12.04174805 C-79.96571688 15.77891844 -79.91138706 19.51504201 -79.84741211 23.25170898 C-79.82426714 24.86651549 -79.80984457 26.48147221 -79.80444336 28.09643555 C-79.79512726 30.42331148 -79.75408632 32.74783676 -79.70703125 35.07421875 C-79.71293022 36.15107185 -79.71293022 36.15107185 -79.71894836 37.24967957 C-79.60396784 41.23196701 -79.12814342 42.84856006 -76.51831055 45.93286133 C-75.68726807 46.61501709 -74.85622559 47.29717285 -74 48 C-73.67 48.33 -73.34 48.66 -73 49 C-62.19109506 49.98485058 -51.57586228 49.89412934 -41.47265625 45.765625 C-36.45448649 44.21181572 -32.0710901 46.14976301 -27.40234375 48.06640625 C-22.71614464 49.35228637 -18.27430269 49.3292828 -13.4375 49.3125 C-12.50486328 49.32861328 -11.57222656 49.34472656 -10.61132812 49.36132812 C-3.78057201 49.39059738 -3.78057201 49.39059738 2 46 C4.55536978 42.27985702 4.32300052 38.29313289 4.3359375 33.9453125 C4.3425943 33.16614471 4.3492511 32.38697693 4.35610962 31.584198 C4.36621741 29.93848016 4.37092722 28.2927215 4.37060547 26.64697266 C4.37497342 24.14025677 4.41129517 21.63531022 4.44921875 19.12890625 C4.45508856 17.52604765 4.45905685 15.92318074 4.4609375 14.3203125 C4.47530853 13.57637238 4.48967957 12.83243225 4.50448608 12.06594849 C4.45773935 6.69191018 3.23699211 4.0725001 0 0 Z " fill="#C6C6C6" transform="translate(138,32)"/>
<path d="M0 0 C0.99 0.66 1.98 1.32 3 2 C3.33 1.67 3.66 1.34 4 1 C6.67058851 0.85884839 9.32432238 0.95752893 12 1 C12.02887236 4.81248426 12.04675492 8.6249407 12.0625 12.4375 C12.07087891 13.52611328 12.07925781 14.61472656 12.08789062 15.73632812 C12.09272461 17.28803711 12.09272461 17.28803711 12.09765625 18.87109375 C12.10551147 20.30859985 12.10551147 20.30859985 12.11352539 21.77514648 C12 24 12 24 11 25 C8.66702567 25.04092937 6.33294775 25.04241723 4 25 C3.67 24.34 3.34 23.68 3 23 C2.01 23.66 1.02 24.32 0 25 C-4.11136265 25.45681807 -6.26502493 25.45731782 -9.8125 23.25 C-13.10110682 19.86743299 -14.28231105 17.21741329 -14.25 12.5 C-14.25515625 11.7471875 -14.2603125 10.994375 -14.265625 10.21875 C-13.97250404 7.7703279 -13.21816769 6.12695946 -12 4 C-11.34 4 -10.68 4 -10 4 C-10 3.34 -10 2.68 -10 2 C-6.59677126 -0.09429461 -3.96047946 -0.33706208 0 0 Z " fill="#3D3D3D" transform="translate(103,106)"/>
<path d="M0 0 C1.23556641 0.01740234 1.23556641 0.01740234 2.49609375 0.03515625 C3.32238281 0.04417969 4.14867188 0.05320312 5 0.0625 C5.63808594 0.07410156 6.27617188 0.08570312 6.93359375 0.09765625 C16.93359375 26.36432292 16.93359375 26.36432292 16.93359375 31.09765625 C14.62359375 31.09765625 12.31359375 31.09765625 9.93359375 31.09765625 C9.43859375 28.62265625 9.43859375 28.62265625 8.93359375 26.09765625 C4.64359375 26.09765625 0.35359375 26.09765625 -4.06640625 26.09765625 C-4.39640625 27.74765625 -4.72640625 29.39765625 -5.06640625 31.09765625 C-7.37640625 31.09765625 -9.68640625 31.09765625 -12.06640625 31.09765625 C-11.46292893 24.44054703 -9.30254295 18.49322139 -7.06640625 12.22265625 C-6.51339844 10.63710937 -6.51339844 10.63710937 -5.94921875 9.01953125 C-2.81960355 0.13325159 -2.81960355 0.13325159 0 0 Z " fill="#202020" transform="translate(38.06640625,99.90234375)"/>
<path d="M0 0 C2.35425082 3.53137623 2.06800927 4.52268047 1.75 8.625 C1.64464932 15.33502776 3.53771464 19.09245406 8 24 C10.25127143 26.17038743 12.52802793 28.07186179 15 30 C14 32 14 32 12.20703125 32.8515625 C4.76119838 35.25657866 -2.2240705 35.30252175 -10 35 C-10 34.01 -10 33.02 -10 32 C-10.01160156 30.99710938 -10.02320312 29.99421875 -10.03515625 28.9609375 C-10.08647822 22.23042728 -10.12672323 15.64766706 -9 9 C-8.34 8.67 -7.68 8.34 -7 8 C-6.690625 7.21625 -6.38125 6.4325 -6.0625 5.625 C-4.79051807 2.48245641 -3.63224714 0 0 0 Z " fill="#363636" transform="translate(79,38)"/>
<path d="M0 0 C0.75603516 -0.020625 1.51207031 -0.04125 2.29101562 -0.0625 C7.19546417 -0.09652913 10.60938717 0.45212579 14.8125 3.25 C16.28125 5.1875 16.28125 5.1875 17.3125 7.25 C19.54305006 11.21301612 21.67811519 12.32062042 25.8125 14.25 C26.49382451 15.91072849 27.15992127 17.577767 27.8125 19.25 C30.66501385 21.42946646 30.66501385 21.42946646 33.8125 23.25 C36.1875 24.875 36.1875 24.875 37.8125 26.25 C37.8125 26.91 37.8125 27.57 37.8125 28.25 C33.95732731 26.8582409 30.81730718 25.06000827 27.4375 22.75 C26.40238281 22.04746094 25.36726563 21.34492188 24.30078125 20.62109375 C23.74471191 20.24194824 23.18864258 19.86280273 22.61572266 19.47216797 C20.66176807 18.14783861 18.6975407 16.83991752 16.73046875 15.53515625 C16.04839355 15.08269531 15.36631836 14.63023438 14.66357422 14.1640625 C13.31776745 13.27180067 11.97174313 12.37986688 10.62548828 11.48828125 C5.92363327 8.36113327 5.92363327 8.36113327 4.8125 7.25 C-2.13786317 6.53283849 -5.65032124 8.15581594 -11.25 12.125 C-11.97735352 12.6187915 -12.70470703 13.11258301 -13.45410156 13.62133789 C-14.96076495 14.64520938 -16.4625583 15.67628284 -17.95947266 16.71435547 C-20.10533883 18.19337127 -22.27047862 19.63637059 -24.44921875 21.06640625 C-33.78018221 27.06123234 -33.78018221 27.06123234 -42.1875 34.25 C-41.6791752 29.80215797 -40.35180777 27.41430777 -37.1875 24.25 C-35.83218953 23.54416504 -34.45500646 22.8792815 -33.0625 22.25 C-29.73684014 20.75844421 -29.73684014 20.75844421 -27.8125 17.625 C-27.503125 16.449375 -27.503125 16.449375 -27.1875 15.25 C-24.82472783 12.88722783 -23.65017086 12.84463722 -20.4375 12.1875 C-14.94099098 10.66820445 -13.00893171 8.04786062 -10.24609375 3.2109375 C-9.72208984 2.24027344 -9.72208984 2.24027344 -9.1875 1.25 C-7.10837421 -0.82912579 -2.85404059 0.01897949 0 0 Z " fill="#F7F7F7" transform="translate(100.1875,3.75)"/>
<path d="M0 0 C3.1875 0.3125 3.1875 0.3125 5.5625 2.0625 C7.1875 4.3125 7.1875 4.3125 7.1875 8.3125 C8.8375 7.9825 10.4875 7.6525 12.1875 7.3125 C12.496875 6.343125 12.80625 5.37375 13.125 4.375 C14.1875 1.3125 14.1875 1.3125 15.1875 0.3125 C19.21910191 0.04956944 20.74642734 0.01845156 24.1875 2.3125 C24.94987183 5.36198732 25.12283504 6.40020681 24.1875 9.3125 C20.70559495 14.10011944 16.39612748 19.36498213 11.1875 22.3125 C5.85077529 22.14520455 3.45886546 19.04861296 -0.00390625 15.36328125 C-3.7223409 11.14691367 -3.7223409 11.14691367 -4.8125 8.3125 C-4.29011194 0.4766791 -4.29011194 0.4766791 0 0 Z " fill="#212121" transform="translate(90.8125,42.6875)"/>
<path d="M0 0 C4.00656894 1.13577519 6.9499237 3.7435915 10.1875 6.28515625 C13.45526759 8.7975395 16.82347279 11.00657737 20.30859375 13.19921875 C24.55219153 15.89869077 28.77833929 18.61443874 32.93359375 21.44921875 C33.70058594 21.97128906 34.46757812 22.49335938 35.2578125 23.03125 C37.35755384 24.72671894 38.79500678 26.36565247 40.24609375 28.63671875 C40.24609375 29.29671875 40.24609375 29.95671875 40.24609375 30.63671875 C38.76109375 31.13171875 38.76109375 31.13171875 37.24609375 31.63671875 C36.46008789 30.539646 36.46008789 30.539646 35.65820312 29.42041016 C32.9808777 26.33064654 30.07090432 24.26080125 26.65234375 22.09765625 C26.02380493 21.69012115 25.39526611 21.28258606 24.74768066 20.86270142 C22.75218664 19.57103123 20.74951434 18.2910521 18.74609375 17.01171875 C16.74432049 15.7228332 14.74409515 14.43158502 12.74450684 13.13931274 C11.50401415 12.3387724 10.2619806 11.5406131 9.01818848 10.74520874 C6.62605704 9.2104488 4.32346633 7.70183767 2.14648438 5.86962891 C-0.46491307 4.1754412 -1.6776353 4.09714439 -4.75390625 4.63671875 C-7.25816589 6.07278035 -9.51325256 7.52237612 -11.84765625 9.1953125 C-12.85137268 9.8909304 -12.85137268 9.8909304 -13.87536621 10.6006012 C-16.00938691 12.08092328 -18.13237718 13.57606027 -20.25390625 15.07421875 C-22.37618404 16.56761109 -24.50066278 18.05732888 -26.63244629 19.53712463 C-27.95712264 20.45707531 -29.27634603 21.38494186 -30.5892334 22.32164001 C-33.99342039 24.69032154 -36.66297648 26.03189134 -40.75390625 26.63671875 C-41.74390625 27.29671875 -42.73390625 27.95671875 -43.75390625 28.63671875 C-42.23495096 24.42594397 -39.17796726 22.44999752 -35.62890625 20.01171875 C-35.01724609 19.58294434 -34.40558594 19.15416992 -33.77539062 18.71240234 C-27.17747307 14.14013203 -20.35764731 9.92342716 -13.5090332 5.74023438 C-11.81288349 4.67380001 -10.1628553 3.5350743 -8.515625 2.39453125 C-5.60843197 0.5441255 -3.47216496 -0.19034553 0 0 Z " fill="#121212" transform="translate(102.75390625,9.36328125)"/>
<path d="M0 0 C1.2209436 0.00398804 1.2209436 0.00398804 2.46655273 0.00805664 C17.43892121 0.12642121 17.43892121 0.12642121 19.4375 2.125 C19.57865161 4.79558851 19.47997107 7.44932238 19.4375 10.125 C19.1075 10.125 18.7775 10.125 18.4375 10.125 C18.1075 8.475 17.7775 6.825 17.4375 5.125 C16.7775 5.125 16.1175 5.125 15.4375 5.125 C15.32429144 10.20803686 15.32429144 10.20803686 16.4375 15.125 C16.55703769 17.10154185 16.61276196 19.08238456 16.625 21.0625 C16.63917969 22.10277344 16.65335938 23.14304687 16.66796875 24.21484375 C16.44142282 27.07546613 15.91483619 28.70170151 14.4375 31.125 C12.43795254 31.16754356 10.43708364 31.16580783 8.4375 31.125 C8.1075 30.795 7.7775 30.465 7.4375 30.125 C6.4475 30.455 5.4575 30.785 4.4375 31.125 C0.20066926 31.39834392 -2.59299641 31.48856384 -6.5625 30 C-8.5625 28.125 -8.5625 28.125 -8.875 24.9375 C-8.771875 24.009375 -8.66875 23.08125 -8.5625 22.125 C-8.2325 22.785 -7.9025 23.445 -7.5625 24.125 C-3.22231268 26.56635537 1.58369017 27.01310651 6.4375 26.125 C9.19319447 23.94340855 10.87338747 22.25322506 12.4375 19.125 C8.05815881 19.64458285 3.74946609 20.18175742 -0.5625 21.125 C-1.2225 19.805 -1.8825 18.485 -2.5625 17.125 C2.7175 17.125 7.9975 17.125 13.4375 17.125 C12.70504934 10.06346895 12.70504934 10.06346895 8.8125 4.5 C4.4836739 2.73640418 2.09426418 2.60758176 -2.5625 3.125 C-6.29309215 4.78304096 -8.33634494 6.72718438 -10.5625 10.125 C-10.5625 7.155 -10.5625 4.185 -10.5625 1.125 C-7.26756055 -0.52246973 -3.61847491 -0.02062737 0 0 Z " fill="#CECECE" transform="translate(161.5625,103.875)"/>
<path d="M0 0 C-0.804375 0.763125 -1.60875 1.52625 -2.4375 2.3125 C-6.18399082 6.24174647 -6.33528322 9.51927783 -6.29296875 14.70703125 C-5.84607052 18.20475473 -4.24513927 20.35865969 -2 23 C1.02437339 24.5121867 3.66241534 24.17263369 7 24 C9.35369807 23.11935073 9.35369807 23.11935073 11 22 C11.1875 25.375 11.1875 25.375 11 29 C7.77626323 31.14915785 6.73296326 31.38286803 3 31 C2.34 30.34 1.68 29.68 1 29 C-1.32275177 28.59952556 -3.65739357 28.2602896 -6 28 C-4.24424166 32.35486383 -4.24424166 32.35486383 -0.8125 35.375 C4.50178983 36.55595329 10.23754324 36.99354425 15 34 C18.90775604 28.6966168 18.70193575 22.35185205 19 16 C19.33 16 19.66 16 20 16 C21.23839599 22.65637843 21.09139136 29.2471936 21 36 C16.26979157 38.79815147 12.33627663 39.46573574 6.9375 39.375 C5.89625977 39.39240234 5.89625977 39.39240234 4.83398438 39.41015625 C0.40392355 39.38491374 -2.5259896 38.79759627 -6 36 C-7.0025624 32.99231279 -7.01639534 31.36069749 -6.875 28.25 C-6.80151686 22.11823998 -7.94736497 16.43454417 -9.24609375 10.48046875 C-9.92872423 7.32905032 -10.49770619 4.18444522 -11 1 C-7.26562152 0.12132271 -3.83225427 -0.08912219 0 0 Z " fill="#CECECE" transform="translate(65,106)"/>
<path d="M0 0 C3.36794152 2.24529435 3.71057265 3.31592186 5 7 C5.33 7.66 5.66 8.32 6 9 C6.1875 12.5 6.1875 12.5 6 16 C5.34 16.66 4.68 17.32 4 18 C3.92652344 17.06027344 3.92652344 17.06027344 3.8515625 16.1015625 C3.77679688 15.28429687 3.70203125 14.46703125 3.625 13.625 C3.55539063 12.81289062 3.48578125 12.00078125 3.4140625 11.1640625 C3.17107412 8.79665809 3.17107412 8.79665809 1 7 C-2.82564665 7.18757062 -2.82564665 7.18757062 -6 9 C-6.37581502 13.12795128 -6.37581502 13.12795128 -4.875 16.875 C-2.21965017 18.4682099 -0.03210482 18.20214032 3 18 C3 18.66 3 19.32 3 20 C1.68 20.33 0.36 20.66 -1 21 C-1 21.66 -1 22.32 -1 23 C-0.34 23.33 0.32 23.66 1 24 C0 25 0 25 -3.25 25.3125 C-7.60085725 24.94992856 -8.99689899 24.0889039 -12 21 C-13.76205034 18.07757505 -14.27328871 15.9001521 -14.25 12.5 C-14.25515625 11.7471875 -14.2603125 10.994375 -14.265625 10.21875 C-13.97250404 7.7703279 -13.21816769 6.12695946 -12 4 C-11.34 4 -10.68 4 -10 4 C-10 3.34 -10 2.68 -10 2 C-6.59677126 -0.09429461 -3.96047946 -0.33706208 0 0 Z " fill="#242424" transform="translate(103,106)"/>
<path d="M0 0 C0.33 0 0.66 0 1 0 C1.14560195 3.72875388 1.23417043 7.45677434 1.3125 11.1875 C1.35439453 12.24259766 1.39628906 13.29769531 1.43945312 14.38476562 C1.56324187 22.23297213 1.56324187 22.23297213 -1.33203125 26.17578125 C-5.70935646 29.16876935 -9.81436012 29.55875515 -15 29 C-19.0226217 27.43564712 -20.59149109 26.61276337 -23 23 C-23 22.01 -23 21.02 -23 20 C-19.625 19.875 -19.625 19.875 -16 20 C-15.34 20.66 -14.68 21.32 -14 22 C-10.43407381 21.83582968 -10.43407381 21.83582968 -7 21 C-5.73242991 18.85078622 -5.73242991 18.85078622 -6.0625 15.5 C-6 12 -6 12 -4 10 C-3.97624074 8.0068433 -3.97624074 8.0068433 -4.375 5.875 C-4.58125 4.59625 -4.7875 3.3175 -5 2 C-4.360625 1.855625 -3.72125 1.71125 -3.0625 1.5625 C-1.02454854 1.18992819 -1.02454854 1.18992819 0 0 Z " fill="#1B1B1B" transform="translate(82,114)"/>
<path d="M0 0 C1.32 0.33 2.64 0.66 4 1 C3.01 1 2.02 1 1 1 C1.495 8.92 1.495 8.92 2 17 C2.66 17 3.32 17 4 17 C3.505 16.01 3.505 16.01 3 15 C2.92966231 13.12620395 2.9156978 11.24998898 2.9375 9.375 C2.94652344 8.37210938 2.95554687 7.36921875 2.96484375 6.3359375 C2.97644531 5.56507812 2.98804687 4.79421875 3 4 C4.32 3.67 5.64 3.34 7 3 C6.83701416 3.57073242 6.67402832 4.14146484 6.50610352 4.72949219 C5.99631481 7.01653267 5.88564032 8.98964456 5.90234375 11.328125 C5.90556641 12.12734375 5.90878906 12.9265625 5.91210938 13.75 C5.92048828 14.575 5.92886719 15.4 5.9375 16.25 C5.94201172 17.09046875 5.94652344 17.9309375 5.95117188 18.796875 C5.96292039 20.86461401 5.98085478 22.93231624 6 25 C5.01 23.68 4.02 22.36 3 21 C3.04640625 22.12019531 3.0928125 23.24039063 3.140625 24.39453125 C3.17814423 25.86716085 3.21454423 27.33981927 3.25 28.8125 C3.30027344 29.91948242 3.30027344 29.91948242 3.3515625 31.04882812 C3.44954832 36.46254495 3.44954832 36.46254495 1.421875 38.88671875 C-4.7837522 41.73930545 -10.06990483 42.27299522 -16.75 41.8125 C-17.50410156 41.78091797 -18.25820312 41.74933594 -19.03515625 41.71679688 C-24.43276078 41.38603781 -24.43276078 41.38603781 -26.96875 39.66015625 C-29.18435107 36.09337423 -29.16450018 32.10450119 -28.5625 28.0625 C-28.376875 27.381875 -28.19125 26.70125 -28 26 C-27.34 26 -26.68 26 -26 26 C-25.67 28.97 -25.34 31.94 -25 35 C-20.70165373 37.11146834 -16.7614262 37.30235572 -12.0625 37.25 C-11.37220703 37.25773437 -10.68191406 37.26546875 -9.97070312 37.2734375 C-5.60579982 37.2568881 -2.05484502 36.59909381 2 35 C1.855625 33.73027344 1.71125 32.46054688 1.5625 31.15234375 C0.42064146 20.71074962 -0.28652704 10.5059914 0 0 Z " fill="#EBEBEB" transform="translate(84,107)"/>
<path d="M0 0 C0.66 0 1.32 0 2 0 C2.66 0.66 3.32 1.32 4 2 C5.32 2 6.64 2 8 2 C8 2.66 8 3.32 8 4 C8.99 4.33 9.98 4.66 11 5 C8.69 5.66 6.38 6.32 4 7 C2.80011955 12.28199593 2.80011955 12.28199593 5 17 C8.58357241 17.25015873 8.58357241 17.25015873 12 17 C11.625 19.9375 11.625 19.9375 11 23 C7.89951072 24.55024464 5.42105782 24.28992015 2 24 C-1.53938449 21.79771632 -3.42254691 19.81799487 -5 16 C-5.5963461 11.67068217 -5.48597728 8.03822419 -3.625 4.0625 C-2 2 -2 2 0 0 Z " fill="#272727" transform="translate(63,107)"/>
<path d="M0 0 C0.66 0 1.32 0 2 0 C2.04939115 4.09338652 2.08571501 8.18665798 2.10986328 12.28027344 C2.11992877 13.67320781 2.13358234 15.06612102 2.15087891 16.45898438 C2.1751022 18.4595436 2.18540814 20.46025615 2.1953125 22.4609375 C2.20578613 23.66540527 2.21625977 24.86987305 2.22705078 26.11083984 C2 29 2 29 0 31 C-8.73169559 31.91474906 -16.73812433 30.83264309 -25 28 C-25 27.34 -25 26.68 -25 26 C-23.42578125 24.484375 -23.42578125 24.484375 -21.3125 22.75 C-17.76035397 19.74045531 -14.86029631 16.66475465 -12 13 C-11.67 13.66 -11.34 14.32 -11 15 C-11.66666667 16.33333333 -12.33333333 17.66666667 -13 19 C-13.35919321 20.99551782 -13.69496569 22.99548879 -14 25 C-14.33 25.66 -14.66 26.32 -15 27 C-13.68 26.67 -12.36 26.34 -11 26 C-11 26.66 -11 27.32 -11 28 C-9.5164999 27.57742724 -8.03823576 27.13643678 -6.5625 26.6875 C-5.73878906 26.44386719 -4.91507813 26.20023438 -4.06640625 25.94921875 C-3.38449219 25.63597656 -2.70257813 25.32273437 -2 25 C-1.0268319 22.0804957 -0.8070454 19.94555049 -0.68359375 16.89453125 C-0.64169922 15.91162109 -0.59980469 14.92871094 -0.55664062 13.91601562 C-0.51732422 12.89185547 -0.47800781 11.86769531 -0.4375 10.8125 C-0.39431641 9.77673828 -0.35113281 8.74097656 -0.30664062 7.67382812 C-0.20055634 5.1160181 -0.09849854 2.55811155 0 0 Z " fill="#292929" transform="translate(132,42)"/>
<path d="M0 0 C4.07283071 1.44977827 7.37151231 3.44260171 10.9375 5.875 C11.93652344 6.55304687 12.93554688 7.23109375 13.96484375 7.9296875 C15.46724609 8.95449219 15.46724609 8.95449219 17 10 C18.67255859 11.02480469 18.67255859 11.02480469 20.37890625 12.0703125 C21.24386719 12.70710938 22.10882813 13.34390625 23 14 C23 14.99 23 15.98 23 17 C22.401875 16.814375 21.80375 16.62875 21.1875 16.4375 C18.83591238 15.77906313 18.83591238 15.77906313 16 17 C16 17.66 16 18.32 16 19 C13.78051737 17.96952592 12.08726229 17.08403036 10.3125 15.375 C6.7682866 13.26762987 3.03139319 13.42832914 -1 14 C-1.99 14.66 -2.98 15.32 -4 16 C-7.62714109 15.65995552 -8.25304719 14.74695281 -11 12 C-4.07 11.01 -4.07 11.01 3 10 C3.33 9.01 3.66 8.02 4 7 C3.34 6.67 2.68 6.34 2 6 C1.27306096 4.02111039 0.60183749 2.02045442 0 0 Z " fill="#202020" transform="translate(106,24)"/>
<path d="M0 0 C0.66 0 1.32 0 2 0 C2.09927153 4.73219762 2.17165633 9.46378213 2.21972656 14.19677734 C2.23977627 15.80495774 2.26702364 17.41306583 2.30175781 19.02099609 C2.35057264 21.3397002 2.37303428 23.65743625 2.390625 25.9765625 C2.41127014 26.68930328 2.43191528 27.40204407 2.45318604 28.13638306 C2.45545158 33.2374186 1.17699921 36.05919522 -2 40 C-5.60574429 42.8583121 -10.16633623 42.29451811 -14.5625 42.25 C-15.71395508 42.26160156 -15.71395508 42.26160156 -16.88867188 42.2734375 C-20.77207821 42.25989467 -22.70024677 42.19983549 -26 40 C-23.72149565 37.72149565 -17.05959002 38.75128506 -13.7890625 38.74609375 C-12.99757812 38.72160156 -12.20609375 38.69710937 -11.390625 38.671875 C-10.66907227 38.6625293 -9.94751953 38.65318359 -9.20410156 38.64355469 C-5.71014059 37.6233862 -4.20705369 35.84578757 -2 33 C-1.24083969 29.45237561 -1.24083969 29.45237561 -1.328125 25.546875 C-1.30900055 24.49563446 -1.30900055 24.49563446 -1.28948975 23.42315674 C-1.25332065 21.19835414 -1.25048162 18.97507015 -1.25 16.75 C-1.22839935 14.51121233 -1.1999973 12.27265354 -1.16766357 10.03399658 C-1.14179593 8.01334208 -1.13347028 5.99248587 -1.12597656 3.97167969 C-1 1 -1 1 0 0 Z " fill="#040404" transform="translate(141,40)"/>
<path d="M0 0 C6.75 0.875 6.75 0.875 9 2 C9 2.66 9 3.32 9 4 C8.01 4 7.02 4 6 4 C6.13277344 4.58007812 6.26554687 5.16015625 6.40234375 5.7578125 C7.39704001 10.15770982 8.31368332 14.53894158 9 19 C0.42857143 19.14285714 0.42857143 19.14285714 -3 18 C-3.33 18.66 -3.66 19.32 -4 20 C-4.66 19.67 -5.32 19.34 -6 19 C-4.3186083 12.51292846 -2.46937673 6.2322365 0 0 Z " fill="#363636" transform="translate(35,101)"/>
<path d="M0 0 C0.33 0 0.66 0 1 0 C1 2.64 1 5.28 1 8 C6.41378349 7.7749241 6.41378349 7.7749241 11 5.375 C14.27562865 3.1230053 17.1967569 4.30273877 21 5 C21 5.66 21 6.32 21 7 C24.3 7 27.6 7 31 7 C31 5.02 31 3.04 31 1 C33 4 33 4 32.625 6.1875 C32.41875 6.785625 32.2125 7.38375 32 8 C30.82630859 8.19916016 30.82630859 8.19916016 29.62890625 8.40234375 C28.61699219 8.57894531 27.60507812 8.75554687 26.5625 8.9375 C25.55316406 9.11152344 24.54382813 9.28554687 23.50390625 9.46484375 C21.0712562 9.74751097 21.0712562 9.74751097 20 11 C17.66666667 11.33333333 15.33333333 11.66666667 13 12 C12.67 12.33 12.34 12.66 12 13 C9.89868079 13.12602054 7.79256212 13.1757922 5.6875 13.1875 C4.53636719 13.20167969 3.38523437 13.21585938 2.19921875 13.23046875 C-1 13 -1 13 -5 11 C-3.35 7.37 -1.7 3.74 0 0 Z M13 5 C13 5.66 13 6.32 13 7 C14.32 7 15.64 7 17 7 C17 6.34 17 5.68 17 5 C15.68 5 14.36 5 13 5 Z " fill="#F8F8F8" transform="translate(24,124)"/>
<path d="M0 0 C2.5 2 2.5 2 4 4 C3.67 4.99 3.34 5.98 3 7 C3 6.34 3 5.68 3 5 C2.01 5.33 1.02 5.66 0 6 C0 5.34 0 4.68 0 4 C-4.34184202 4.18464366 -4.34184202 4.18464366 -8 6 C-7.071875 5.95875 -6.14375 5.9175 -5.1875 5.875 C-2 6 -2 6 1 8 C1 8.99 1 9.98 1 11 C-4.445 11.495 -4.445 11.495 -10 12 C-10 12.99 -10 13.98 -10 15 C-11.32 15.33 -12.64 15.66 -14 16 C-14.33 17.32 -14.66 18.64 -15 20 C-16.84467846 16.31064308 -16.35009552 12.03564658 -16 8 C-14.69078973 4.76142722 -13.47966387 3.39743578 -10.8125 1.1875 C-6.82662893 -0.49542334 -4.32853794 -0.48094866 0 0 Z " fill="#484848" transform="translate(167,106)"/>
<path d="M0 0 C2 1 2 1 3.125 4.0625 C3.41375 5.031875 3.7025 6.00125 4 7 C4.66 7 5.32 7 6 7 C6 8.32 6 9.64 6 11 C1.53763531 12.80619523 -1.31034294 13.11658501 -6 12 C-6.33 12.66 -6.66 13.32 -7 14 C-9.97 14 -12.94 14 -16 14 C-14.68 13.67 -13.36 13.34 -12 13 C-12 12.34 -12 11.68 -12 11 C-12.66 11 -13.32 11 -14 11 C-14.33 10.01 -14.66 9.02 -15 8 C-14.34 7.67 -13.68 7.34 -13 7 C-12.55914062 6.50628906 -12.11828125 6.01257813 -11.6640625 5.50390625 C-9.59427252 3.63332141 -8.10324623 3.39516997 -5.375 2.9375 C-3.02139184 2.57664018 -3.02139184 2.57664018 -1 2 C-0.67 1.34 -0.34 0.68 0 0 Z " fill="#333333" transform="translate(105,23)"/>
<path d="M0 0 C0.33 0 0.66 0 1 0 C1.06058594 0.71027344 1.12117188 1.42054687 1.18359375 2.15234375 C1.26738281 3.07144531 1.35117188 3.99054687 1.4375 4.9375 C1.51871094 5.85402344 1.59992188 6.77054688 1.68359375 7.71484375 C1.76044976 9.96159732 1.76044976 9.96159732 3 11 C3.99 10.01 4.98 9.02 6 8 C6.99 8.66 7.98 9.32 9 10 C8.67 12.31 8.34 14.62 8 17 C8.66 17.33 9.32 17.66 10 18 C9.34 18 8.68 18 8 18 C7.67 19.65 7.34 21.3 7 23 C0.03571429 25.27678571 0.03571429 25.27678571 -4 24 C-3.31934493 15.77840328 -3.31934493 15.77840328 -2 12.5625 C-0.42309321 8.52167635 -0.31732793 4.30062849 0 0 Z " fill="#393939" transform="translate(121,45)"/>
<path d="M0 0 C0.804375 0.721875 1.60875 1.44375 2.4375 2.1875 C4.08571244 3.21763277 5.75253702 4.21864628 7.4375 5.1875 C8.7059375 5.991875 8.7059375 5.991875 10 6.8125 C12.30396115 8.2787006 12.30396115 8.2787006 14.625 8.625 C15.223125 8.810625 15.82125 8.99625 16.4375 9.1875 C16.72625 9.785625 17.015 10.38375 17.3125 11 C18.94721485 14.17861221 21.43904226 15.3284562 24.4375 17.1875 C26.8125 18.8125 26.8125 18.8125 28.4375 20.1875 C28.4375 20.8475 28.4375 21.5075 28.4375 22.1875 C24.58232731 20.7957409 21.44230718 18.99750827 18.0625 16.6875 C17.02738281 15.98496094 15.99226563 15.28242188 14.92578125 14.55859375 C14.09167725 13.98987549 14.09167725 13.98987549 13.24072266 13.40966797 C11.28676807 12.08533861 9.3225407 10.77741752 7.35546875 9.47265625 C6.67339355 9.02019531 5.99131836 8.56773438 5.28857422 8.1015625 C3.94276745 7.20930067 2.59674313 6.31736688 1.25048828 5.42578125 C-3.45136673 2.29863327 -3.45136673 2.29863327 -4.5625 1.1875 C-12.56953903 0.001272 -17.2088633 3.60914414 -23.5625 8.1875 C-23.5625 7.1975 -23.5625 6.2075 -23.5625 5.1875 C-17.60676844 -0.2719206 -7.46969777 -5.28344476 0 0 Z " fill="#C9C9C9" transform="translate(109.5625,9.8125)"/>
<path d="M0 0 C-0.00523682 0.62044189 -0.01047363 1.24088379 -0.01586914 1.88012695 C-0.03665466 4.69090767 -0.04966517 7.50167221 -0.0625 10.3125 C-0.07087891 11.28896484 -0.07925781 12.26542969 -0.08789062 13.27148438 C-0.09111328 14.20927734 -0.09433594 15.14707031 -0.09765625 16.11328125 C-0.10289307 16.97735596 -0.10812988 17.84143066 -0.11352539 18.73168945 C-0.09335523 21.16728714 -0.09335523 21.16728714 1 24 C-0.32 24.33 -1.64 24.66 -3 25 C-3.33 26.32 -3.66 27.64 -4 29 C-4.66 28.835 -5.32 28.67 -6 28.5 C-9.78828501 27.86861917 -13.15611987 27.81095672 -17 28 C-17.66 28.66 -18.32 29.32 -19 30 C-19 27.69 -19 25.38 -19 23 C-18.29875 23.33 -17.5975 23.66 -16.875 24 C-13.57102153 25.1492099 -11.47096888 25.50618296 -8 25 C-5.12359384 22.62499209 -5.12359384 22.62499209 -3 20 C-3.66 20 -4.32 20 -5 20 C-5 16 -5 12 -5 8 C-5.66 7.67 -6.32 7.34 -7 7 C-6.67 5.35 -6.34 3.7 -6 2 C-8.97 1.505 -8.97 1.505 -12 1 C-12 0.67 -12 0.34 -12 0 C-10.37585622 -0.19477739 -8.75063577 -0.38059458 -7.125 -0.5625 C-6.22007812 -0.66691406 -5.31515625 -0.77132812 -4.3828125 -0.87890625 C-2 -1 -2 -1 0 0 Z " fill="#414141" transform="translate(148,105)"/>
<path d="M0 0 C3.125 0.1875 3.125 0.1875 6.125 2.1875 C6.88737183 5.23698732 7.06033504 6.27520681 6.125 9.1875 C2.53931616 14.11781528 -1.71240574 18.87337699 -6.875 22.1875 C-9.125 21.875 -9.125 21.875 -10.875 21.1875 C-10.38 19.7025 -10.38 19.7025 -9.875 18.1875 C-8.946875 18.084375 -8.01875 17.98125 -7.0625 17.875 C-3.96813112 17.39164166 -3.96813112 17.39164166 -1.9375 16 C-0.323368 13.24648071 -1.14300261 11.18203478 -1.875 8.1875 C-2.865 8.1875 -3.855 8.1875 -4.875 8.1875 C-4.875 8.8475 -4.875 9.5075 -4.875 10.1875 C-5.865 10.5175 -6.855 10.8475 -7.875 11.1875 C-8.535 10.5275 -9.195 9.8675 -9.875 9.1875 C-9.25625 8.98125 -8.6375 8.775 -8 8.5625 C-5.02732982 6.63900753 -4.79518084 4.51430765 -3.875 1.1875 C-2.875 0.1875 -2.875 0.1875 0 0 Z " fill="#212121" transform="translate(108.875,42.8125)"/>
<path d="M0 0 C0.66 0 1.32 0 2 0 C2.13535156 0.54527344 2.27070312 1.09054688 2.41015625 1.65234375 C4.92974795 10.4784584 10.40453973 16.8042646 17 23 C10.68284595 26.44572039 5.09629025 26.31461385 -2 26 C-2 25.67 -2 25.34 -2 25 C1.465 24.505 1.465 24.505 5 24 C5.77802187 21.6984589 5.77802187 21.6984589 6 19 C4.6083124 16.86655232 4.6083124 16.86655232 3 15 C3 12 3 12 4 10 C2.68 10 1.36 10 0 10 C0 6.7 0 3.4 0 0 Z " fill="#262626" transform="translate(77,46)"/>
<path d="M0 0 C0.28571429 7.42857143 0.28571429 7.42857143 -2 11 C-3.99954746 11.04254356 -6.00041636 11.04080783 -8 11 C-8.33 10.67 -8.66 10.34 -9 10 C-9.99 10.33 -10.98 10.66 -12 11 C-16.23683074 11.27334392 -19.03049641 11.36356384 -23 9.875 C-25 8 -25 8 -25.3125 4.8125 C-25.209375 3.884375 -25.10625 2.95625 -25 2 C-24.67 2.66 -24.34 3.32 -24 4 C-19.61797527 6.46488891 -14.88655571 6.94578498 -10 6 C-7.39175958 4.62387315 -5.10756934 3.08067701 -2.75 1.3125 C-1 0 -1 0 0 0 Z " fill="#E7E7E7" transform="translate(178,124)"/>
<path d="M0 0 C0.33 1.32 0.66 2.64 1 4 C2.32 4.33 3.64 4.66 5 5 C5 5.33 5 5.66 5 6 C5.66 6 6.32 6 7 6 C7 5.34 7 4.68 7 4 C7.99 3.67 8.98 3.34 10 3 C11.42944945 5.35438733 12.08661261 6.48032433 11.625 9.25 C11.315625 10.11625 11.315625 10.11625 11 11 C5.3987697 12.86707677 2.20111926 13.24487971 -3.25 11.125 C-5 10 -5 10 -6 7 C-4.75 3.875 -4.75 3.875 -3 1 C-2.01 0.67 -1.02 0.34 0 0 Z " fill="#313131" transform="translate(97,47)"/>
<path d="M0 0 C0.33 0.99 0.66 1.98 1 3 C2.175625 2.9071875 2.175625 2.9071875 3.375 2.8125 C4.674375 2.9053125 4.674375 2.9053125 6 3 C6.99 4.485 6.99 4.485 8 6 C7.67 6.33 7.34 6.66 7 7 C8.32 7.66 9.64 8.32 11 9 C7.04 9 3.08 9 -1 9 C-1.33 10.65 -1.66 12.3 -2 14 C-4.31 14 -6.62 14 -9 14 C-8.01923077 5.5 -8.01923077 5.5 -6 3 C-2.875 2.25 -2.875 2.25 0 2 C0 1.34 0 0.68 0 0 Z " fill="#343434" transform="translate(35,117)"/>
<path d="M0 0 C2 2 2 2 2.3125 5.4375 C2 9 2 9 0.875 11 C-2.01807013 12.54297074 -3.93640275 11.91256088 -7 11 C-9.31361802 7.52957297 -9.51020728 6.08165827 -9 2 C-6.12524616 -1.3006433 -4.03854228 -1.38160657 0 0 Z " fill="#C7C7C7" transform="translate(105,113)"/>
<path d="M0 0 C-0.433125 0.8353125 -0.433125 0.8353125 -0.875 1.6875 C-2.0413253 4.08494645 -3.0339881 6.51596939 -4 9 C-4.66 9 -5.32 9 -6 9 C-6.0867982 12.79152334 -6.14032207 16.58279296 -6.1875 20.375 C-6.21263672 21.45523438 -6.23777344 22.53546875 -6.26367188 23.6484375 C-6.27333984 24.6796875 -6.28300781 25.7109375 -6.29296875 26.7734375 C-6.31653442 28.20308838 -6.31653442 28.20308838 -6.34057617 29.66162109 C-6.22818604 30.43328613 -6.1157959 31.20495117 -6 32 C-5.01 32.66 -4.02 33.32 -3 34 C-4.66611905 34.042721 -6.33382885 34.04063832 -8 34 C-10.62834435 31.37165565 -9.36282324 24.3688859 -9.4050293 20.80908203 C-9.42656757 19.44326426 -9.46062289 18.07758299 -9.50756836 16.71240234 C-9.89088924 5.4637762 -9.89088924 5.4637762 -7.73876953 1.92773438 C-4.90042248 -0.61123861 -3.65999994 -1.21999998 0 0 Z " fill="#272727" transform="translate(76,38)"/>
<path d="M0 0 C2.4375 0.75 2.4375 0.75 4.4375 2.75 C4.99166667 8.84583333 4.99166667 8.84583333 3.25 11.6875 C0.74969126 13.15319823 -0.71380656 13.24852135 -3.5625 12.75 C-5.4375 11.1875 -5.4375 11.1875 -6.5625 8.75 C-6.4375 5.125 -6.4375 5.125 -5.5625 1.75 C-2.5625 -0.25 -2.5625 -0.25 0 0 Z " fill="#CACACA" transform="translate(135.5625,112.25)"/>
<path d="M0 0 C2.4375 0.75 2.4375 0.75 4.4375 2.75 C4.99166667 8.84583333 4.99166667 8.84583333 3.25 11.6875 C0.74969126 13.15319823 -0.71380656 13.24852135 -3.5625 12.75 C-5.4375 11.1875 -5.4375 11.1875 -6.5625 8.75 C-6.4375 5.125 -6.4375 5.125 -5.5625 1.75 C-2.5625 -0.25 -2.5625 -0.25 0 0 Z " fill="#C9C9C9" transform="translate(71.5625,112.25)"/>
<path d="M0 0 C0.33 0 0.66 0 1 0 C1 7.59 1 15.18 1 23 C0.67 22.01 0.34 21.02 0 20 C-0.66 21.32 -1.32 22.64 -2 24 C-3.32 23.34 -4.64 22.68 -6 22 C-5.67 21.67 -5.34 21.34 -5 21 C-4.73860001 18.83909342 -4.54013809 16.67038629 -4.375 14.5 C-4.27960938 13.3140625 -4.18421875 12.128125 -4.0859375 10.90625 C-4.05757813 9.9471875 -4.02921875 8.988125 -4 8 C-4.33 7.67 -4.66 7.34 -5 7 C-5.04063832 5.33382885 -5.042721 3.66611905 -5 2 C-4.360625 1.855625 -3.72125 1.71125 -3.0625 1.5625 C-1.02454854 1.18992819 -1.02454854 1.18992819 0 0 Z " fill="#2B2B2B" transform="translate(82,114)"/>
<path d="M0 0 C4.04152406 0.23316485 6.33802764 0.4228959 9.4375 3.125 C11 6 11 6 11 13 C6.05 13 1.1 13 -4 13 C-4.33 12.01 -4.66 11.02 -5 10 C-2.03 10 0.94 10 4 10 C3.67 9.01 3.34 8.02 3 7 C1.12612784 6.19787372 1.12612784 6.19787372 -1.0625 5.8125 C-1.79597656 5.65394531 -2.52945313 5.49539062 -3.28515625 5.33203125 C-3.85105469 5.22246094 -4.41695312 5.11289063 -5 5 C-4.67 4.34 -4.34 3.68 -4 3 C-0.66666667 3 2.66666667 3 6 3 C4.02 2.34 2.04 1.68 0 1 C0 0.67 0 0.34 0 0 Z " fill="#313131" transform="translate(164,107)"/>
<path d="M0 0 C5.61 0.33 11.22 0.66 17 1 C17 1.33 17 1.66 17 2 C14.69 2.66 12.38 3.32 10 4 C10 3.34 10 2.68 10 2 C7.69 2 5.38 2 3 2 C3 13.55 3 25.1 3 37 C5.31 37 7.62 37 10 37 C10.33 36.34 10.66 35.68 11 35 C11.33 35.99 11.66 36.98 12 38 C6.555 38.495 6.555 38.495 1 39 C0.67 26.13 0.34 13.26 0 0 Z " fill="#CCCCCC" transform="translate(119,105)"/>
<path d="M0 0 C-1.875 3.875 -1.875 3.875 -3 5 C-3.12196338 7.10962669 -3.17976844 9.22301811 -3.2109375 11.3359375 C-3.23929688 12.62757812 -3.26765625 13.91921875 -3.296875 15.25 C-3.33813143 17.31282147 -3.37500521 19.37540794 -3.40136719 21.43847656 C-3.42897594 23.42535506 -3.47595138 25.41193468 -3.5234375 27.3984375 C-3.54325684 28.59130371 -3.56307617 29.78416992 -3.58349609 31.01318359 C-4 34 -4 34 -5.52978516 35.91259766 C-6.01495605 36.27144043 -6.50012695 36.6302832 -7 37 C-7.1237709 32.3736342 -7.21441516 27.74823539 -7.2746582 23.12060547 C-7.29977448 21.54719249 -7.33387472 19.97389588 -7.37719727 18.40087891 C-7.43798399 16.13675228 -7.46623582 13.87416978 -7.48828125 11.609375 C-7.51408768 10.90818542 -7.5398941 10.20699585 -7.56648254 9.48455811 C-7.56864738 5.69903708 -7.27604276 4.28408338 -4.59448242 1.52441406 C-2 0 -2 0 0 0 Z " fill="#030303" transform="translate(65,34)"/>
<path d="M0 0 C0 0.99 0 1.98 0 3 C-0.61488281 3.31453125 -1.22976562 3.6290625 -1.86328125 3.953125 C-2.67152344 4.38109375 -3.47976562 4.8090625 -4.3125 5.25 C-5.11300781 5.66765625 -5.91351563 6.0853125 -6.73828125 6.515625 C-11.18123545 9.43155349 -12.52783094 13.01727396 -14 18 C-14.66 18 -15.32 18 -16 18 C-16.33 22.95 -16.66 27.9 -17 33 C-17.33 33 -17.66 33 -18 33 C-18.79085407 12.83322125 -18.79085407 12.83322125 -14 5 C-13.34 4.34 -12.68 3.68 -12 3 C-10.906875 3.020625 -9.81375 3.04125 -8.6875 3.0625 C-4.73569971 2.99552033 -3.1394159 2.28321156 0 0 Z " fill="#FAFAFA" transform="translate(71,22)"/>
<path d="M0 0 C-4.59163004 3.81458496 -9.48476739 7.02964998 -14.47265625 10.2890625 C-18.93171454 13.22573524 -23.20985106 16.20985106 -27 20 C-26.4916752 15.55215797 -25.16430777 13.16430777 -22 10 C-20.00161329 8.92078911 -17.96501286 7.9840672 -15.8984375 7.04296875 C-13.21137209 5.56674146 -11.74105615 3.47765683 -10 1 C-6.78548731 -0.60725635 -3.56387464 -0.05748185 0 0 Z " fill="#E2E2E2" transform="translate(85,18)"/>
<path d="M0 0 C1.2209436 0.00398804 1.2209436 0.00398804 2.46655273 0.00805664 C17.43892121 0.12642121 17.43892121 0.12642121 19.4375 2.125 C19.57865161 4.79558851 19.47997107 7.44932238 19.4375 10.125 C19.1075 10.125 18.7775 10.125 18.4375 10.125 C18.1075 8.475 17.7775 6.825 17.4375 5.125 C16.839375 5.351875 16.24125 5.57875 15.625 5.8125 C14.903125 5.915625 14.18125 6.01875 13.4375 6.125 C13.02886719 5.64417969 12.62023437 5.16335937 12.19921875 4.66796875 C9.58672266 2.37986242 7.47648395 2.72656304 4.0625 2.75 C2.94101563 2.74226563 1.81953125 2.73453125 0.6640625 2.7265625 C-3.85011923 3.28400383 -6.48984604 4.83041763 -9.375 8.3125 C-9.9628125 9.2096875 -9.9628125 9.2096875 -10.5625 10.125 C-10.5625 7.155 -10.5625 4.185 -10.5625 1.125 C-7.26756055 -0.52246973 -3.61847491 -0.02062737 0 0 Z " fill="#F8F8F8" transform="translate(161.5625,103.875)"/>
<path d="M0 0 C0.33 0.66 0.66 1.32 1 2 C1.804375 2.144375 2.60875 2.28875 3.4375 2.4375 C6 3 6 3 8 6 C10.93597539 6.38384509 13.68027373 6.603843 16.625 6.6875 C17.82769531 6.73874023 17.82769531 6.73874023 19.0546875 6.79101562 C21.03596318 6.87356878 23.01796037 6.93845916 25 7 C25 7.33 25 7.66 25 8 C14.11 8.495 14.11 8.495 3 9 C3.99 11.97 4.98 14.94 6 18 C6.1875 21.5625 6.1875 21.5625 6 24 C5.67 24 5.34 24 5 24 C4.67 22.35 4.34 20.7 4 19 C3.01 19 2.02 19 1 19 C0.67 16.36 0.34 13.72 0 11 C0.66 12.32 1.32 13.64 2 15 C2 14.34 2 13.68 2 13 C2 11.68 2 10.36 2 9 C1.34 9 0.68 9 0 9 C0 6.03 0 3.06 0 0 Z M1 3 C2 7 2 7 2 7 Z " fill="#F5F5F5" transform="translate(51,98)"/>
<path d="M0 0 C2.23127725 3.34691588 3.38532762 6.71611628 4.625 10.5 C4.85445312 11.17675781 5.08390625 11.85351562 5.3203125 12.55078125 C6.29296917 15.48612014 7 17.88708081 7 21 C4.69 21 2.38 21 0 21 C0 18.66666667 0 16.33333333 0 14 C-0.99 14 -1.98 14 -3 14 C-2.45276317 10.62537285 -1.9451 8.91765 0 6 C0.16699232 2.87478167 0.16699232 2.87478167 0 0 Z " fill="#303030" transform="translate(48,110)"/>
<path d="M0 0 C0.66 0 1.32 0 2 0 C2.33 2.97 2.66 5.94 3 9 C3.99 9.33 4.98 9.66 6 10 C6.33 10.66 6.66 11.32 7 12 C10.46712111 13.15570704 13.5414956 13.32835293 17.1875 13.5625 C19.09595703 13.68818359 19.09595703 13.68818359 21.04296875 13.81640625 C22.01878906 13.87699219 22.99460937 13.93757812 24 14 C20.02734436 16.74378083 16.02726088 16.11848406 11.4375 15.8125 C10.66986328 15.78091797 9.90222656 15.74933594 9.11132812 15.71679688 C3.56647336 15.38323543 3.56647336 15.38323543 1.01953125 13.66015625 C-1.176664 10.08397625 -1.16452902 6.10469484 -0.5625 2.0625 C-0.376875 1.381875 -0.19125 0.70125 0 0 Z " fill="#F9F9F9" transform="translate(56,133)"/>
<path d="M0 0 C3.91304348 5.2173913 3.91304348 5.2173913 4 8 C2.68 9.32 1.36 10.64 0 12 C0 8.04 0 4.08 0 0 Z M6 -5 C6.33 -5 6.66 -5 7 -5 C7.02887236 -1.18751574 7.04675492 2.6249407 7.0625 6.4375 C7.07087891 7.52611328 7.07925781 8.61472656 7.08789062 9.73632812 C7.09111328 10.77080078 7.09433594 11.80527344 7.09765625 12.87109375 C7.10289307 13.82943115 7.10812988 14.78776855 7.11352539 15.77514648 C7 18 7 18 6 19 C3.66702567 19.04092937 1.33294775 19.04241723 -1 19 C-1.33 18.34 -1.66 17.68 -2 17 C-2.66 17.33 -3.32 17.66 -4 18 C-4.66 17.67 -5.32 17.34 -6 17 C-6 16.34 -6 15.68 -6 15 C-4.68 14.67 -3.36 14.34 -2 14 C-2.33 13.01 -2.66 12.02 -3 11 C-2.34 10.67 -1.68 10.34 -1 10 C-0.38125 11.4540625 -0.38125 11.4540625 0.25 12.9375 C1.11625 14.4534375 1.11625 14.4534375 2 16 C3.32 16.33 4.64 16.66 6 17 C6 9.74 6 2.48 6 -5 Z " fill="#494949" transform="translate(108,112)"/>
<path d="M0 0 C-0.99 0.33 -1.98 0.66 -3 1 C-3.35412344 2.32796291 -3.68521554 3.66216607 -4 5 C-5.4375 6.75 -5.4375 6.75 -7 8 C-7.66 8 -8.32 8 -9 8 C-9 10.31 -9 12.62 -9 15 C-9.99 15.495 -9.99 15.495 -11 16 C-11.33 15.01 -11.66 14.02 -12 13 C-12.66 14.32 -13.32 15.64 -14 17 C-14.05447047 15.58376784 -14.09300508 14.16691809 -14.125 12.75 C-14.14820312 11.96109375 -14.17140625 11.1721875 -14.1953125 10.359375 C-13.9828378 7.79268059 -13.28654105 6.2083933 -12 4 C-11.34 4 -10.68 4 -10 4 C-10 3.34 -10 2.68 -10 2 C-6.5980513 -0.09350689 -3.94727588 -0.17942163 0 0 Z " fill="#323232" transform="translate(103,106)"/>
<path d="M0 0 C0.804375 0.7425 0.804375 0.7425 1.625 1.5 C4.59358445 3.37489544 6.55312427 3.23501425 10 3 C10 3.66 10 4.32 10 5 C8.68 5.33 7.36 5.66 6 6 C6 6.66 6 7.32 6 8 C6.66 8.33 7.32 8.66 8 9 C7 10 7 10 3.75 10.3125 C-0.56902671 9.95258111 -2.02034973 9.06728704 -5 6 C-5.33 5.01 -5.66 4.02 -6 3 C-4.02 2.67 -2.04 2.34 0 2 C0 1.34 0 0.68 0 0 Z " fill="#2F2F2F" transform="translate(96,121)"/>
<path d="M0 0 C4.62 0 9.24 0 14 0 C14.66 5.94 15.32 11.88 16 18 C16.66 18 17.32 18 18 18 C18.33 21.63 18.66 25.26 19 29 C16.61566108 26.61566108 16.10987297 24.81726333 15.0546875 21.625 C14.70019531 20.55765625 14.34570312 19.4903125 13.98046875 18.390625 C13.43326172 16.71226563 13.43326172 16.71226563 12.875 15 C12.50246094 13.88109375 12.12992188 12.7621875 11.74609375 11.609375 C9 3.28056319 9 3.28056319 9 1 C6.03 1 3.06 1 0 1 C0 0.67 0 0.34 0 0 Z " fill="#CECECE" transform="translate(36,99)"/>
<path d="M0 0 C0.66 0.33 1.32 0.66 2 1 C0.68 5.29 -0.64 9.58 -2 14 C0.31 14 2.62 14 5 14 C5 14.33 5 14.66 5 15 C2.36 15 -0.28 15 -3 15 C-3.35050464 9.158256 -3.16727335 5.1468192 0 0 Z M6 9 C10.29 9 14.58 9 19 9 C19.33 10.65 19.66 12.3 20 14 C19.01 14 18.02 14 17 14 C17 13.34 17 12.68 17 12 C10.68731397 11.62447835 10.68731397 11.62447835 5 14 C5.33 12.35 5.66 10.7 6 9 Z " fill="#CBCBCB" transform="translate(28,117)"/>
<path d="M0 0 C2.31 0 4.62 0 7 0 C7 8.91 7 17.82 7 27 C6.67 27 6.34 27 6 27 C5.67 20.73 5.34 14.46 5 8 C4.01 8.66 3.02 9.32 2 10 C1.34 9.34 0.68 8.68 0 8 C0.66 7.34 1.32 6.68 2 6 C0.68 4.68 -0.64 3.36 -2 2 C-1.34 2 -0.68 2 0 2 C0 1.34 0 0.68 0 0 Z " fill="#4B4B4B" transform="translate(77,107)"/>
<path d="M0 0 C2.31 0.33 4.62 0.66 7 1 C7 1.33 7 1.66 7 2 C10.63 2.33 14.26 2.66 18 3 C18 3.33 18 3.66 18 4 C12.72 4 7.44 4 2 4 C2.66 5.32 3.32 6.64 4 8 C3.01 8.33 2.02 8.66 1 9 C0.67 9.66 0.34 10.32 0 11 C-0.99 11 -1.98 11 -3 11 C-3.66 8.69 -4.32 6.38 -5 4 C-4.0409375 3.8453125 -4.0409375 3.8453125 -3.0625 3.6875 C-2.381875 3.460625 -1.70125 3.23375 -1 3 C-0.67 2.01 -0.34 1.02 0 0 Z " fill="#3C3C3C" transform="translate(157,117)"/>
<path d="M0 0 C0.33 0.66 0.66 1.32 1 2 C1.99 2 2.98 2 4 2 C4 2.99 4 3.98 4 5 C4.66 3.68 5.32 2.36 6 1 C6 5.62 6 10.24 6 15 C4.02 15 2.04 15 0 15 C0 10.05 0 5.1 0 0 Z " fill="#484848" transform="translate(123,127)"/>
<path d="M0 0 C0.33 0 0.66 0 1 0 C1.10792837 2.60527105 1.18724878 5.20608311 1.25 7.8125 C1.30027344 8.91948242 1.30027344 8.91948242 1.3515625 10.04882812 C1.4088578 13.21439355 1.44540967 15.40221333 -0.484375 17.9921875 C-4.13294965 19.45388356 -7.63527621 19.39451876 -11.5 19.3125 C-12.63888672 19.31733398 -12.63888672 19.31733398 -13.80078125 19.32226562 C-17.65885498 19.28510379 -20.7347287 19.17974228 -24 17 C-20.44522847 15.22261424 -16.04380556 16.00829159 -12.1171875 16.12695312 C-11.42367187 16.13791016 -10.73015625 16.14886719 -10.015625 16.16015625 C-9.38946289 16.17699463 -8.76330078 16.19383301 -8.11816406 16.21118164 C-5.28767919 16.00761561 -5.28767919 16.00761561 0 14 C0 9.38 0 4.76 0 0 Z " fill="#F3F3F3" transform="translate(86,128)"/>
<path d="M0 0 C0 1.65 0 3.3 0 5 C0.99 5.33 1.98 5.66 3 6 C2.1875 8.9375 2.1875 8.9375 1 12 C0.01 12.33 -0.98 12.66 -2 13 C-1.979375 12.0925 -1.95875 11.185 -1.9375 10.25 C-1.9889755 7.57327412 -2.2215017 5.53011948 -3 3 C-5.64 3 -8.28 3 -11 3 C-11 2.01 -11 1.02 -11 0 C-7.01803543 -1.05404945 -4.01804691 -0.84098656 0 0 Z " fill="#333333" transform="translate(142,107)"/>
<path d="M0 0 C2.45823172 3.68734758 3.01242616 6.69699971 4 11 C7.3 11.33 10.6 11.66 14 12 C14 13.33333333 14 14.66666667 14 16 C9.38 16 4.76 16 0 16 C0 10.66666667 0 5.33333333 0 0 Z " fill="#323232" transform="translate(69,57)"/>
<path d="M0 0 C3.125 0.1875 3.125 0.1875 6.125 2.1875 C6.3125 4.8125 6.3125 4.8125 6.125 7.1875 C5.795 6.5275 5.465 5.8675 5.125 5.1875 C2.815 5.5175 0.505 5.8475 -1.875 6.1875 C-1.545 8.1675 -1.215 10.1475 -0.875 12.1875 C-2.9375 10.625 -2.9375 10.625 -4.875 8.1875 C-4.47352126 0.29175139 -4.47352126 0.29175139 0 0 Z " fill="#1C1C1C" transform="translate(90.875,42.8125)"/>
<path d="M0 0 C-0.804375 0.763125 -1.60875 1.52625 -2.4375 2.3125 C-6.41307231 6.48200267 -6.11355587 9.62241028 -6.0625 15.1875 C-6.05347656 16.45980469 -6.04445313 17.73210937 -6.03515625 19.04296875 C-6.02355469 20.01878906 -6.01195312 20.99460937 -6 22 C-8.13922206 18.7911669 -8.49973305 16.94716153 -9.0625 13.1875 C-9.21847656 12.17042969 -9.37445313 11.15335938 -9.53515625 10.10546875 C-9.68855469 9.08066406 -9.84195313 8.05585937 -10 7 C-10.32996523 4.99944156 -10.66230595 2.99926833 -11 1 C-7.26562152 0.12132271 -3.83225427 -0.08912219 0 0 Z " fill="#D6D6D6" transform="translate(65,106)"/>
<path d="M0 0 C1.17755859 0.09667969 1.17755859 0.09667969 2.37890625 0.1953125 C4.4375 0.875 4.4375 0.875 5.77734375 2.7421875 C6.4375 4.875 6.4375 4.875 5.4375 7.875 C4.880625 7.194375 4.32375 6.51375 3.75 5.8125 C2.986875 5.173125 2.22375 4.53375 1.4375 3.875 C-1.26955512 4.01525199 -1.26955512 4.01525199 -3.5625 4.875 C-4.2225 7.515 -4.8825 10.155 -5.5625 12.875 C-7.0625 11.6875 -7.0625 11.6875 -8.5625 9.875 C-8.87491431 6.75085686 -8.56308075 4.87674224 -7.5625 1.875 C-4.31530737 -0.28979509 -3.68455971 -0.37634712 0 0 Z " fill="#2E2E2E" transform="translate(134.5625,109.125)"/>
<path d="M0 0 C0.99 1.32 1.98 2.64 3 4 C2.360625 4.2475 1.72125 4.495 1.0625 4.75 C-1.18741541 5.81562433 -1.18741541 5.81562433 -1.75 8.125 C-1.8325 8.74375 -1.915 9.3625 -2 10 C-2.66 9.835 -3.32 9.67 -4 9.5 C-7.78828501 8.86861917 -11.15611987 8.81095672 -15 9 C-15.66 9.66 -16.32 10.32 -17 11 C-17 8.69 -17 6.38 -17 4 C-15.948125 4.495 -15.948125 4.495 -14.875 5 C-11.60087325 6.13882669 -9.44293875 6.43036734 -6 6 C-3.30009338 4.20006226 -1.4581135 2.916227 0 0 Z " fill="#D0D0D0" transform="translate(146,124)"/>
<path d="M0 0 C2.97 0 5.94 0 9 0 C11.21538462 5.29230769 11.21538462 5.29230769 10.125 8.875 C9.75375 9.57625 9.3825 10.2775 9 11 C7.68 11 6.36 11 5 11 C3.875 7.25 3.875 7.25 5 5 C5.99 5 6.98 5 8 5 C4.535 3.02 4.535 3.02 1 1 C0.67 1.66 0.34 2.32 0 3 C0 2.01 0 1.02 0 0 Z " fill="#2F2F2F" transform="translate(36,100)"/>
<path d="M0 0 C1.29608947 0.93137592 2.58671632 1.8703566 3.875 2.8125 C4.95394531 3.59560547 4.95394531 3.59560547 6.0546875 4.39453125 C8 6 8 6 10 9 C3.68284595 12.44572039 -1.90370975 12.31461385 -9 12 C-9 11.67 -9 11.34 -9 11 C-7.865625 10.855625 -6.73125 10.71125 -5.5625 10.5625 C-2.19222799 10.38828522 -2.19222799 10.38828522 -1 9 C0.99958364 8.95919217 3.00045254 8.95745644 5 9 C5 8.34 5 7.68 5 7 C4.01 6.67 3.02 6.34 2 6 C0.8125 2.9375 0.8125 2.9375 0 0 Z " fill="#151515" transform="translate(84,60)"/>
<path d="M0 0 C3.375 -0.125 3.375 -0.125 7 0 C7.66 0.66 8.32 1.32 9 2 C10.98821313 2.39764263 12.98944339 2.73775349 15 3 C12 5 12 5 9 6 C8.34 5.67 7.68 5.34 7 5 C6.67 5.66 6.34 6.32 6 7 C4.125 6.6875 4.125 6.6875 2 6 C0 3 0 3 0 0 Z " fill="#121212" transform="translate(59,134)"/>
<path d="M0 0 C0.598125 0.78375 1.19625 1.5675 1.8125 2.375 C3.91085249 5.14574323 3.91085249 5.14574323 7 7 C9.28648848 7.24107326 9.28648848 7.24107326 11.6875 7.125 C12.49574219 7.10695312 13.30398437 7.08890625 14.13671875 7.0703125 C14.75160156 7.04710937 15.36648437 7.02390625 16 7 C15.67 7.99 15.34 8.98 15 10 C13.04310341 10.22142255 11.08438048 10.4267568 9.125 10.625 C7.48917969 10.79902344 7.48917969 10.79902344 5.8203125 10.9765625 C4.42425781 10.98816406 4.42425781 10.98816406 3 11 C0.60236815 8.60236815 0.65719414 7.66726502 0.375 4.375 C0.30023438 3.55773437 0.22546875 2.74046875 0.1484375 1.8984375 C0.09945312 1.27195312 0.05046875 0.64546875 0 0 Z " fill="#D0D0D0" transform="translate(89,123)"/>
<path d="M0 0 C0.66 0.66 1.32 1.32 2 2 C3.32 2 4.64 2 6 2 C6 2.66 6 3.32 6 4 C6.99 4.33 7.98 4.66 9 5 C7.329375 5.4021875 7.329375 5.4021875 5.625 5.8125 C1.78159049 6.65809019 1.78159049 6.65809019 0 10 C-1.5 8.625 -1.5 8.625 -3 7 C-3 6.34 -3 5.68 -3 5 C-3.66 4.34 -4.32 3.68 -5 3 C-2.25 0 -2.25 0 0 0 Z " fill="#252525" transform="translate(65,107)"/>
<path d="M0 0 C1.65 0 3.3 0 5 0 C4.01 0.495 4.01 0.495 3 1 C3.66 1.66 4.32 2.32 5 3 C5.33 3 5.66 3 6 3 C6 5.31 6 7.62 6 10 C3.525 9.01 3.525 9.01 1 8 C0.34 8.66 -0.32 9.32 -1 10 C-1.125 3.375 -1.125 3.375 0 0 Z " fill="#1B1B1B" transform="translate(59,111)"/>
<path d="M0 0 C0.33 0 0.66 0 1 0 C1 7.26 1 14.52 1 22 C-0.65 22 -2.3 22 -4 22 C-4.33 20.35 -4.66 18.7 -5 17 C-4.35546875 16.82726562 -3.7109375 16.65453125 -3.046875 16.4765625 C-0.59554118 15.07017372 -0.59554118 15.07017372 -0.390625 11.5234375 C-0.32418219 10.141427 -0.2780748 8.7583219 -0.25 7.375 C-0.22035156 6.66859375 -0.19070312 5.9621875 -0.16015625 5.234375 C-0.08944643 3.49019953 -0.04245965 1.74509173 0 0 Z " fill="#323232" transform="translate(113,107)"/>
<path d="M0 0 C2.3129482 2.3129482 2.49580975 3.47904875 3.125 6.625 C3.29257812 7.44226563 3.46015625 8.25953125 3.6328125 9.1015625 C3.81457031 10.04128906 3.81457031 10.04128906 4 11 C1.69 11 -0.62 11 -3 11 C-2.53199289 6.94393835 -2.12046792 3.53411321 0 0 Z " fill="#C4C4C4" transform="translate(40,109)"/>
<path d="M0 0 C1.67578125 1.515625 1.67578125 1.515625 3 3 C2.18917969 2.91878906 1.37835938 2.83757813 0.54296875 2.75390625 C-8.64978906 2.22952309 -13.80894393 4.35091387 -21 10 C-21 9.01 -21 8.02 -21 7 C-14.81782427 1.33300558 -8.41812164 -0.74827748 0 0 Z " fill="#DBDBDB" transform="translate(107,8)"/>
<path d="M0 0 C0.66 0.99 1.32 1.98 2 3 C1.01 3.33 0.02 3.66 -1 4 C-0.67 5.32 -0.34 6.64 0 8 C-0.33 8 -0.66 8 -1 8 C-1.33 9.65 -1.66 11.3 -2 13 C-2.66 13 -3.32 13 -4 13 C-4.96070434 10.11788698 -5.10581883 8.30149956 -5.0625 5.3125 C-5.05347656 4.50425781 -5.04445313 3.69601563 -5.03515625 2.86328125 C-5.02355469 2.24839844 -5.01195313 1.63351563 -5 1 C-3.35 0.67 -1.7 0.34 0 0 Z " fill="#404040" transform="translate(128,107)"/>
<path d="M0 0 C0.66 0.33 1.32 0.66 2 1 C1.875 2.75 1.875 2.75 1 5 C-2.61864214 7.87846534 -5.47846551 9.26677819 -10 10 C-10.99 10.66 -11.98 11.32 -13 12 C-11.47236536 7.91403748 -8.88915809 6.20173821 -5.375 3.75 C-4.37210938 3.04359375 -3.36921875 2.3371875 -2.3359375 1.609375 C-1.56507812 1.07828125 -0.79421875 0.5471875 0 0 Z " fill="#1A1A1A" transform="translate(72,26)"/>
<path d="M0 0 C6.75 0.875 6.75 0.875 9 2 C9 2.66 9 3.32 9 4 C8.01 4 7.02 4 6 4 C5.67 5.65 5.34 7.3 5 9 C2.5625 8.3125 2.5625 8.3125 0 7 C-0.875 4.5 -0.875 4.5 -1 2 C-0.67 1.34 -0.34 0.68 0 0 Z " fill="#3E3E3E" transform="translate(35,101)"/>
<path d="M0 0 C0.33 0.66 0.66 1.32 1 2 C5.41936373 4.34778698 10.09879061 4.59423539 15 5 C15 5.66 15 6.32 15 7 C12.68756208 7.02685412 10.3750373 7.04632841 8.0625 7.0625 C6.77472656 7.07410156 5.48695313 7.08570313 4.16015625 7.09765625 C1 7 1 7 0 6 C-0.04080783 4.00041636 -0.04254356 1.99954746 0 0 Z " fill="#DADADA" transform="translate(153,126)"/>
<path d="M0 0 C1.32 0.99 2.64 1.98 4 3 C2 6 2 6 -0.625 6.6875 C-1.40875 6.790625 -2.1925 6.89375 -3 7 C-3 7.66 -3 8.32 -3 9 C-9.625 8.25 -9.625 8.25 -13 6 C-9 6 -9 6 -6.5 6.375 C-3.63290364 6.24004808 -3.63290364 6.24004808 -1.6875 3 C-1.130625 2.01 -0.57375 1.02 0 0 Z " fill="#232323" transform="translate(141,118)"/>
<path d="M0 0 C0.33 0.66 0.66 1.32 1 2 C0.38511719 2.12117188 -0.22976562 2.24234375 -0.86328125 2.3671875 C-1.67152344 2.53476562 -2.47976562 2.70234375 -3.3125 2.875 C-4.11300781 3.03742187 -4.91351563 3.19984375 -5.73828125 3.3671875 C-8.25301118 3.94478999 -8.25301118 3.94478999 -11 6 C-14.36300742 5.68471805 -15.73912802 4.38290768 -18 2 C-17.3709375 1.93941406 -16.741875 1.87882812 -16.09375 1.81640625 C-10.71676663 1.29004493 -5.35784473 0.69453543 0 0 Z " fill="#161616" transform="translate(113,34)"/>
<path d="M0 0 C2.9375 1.3125 2.9375 1.3125 6 3 C6.33 3.99 6.66 4.98 7 6 C4.07175348 6.97608217 2.04386724 7.08226668 -1 7 C-1.625 5.1875 -1.625 5.1875 -2 3 C-1.34 2.01 -0.68 1.02 0 0 Z " fill="#202020" transform="translate(60,118)"/>
<path d="M0 0 C0.66 0 1.32 0 2 0 C1.34 3.63 0.68 7.26 0 11 C-1.98 11.33 -3.96 11.66 -6 12 C-6 10.02 -6 8.04 -6 6 C-5.01 6.99 -4.02 7.98 -3 9 C-2.67 6.69 -2.34 4.38 -2 2 C-1.34 2 -0.68 2 0 2 C0 1.34 0 0.68 0 0 Z " fill="#191919" transform="translate(96,112)"/>
<path d="M0 0 C0 0.99 0 1.98 0 3 C-3.52059568 4.17353189 -6.306493 4.20146402 -10 4 C-10.66 3.34 -11.32 2.68 -12 2 C-8.15820154 -2.0018734 -5.05897886 -0.92747946 0 0 Z M-8 0 C-8 0.66 -8 1.32 -8 2 C-6.68 2 -5.36 2 -4 2 C-4 1.34 -4 0.68 -4 0 C-5.32 0 -6.64 0 -8 0 Z " fill="#E8E8E8" transform="translate(45,129)"/>
<path d="M0 0 C1.98 0.99 3.96 1.98 6 3 C6 4.32 6 5.64 6 7 C4.68 7.33 3.36 7.66 2 8 C1.67 9.32 1.34 10.64 1 12 C-0.26237731 9.47524538 -0.09856404 7.68799534 -0.0625 4.875 C-0.05347656 3.96492188 -0.04445312 3.05484375 -0.03515625 2.1171875 C-0.02355469 1.41851562 -0.01195312 0.71984375 0 0 Z " fill="#575757" transform="translate(151,114)"/>
<path d="M0 0 C0.556875 0.185625 1.11375 0.37125 1.6875 0.5625 C4.399133 1.07551165 6.34371039 0.6640724 9 0 C9.33 1.65 9.66 3.3 10 5 C8.741875 5.04125 7.48375 5.0825 6.1875 5.125 C5.47980469 5.14820313 4.77210937 5.17140625 4.04296875 5.1953125 C2 5 2 5 -1 3 C-0.67 2.01 -0.34 1.02 0 0 Z " fill="#212121" transform="translate(65,138)"/>
<path d="M0 0 C-0.33 2.64 -0.66 5.28 -1 8 C-1.45890625 7.59007813 -1.9178125 7.18015625 -2.390625 6.7578125 C-3.31101563 5.94957031 -3.31101563 5.94957031 -4.25 5.125 C-4.85328125 4.59132813 -5.4565625 4.05765625 -6.078125 3.5078125 C-7.97418746 2.0202513 -9.81290005 0.99677564 -12 0 C-10.37585622 -0.19477739 -8.75063577 -0.38059458 -7.125 -0.5625 C-6.22007812 -0.66691406 -5.31515625 -0.77132812 -4.3828125 -0.87890625 C-2 -1 -2 -1 0 0 Z " fill="#DCDCDC" transform="translate(148,105)"/>
<path d="M0 0 C-1.875 3.875 -1.875 3.875 -3 5 C-3.23287008 6.68183948 -3.41264166 8.3712416 -3.5625 10.0625 C-3.68818359 11.44115234 -3.68818359 11.44115234 -3.81640625 12.84765625 C-3.87699219 13.55792969 -3.93757813 14.26820312 -4 15 C-4.66 15 -5.32 15 -6 15 C-5.979375 14.113125 -5.95875 13.22625 -5.9375 12.3125 C-5.99286219 9.37830369 -6.3305734 6.84506304 -7 4 C-2.25 0 -2.25 0 0 0 Z " fill="#0C0C0C" transform="translate(65,34)"/>
<path d="M0 0 C0.33 1.65 0.66 3.3 1 5 C0.071875 4.835 -0.85625 4.67 -1.8125 4.5 C-4.95621353 3.92251612 -4.95621353 3.92251612 -8 4 C-8.66 4 -9.32 4 -10 4 C-10 3.34 -10 2.68 -10 2 C-6.37626474 -0.79545292 -4.37834956 -1.37605272 0 0 Z " fill="#191919" transform="translate(104,21)"/>
<path d="M0 0 C0.33 1.32 0.66 2.64 1 4 C-3.95 4 -8.9 4 -14 4 C-14.33 3.01 -14.66 2.02 -15 1 C-13.06257659 0.97296619 -11.12504521 0.95358875 -9.1875 0.9375 C-8.10855469 0.92589844 -7.02960938 0.91429688 -5.91796875 0.90234375 C-3 1 -3 1 0 2 C0 1.34 0 0.68 0 0 Z " fill="#242424" transform="translate(174,116)"/>
<path d="M0 0 C0.94875 0.350625 1.8975 0.70125 2.875 1.0625 C2.111875 1.64 1.34875 2.2175 0.5625 2.8125 C-1.78700917 4.77953093 -3.41823505 6.54726744 -5.125 9.0625 C-5.125 6.0925 -5.125 3.1225 -5.125 0.0625 C-3.125 -0.9375 -3.125 -0.9375 0 0 Z " fill="#D1D1D1" transform="translate(156.125,104.9375)"/>
<path d="M0 0 C0.33 0.66 0.66 1.32 1 2 C0.67 2.66 0.34 3.32 0 4 C1.32 4 2.64 4 4 4 C3.67 6.31 3.34 8.62 3 11 C1.35 9.68 -0.3 8.36 -2 7 C-1.125 1.125 -1.125 1.125 0 0 Z " fill="#2D2D2D" transform="translate(35,104)"/>
<path d="M0 0 C0 3.69418201 -1.28179295 5.77836178 -3 9 C-4.65 9 -6.3 9 -8 9 C-6.64531705 4.12314139 -4.28324091 2.51407619 0 0 Z " fill="#DBDBDB" transform="translate(145,75)"/>
<path d="M0 0 C0 1.65 0 3.3 0 5 C-0.99 5 -1.98 5 -3 5 C-3 5.99 -3 6.98 -3 8 C-4.98 8 -6.96 8 -9 8 C-9 6 -9 6 -7.5390625 4.4921875 C-6.59160156 3.69167969 -6.59160156 3.69167969 -5.625 2.875 C-4.99851562 2.33617188 -4.37203125 1.79734375 -3.7265625 1.2421875 C-2 0 -2 0 0 0 Z " fill="#151515" transform="translate(116,62)"/>
<path d="M0 0 C0.33 0 0.66 0 1 0 C1 1.65 1 3.3 1 5 C1.66 5.33 2.32 5.66 3 6 C2.125 9.875 2.125 9.875 1 11 C0.95919217 12.99958364 0.95745644 15.00045254 1 17 C-1.13713493 14.68477049 -1.96026664 13.35760022 -2.3125 10.1875 C-1.95600873 6.55128903 -1.1121709 3.47553406 0 0 Z " fill="#3B3B3B" transform="translate(76,116)"/>
<path d="M0 0 C-0.99 0.33 -1.98 0.66 -3 1 C-3.12375 1.639375 -3.2475 2.27875 -3.375 2.9375 C-3.58125 3.618125 -3.7875 4.29875 -4 5 C-6.5625 6.25 -6.5625 6.25 -9 7 C-9.33 5.35 -9.66 3.7 -10 2 C-6.5980513 -0.09350689 -3.94727588 -0.17942163 0 0 Z " fill="#3C3C3C" transform="translate(103,106)"/>
<path d="M0 0 C-1 1.5 -1 1.5 -3 3 C-5.71846235 3.27345479 -8.25677199 3.13491285 -11 3 C-11 2.01 -11 1.02 -11 0 C-7.01803543 -1.05404945 -4.01804691 -0.84098656 0 0 Z " fill="#3F3F3F" transform="translate(142,107)"/>
<path d="M0 0 C0.66 0 1.32 0 2 0 C2 0.66 2 1.32 2 2 C3.65 2.33 5.3 2.66 7 3 C6.67 3.99 6.34 4.98 6 6 C2.30581799 7.231394 -0.2056261 6.64432764 -4 6 C-4 5.67 -4 5.34 -4 5 C-1.69 5 0.62 5 3 5 C1.35 4.67 -0.3 4.34 -2 4 C-1.34 2.68 -0.68 1.36 0 0 Z " fill="#2B2B2B" transform="translate(111,31)"/>
<path d="M0 0 C0.66 0.99 1.32 1.98 2 3 C2.99 3 3.98 3 5 3 C5 3.66 5 4.32 5 5 C5.66 5.33 6.32 5.66 7 6 C0.64948454 6.36637589 0.64948454 6.36637589 -2.4375 4.625 C-4 3 -4 3 -4 1 C-2 0 -2 0 0 0 Z " fill="#313131" transform="translate(96,125)"/>
<path d="M0 0 C0.33 0 0.66 0 1 0 C1.04254356 1.99954746 1.04080783 4.00041636 1 6 C0 7 0 7 -2.50390625 7.09765625 C-4.01791016 7.08025391 -4.01791016 7.08025391 -5.5625 7.0625 C-6.57441406 7.05347656 -7.58632812 7.04445313 -8.62890625 7.03515625 C-9.41136719 7.02355469 -10.19382812 7.01195313 -11 7 C-10.67 6.01 -10.34 5.02 -10 4 C-10 4.66 -10 5.32 -10 6 C-8.5164999 5.57742724 -7.03823576 5.13643678 -5.5625 4.6875 C-4.32693359 4.32205078 -4.32693359 4.32205078 -3.06640625 3.94921875 C-2.04353516 3.47935547 -2.04353516 3.47935547 -1 3 C-0.67 2.01 -0.34 1.02 0 0 Z " fill="#222222" transform="translate(131,64)"/>
<path d="M0 0 C0.66 0.33 1.32 0.66 2 1 C0.13807717 2.99267584 -1.38992958 3.92846769 -4.11132812 4.24755859 C-6.66311554 4.29513603 -9.19884745 4.26098224 -11.75 4.1875 C-12.63816406 4.17396484 -13.52632812 4.16042969 -14.44140625 4.14648438 C-16.62822578 4.11121309 -18.81379966 4.06192752 -21 4 C-21.33 3.34 -21.66 2.68 -22 2 C-20.12054688 2.03480469 -20.12054688 2.03480469 -18.203125 2.0703125 C-16.5520893 2.08907427 -14.90104715 2.10727403 -13.25 2.125 C-12.425 2.14175781 -11.6 2.15851563 -10.75 2.17578125 C-9.95078125 2.18222656 -9.1515625 2.18867188 -8.328125 2.1953125 C-7.22839355 2.21102295 -7.22839355 2.21102295 -6.10644531 2.22705078 C-3.91807996 2.11528405 -3.91807996 2.11528405 -1.85449219 0.92529297 C-1.24250977 0.61994629 -0.63052734 0.31459961 0 0 Z " fill="#E3E3E3" transform="translate(84,142)"/>
<path d="M0 0 C0.99 0 1.98 0 3 0 C3.66 2.97 4.32 5.94 5 9 C2.69 9 0.38 9 -2 9 C-0.68 8.34 0.64 7.68 2 7 C2 6.34 2 5.68 2 5 C1.34 5 0.68 5 0 5 C0 3.35 0 1.7 0 0 Z " fill="#3B3B3B" transform="translate(50,122)"/>
<path d="M0 0 C5.94 0 11.88 0 18 0 C18 0.33 18 0.66 18 1 C17.25234375 1.06058594 16.5046875 1.12117188 15.734375 1.18359375 C14.74953125 1.26738281 13.7646875 1.35117188 12.75 1.4375 C11.28820312 1.55931641 11.28820312 1.55931641 9.796875 1.68359375 C7.43538247 1.95074584 5.28098935 2.35371968 3 3 C3 3.66 3 4.32 3 5 C2.34 4.67 1.68 4.34 1 4 C1.33 3.34 1.66 2.68 2 2 C1.34 2 0.68 2 0 2 C0 1.34 0 0.68 0 0 Z " fill="#E6E6E6" transform="translate(90,105)"/>
<path d="M0 0 C0.66 0 1.32 0 2 0 C2.33 0.66 2.66 1.32 3 2 C3.99 2.33 4.98 2.66 6 3 C4.68 3.33 3.36 3.66 2 4 C2.33 5.98 2.66 7.96 3 10 C-0.91941982 6.69298952 -0.91941982 6.69298952 -1.3125 3.3125 C-1 1 -1 1 0 0 Z " fill="#131313" transform="translate(87,45)"/>
<path d="M0 0 C0.33 0 0.66 0 1 0 C1 4.62 1 9.24 1 14 C-0.98 14 -2.96 14 -5 14 C-3.68 13.67 -2.36 13.34 -1 13 C-1.66 11.35 -2.32 9.7 -3 8 C-2.34 7.67 -1.68 7.34 -1 7 C-0.59270772 4.67843403 -0.25561323 2.3431213 0 0 Z " fill="#515151" transform="translate(128,128)"/>
<path d="M0 0 C3.06890491 -0.34098943 4.63064217 -0.21961817 7.3125 1.375 C9.89505264 5.39230411 9.31936644 9.35144409 9 14 C8.67 14 8.34 14 8 14 C7.92523438 13.39671875 7.85046875 12.7934375 7.7734375 12.171875 C7.10658961 7.41836396 7.10658961 7.41836396 4.53125 3.546875 C3.06663896 2.62113029 1.53614449 1.80146669 0 1 C0 0.67 0 0.34 0 0 Z " fill="#C4C4C4" transform="translate(167,106)"/>
<path d="M0 0 C3.63 0 7.26 0 11 0 C11 4.62 11 9.24 11 14 C10.67 14 10.34 14 10 14 C9.67 10.37 9.34 6.74 9 3 C4.545 2.01 4.545 2.01 0 1 C0 0.67 0 0.34 0 0 Z " fill="#FAFAFA" transform="translate(105,132)"/>
<path d="M0 0 C-5.94 3.465 -5.94 3.465 -12 7 C-11 3 -11 3 -9 1 C-3.57692308 -1.19230769 -3.57692308 -1.19230769 0 0 Z " fill="#C8C8C8" transform="translate(85,19)"/>
<path d="M0 0 C2.4375 0.375 2.4375 0.375 5 1 C5.33 1.66 5.66 2.32 6 3 C5.0625 5.125 5.0625 5.125 4 7 C2 5.1875 2 5.1875 0 3 C0 2.01 0 1.02 0 0 Z " fill="#1C1C1C" transform="translate(59,134)"/>
<path d="M0 0 C2.97 0.495 2.97 0.495 6 1 C6 1.99 6 2.98 6 4 C3.36 4 0.72 4 -2 4 C-1.34 2.68 -0.68 1.36 0 0 Z " fill="#CBCBCB" transform="translate(161,112)"/>
<path d="M0 0 C0 0.99 0 1.98 0 3 C-2.75 5.75 -2.75 5.75 -6 8 C-8.375 7.8125 -8.375 7.8125 -10 7 C-9.67 6.01 -9.34 5.02 -9 4 C-7.6078125 3.8453125 -7.6078125 3.8453125 -6.1875 3.6875 C-2.96745642 2.9929808 -1.97420135 2.52259061 0 0 Z " fill="#0D0D0D" transform="translate(108,57)"/>
<path d="M0 0 C0.33 0 0.66 0 1 0 C1.39253254 4.44870215 0.15305957 7.14243493 -2 11 C-4 9 -4 9 -4.125 5.875 C-4.08375 4.92625 -4.0425 3.9775 -4 3 C-3.01 2.67 -2.02 2.34 -1 2 C-0.67 1.34 -0.34 0.68 0 0 Z " fill="#262626" transform="translate(93,46)"/>
<path d="M0 0 C1.258125 -0.04125 2.51625 -0.0825 3.8125 -0.125 C4.52019531 -0.14820312 5.22789062 -0.17140625 5.95703125 -0.1953125 C8 0 8 0 11 2 C10.67 2.99 10.34 3.98 10 5 C10 4.34 10 3.68 10 3 C9.01 3.33 8.02 3.66 7 4 C7 3.34 7 2.68 7 2 C4.69 2.33 2.38 2.66 0 3 C0 2.01 0 1.02 0 0 Z " fill="#3C3C3C" transform="translate(160,108)"/>
<path d="M0 0 C2.97 0 5.94 0 9 0 C8.67 1.98 8.34 3.96 8 6 C7.34 6 6.68 6 6 6 C6 5.01 6 4.02 6 3 C5.34 3.66 4.68 4.32 4 5 C2.64567325 3.68799596 1.31266518 2.35368596 0 1 C0 0.67 0 0.34 0 0 Z " fill="#191919" transform="translate(66,124)"/>
<path d="M0 0 C2.97 0.33 5.94 0.66 9 1 C8.01 2.485 8.01 2.485 7 4 C3.875 4.1875 3.875 4.1875 1 4 C0.67 2.68 0.34 1.36 0 0 Z " fill="#3A3A3A" transform="translate(65,106)"/>
<path d="M0 0 C1.32 0 2.64 0 4 0 C2.25 3.875 2.25 3.875 0 5 C-1.99960012 5.039992 -4.00047242 5.04346799 -6 5 C-5.38125 4.54625 -4.7625 4.0925 -4.125 3.625 C-1.94080167 2.02891081 -1.94080167 2.02891081 0 0 Z " fill="#212121" transform="translate(169,125)"/>
<path d="M0 0 C0 0.66 0 1.32 0 2 C-1.32 2.33 -2.64 2.66 -4 3 C-4 3.66 -4 4.32 -4 5 C-3.34 5.33 -2.68 5.66 -2 6 C-2.99 6 -3.98 6 -5 6 C-5 5.34 -5 4.68 -5 4 C-5.99 3.67 -6.98 3.34 -8 3 C-8 2.34 -8 1.68 -8 1 C-2.25 0 -2.25 0 0 0 Z " fill="#1C1C1C" transform="translate(106,124)"/>
<path d="M0 0 C0 0.99 0 1.98 0 3 C1.98 3 3.96 3 6 3 C6 3.33 6 3.66 6 4 C3.69 4 1.38 4 -1 4 C-1.33 3.34 -1.66 2.68 -2 2 C-2.99 2.495 -2.99 2.495 -4 3 C-4.66 2.67 -5.32 2.34 -6 2 C-6 1.34 -6 0.68 -6 0 C-3.50907189 -1.24546405 -2.58919267 -0.7767578 0 0 Z " fill="#4C4C4C" transform="translate(108,127)"/>
<path d="M0 0 C0.99 1.32 1.98 2.64 3 4 C2.01 4.33 1.02 4.66 0 5 C-0.33 5.66 -0.66 6.32 -1 7 C-1.99 7 -2.98 7 -4 7 C-3.34 5.35 -2.68 3.7 -2 2 C-1.34 2 -0.68 2 0 2 C0 1.34 0 0.68 0 0 Z " fill="#494949" transform="translate(158,121)"/>
<path d="M0 0 C1.4540625 0.0309375 1.4540625 0.0309375 2.9375 0.0625 C4 1.875 4 1.875 4.9375 4.0625 C4.6075 5.0525 4.2775 6.0425 3.9375 7.0625 C3.07125 6.134375 3.07125 6.134375 2.1875 5.1875 C0.13500179 3.24902947 -1.49616582 2.16235751 -4.0625 1.0625 C-3.0625 0.0625 -3.0625 0.0625 0 0 Z " fill="#212121" transform="translate(136.0625,109.9375)"/>
<path d="M0 0 C2.97 0 5.94 0 9 0 C9 0.99 9 1.98 9 3 C7.25 3.6875 7.25 3.6875 5 4 C2.75 2.5625 2.75 2.5625 1 1 C0.67 1.66 0.34 2.32 0 3 C0 2.01 0 1.02 0 0 Z " fill="#272727" transform="translate(36,100)"/>
<path d="M0 0 C2.125 0.9375 2.125 0.9375 4 2 C4.33 1.34 4.66 0.68 5 0 C5 1.32 5 2.64 5 4 C2.69 4 0.38 4 -2 4 C-2 3.01 -2 2.02 -2 1 C-1.34 0.67 -0.68 0.34 0 0 Z " fill="#252525" transform="translate(28,127)"/>
<path d="M0 0 C0.33 0.66 0.66 1.32 1 2 C2.64363134 2.72159424 4.31050386 3.39351421 6 4 C6 4.66 6 5.32 6 6 C4.02 6 2.04 6 0 6 C0 4.02 0 2.04 0 0 Z " fill="#C9C9C9" transform="translate(153,126)"/>
<path d="M0 0 C0.99 0.33 1.98 0.66 3 1 C3 5.29 3 9.58 3 14 C2.67 14 2.34 14 2 14 C2 10.37 2 6.74 2 3 C1.01 3 0.02 3 -1 3 C-0.67 2.01 -0.34 1.02 0 0 Z " fill="#E9E9E9" transform="translate(48,96)"/>
<path d="M0 0 C0.66 0.33 1.32 0.66 2 1 C-2.14285714 7.42857143 -2.14285714 7.42857143 -5 10 C-4.49701212 5.59885603 -2.91227269 3.28804981 0 0 Z " fill="#E2E2E2" transform="translate(63,28)"/>
<path d="M0 0 C2.97 0.495 2.97 0.495 6 1 C5.34 2.65 4.68 4.3 4 6 C2.62437146 4.71034824 1.29233607 3.37310707 0 2 C0 1.34 0 0.68 0 0 Z " fill="#FBFBFB" transform="translate(133,136)"/>
<path d="M0 0 C0.66 0.33 1.32 0.66 2 1 C1.6875 3.375 1.6875 3.375 1 6 C0.01 6.66 -0.98 7.32 -2 8 C-2.20086443 4.28400809 -2.1519437 3.22791555 0 0 Z " fill="#1D1D1D" transform="translate(111,50)"/>
<path d="M0 0 C2.9375 0.75 2.9375 0.75 6 2 C6.875 4.125 6.875 4.125 7 6 C6.01 6 5.02 6 4 6 C4 5.34 4 4.68 4 4 C3.34 4 2.68 4 2 4 C1.34 2.68 0.68 1.36 0 0 Z " fill="#181818" transform="translate(122,35)"/>
<path d="M0 0 C1.98 0 3.96 0 6 0 C3.38485683 2.12038635 0.80362384 4.13091744 -2 6 C-1.49396008 3.83125748 -1.00016187 2.00032373 0 0 Z " fill="#C9C9C9" transform="translate(65,27)"/>
<path d="M0 0 C3.465 1.485 3.465 1.485 7 3 C6.67 3.99 6.34 4.98 6 6 C3.5625 5.25 3.5625 5.25 1 4 C0.1875 1.875 0.1875 1.875 0 0 Z " fill="#C7C7C7" transform="translate(60,139)"/>
<path d="M0 0 C0.433125 0.474375 0.86625 0.94875 1.3125 1.4375 C3.02309613 3.23686957 3.02309613 3.23686957 6 4 C5.34 4.66 4.68 5.32 4 6 C2.68 6 1.36 6 0 6 C0 4.02 0 2.04 0 0 Z " fill="#202020" transform="translate(90,118)"/>
<path d="M0 0 C0.99 0 1.98 0 3 0 C3 2.64 3 5.28 3 8 C1.5 6.8125 1.5 6.8125 0 5 C-0.1875 2.3125 -0.1875 2.3125 0 0 Z " fill="#242424" transform="translate(126,114)"/>
<path d="M0 0 C2.64 0 5.28 0 8 0 C8.66 1.65 9.32 3.3 10 5 C9.46375 4.690625 8.9275 4.38125 8.375 4.0625 C5.6015043 2.82172561 2.99957163 2.4090325 0 2 C0 1.34 0 0.68 0 0 Z " fill="#262626" transform="translate(159,110)"/>
<path d="M0 0 C1.67542976 0.28604898 3.34385343 0.61781233 5 1 C5 2.65 5 4.3 5 6 C4.01 6 3.02 6 2 6 C2 5.01 2 4.02 2 3 C1.01 2.34 0.02 1.68 -1 1 C-0.67 0.67 -0.34 0.34 0 0 Z " fill="#121212" transform="translate(108,43)"/>
<path d="M0 0 C-0.639375 0.28875 -1.27875 0.5775 -1.9375 0.875 C-4.15206079 1.82823451 -4.15206079 1.82823451 -5 4 C-6.32 2.68 -7.64 1.36 -9 0 C-5.67465243 -1.10844919 -3.37817425 -0.84454356 0 0 Z " fill="#202020" transform="translate(104,36)"/>
<path d="M0 0 C1.093125 0.226875 2.18625 0.45375 3.3125 0.6875 C0.08734237 2.42412334 -3.20079166 3.5780928 -6.6875 4.6875 C-6.6875 2.6875 -6.6875 2.6875 -5.625 1 C-3.6875 -0.3125 -3.6875 -0.3125 0 0 Z " fill="#1B1B1B" transform="translate(89.6875,34.3125)"/>
<path d="M0 0 C1.98 0.66 3.96 1.32 6 2 C5.67 2.99 5.34 3.98 5 5 C2.525 4.01 2.525 4.01 0 3 C0 2.01 0 1.02 0 0 Z " fill="#0B0B0B" transform="translate(127,27)"/>
<path d="M0 0 C0.99 0.33 1.98 0.66 3 1 C2.67 2.32 2.34 3.64 2 5 C0.02 5 -1.96 5 -4 5 C-3.34 4.360625 -2.68 3.72125 -2 3.0625 C0.11602431 1.35917681 0.11602431 1.35917681 0 0 Z " fill="#F9F9F9" transform="translate(174,130)"/>
<path d="M0 0 C0.33 0 0.66 0 1 0 C1 2.64 1 5.28 1 8 C0.01 8 -0.98 8 -2 8 C-1.125 2.25 -1.125 2.25 0 0 Z " fill="#F0F0F0" transform="translate(24,124)"/>
<path d="M0 0 C0.33 0.66 0.66 1.32 1 2 C1.66 2 2.32 2 3 2 C2.67 3.32 2.34 4.64 2 6 C0.68 5.67 -0.64 5.34 -2 5 C-1.34 3.35 -0.68 1.7 0 0 Z " fill="#2D2D2D" transform="translate(28,123)"/>
<path d="M0 0 C0.99 0.33 1.98 0.66 3 1 C2.67 2.32 2.34 3.64 2 5 C1.01 5 0.02 5 -1 5 C-1.33 4.34 -1.66 3.68 -2 3 C-1.34 2.01 -0.68 1.02 0 0 Z " fill="#323232" transform="translate(60,118)"/>
<path d="M0 0 C2.475 0.495 2.475 0.495 5 1 C4.34 2.32 3.68 3.64 3 5 C2.01 4.34 1.02 3.68 0 3 C0 2.01 0 1.02 0 0 Z " fill="#3D3D3D" transform="translate(152,112)"/>
<path d="M0 0 C0.99 0 1.98 0 3 0 C2.34 3.63 1.68 7.26 1 11 C0.67 11 0.34 11 0 11 C0 7.37 0 3.74 0 0 Z " fill="#D3D3D3" transform="translate(88,110)"/>
<path d="M0 0 C0.99 0 1.98 0 3 0 C2.67 1.65 2.34 3.3 2 5 C1.01 4.67 0.02 4.34 -1 4 C-0.67 2.68 -0.34 1.36 0 0 Z " fill="#444444" transform="translate(110,107)"/>
<path d="M0 0 C0.33 1.32 0.66 2.64 1 4 C0.01 4.495 0.01 4.495 -1 5 C-3.125 4.0625 -3.125 4.0625 -5 3 C-2.25 0 -2.25 0 0 0 Z " fill="#2C2C2C" transform="translate(65,107)"/>
<path d="M0 0 C0.66 0.33 1.32 0.66 2 1 C0.515 4.96 0.515 4.96 -1 9 C-1.33 9 -1.66 9 -2 9 C-2.125 5.625 -2.125 5.625 -2 2 C-1.34 1.34 -0.68 0.68 0 0 Z " fill="#CBCBCB" transform="translate(34,100)"/>
<path d="M0 0 C2.97 0.33 5.94 0.66 9 1 C8.67 1.66 8.34 2.32 8 3 C5.36 3 2.72 3 0 3 C0 2.01 0 1.02 0 0 Z " fill="#272727" transform="translate(74,68)"/>
<path d="M0 0 C0.33 0.66 0.66 1.32 1 2 C2.64363134 2.72159424 4.31050386 3.39351421 6 4 C5.67 4.99 5.34 5.98 5 7 C2.5 5.1875 2.5 5.1875 0 3 C0 2.01 0 1.02 0 0 Z " fill="#191919" transform="translate(91,55)"/>
<path d="M0 0 C0.33 0.99 0.66 1.98 1 3 C-0.98 3.99 -0.98 3.99 -3 5 C-3.33 3.68 -3.66 2.36 -4 1 C-2 0 -2 0 0 0 Z " fill="#252525" transform="translate(83,37)"/>
<path d="M0 0 C0.99 0 1.98 0 3 0 C3 0.99 3 1.98 3 3 C2.01 3 1.02 3 0 3 C0 2.01 0 1.02 0 0 Z " fill="#FFFFFF" transform="translate(110,142)"/>
<path d="M0 0 C2.125 0.375 2.125 0.375 4 1 C4 1.33 4 1.66 4 2 C2.02 2 0.04 2 -2 2 C-1.34 1.34 -0.68 0.68 0 0 Z " fill="#FDFDFD" transform="translate(40,94)"/>
<path d="M0 0 C1.98 0 3.96 0 6 0 C6 0.33 6 0.66 6 1 C4.02 1 2.04 1 0 1 C0 0.67 0 0.34 0 0 Z " fill="#FEFEFE" transform="translate(125,147)"/>
<path d="M0 0 C1 4 1 4 1 4 Z " fill="#FFFFFF" transform="translate(28,103)"/>
<path d="M0 0 C0 3 0 3 0 3 Z " fill="#FEFEFE" transform="translate(31,96)"/>
<path d="M0 0 C0.33 0.66 0.66 1.32 1 2 C0.34 1.67 -0.32 1.34 -1 1 C-0.67 0.67 -0.34 0.34 0 0 Z " fill="#FEFEFE" transform="translate(16,134)"/>
<path d="" fill="#FEFEFE" transform="translate(0,0)"/>
<path d="" fill="#FFFFFF" transform="translate(0,0)"/>
<path d="" fill="#FFFFFF" transform="translate(0,0)"/>
<path d="" fill="#FFFFFF" transform="translate(0,0)"/>
<path d="" fill="#FFFFFF" transform="translate(0,0)"/>
<path d="" fill="#FEFEFE" transform="translate(0,0)"/>
<path d="" fill="#FEFEFE" transform="translate(0,0)"/>
<path d="" fill="#FFFFFF" transform="translate(0,0)"/>
<path d="" fill="#FFFFFF" transform="translate(0,0)"/>
</svg>
